<svg width="57" height="61" viewBox="0 0 57 61" fill="none" xmlns="http://www.w3.org/2000/svg">
<path d="M36.9294 54.9156H33.0523C32.3378 54.9156 31.7265 54.3031 31.7265 53.5882C31.7265 52.8739 32.3378 52.2627 33.0523 52.2627H35.6036V49.6098C35.6036 49.201 35.6036 48.793 35.6036 48.3849C35.7048 46.5469 36.0114 44.8124 36.4193 42.9764C37.4394 38.9956 39.4806 35.2213 42.2364 31.9552C45.0933 28.8945 46.6235 24.7104 46.6235 20.425C46.6235 10.6276 38.6639 2.66825 28.8696 2.56602H28.7674C18.9721 2.56602 10.9114 10.6276 10.9114 20.425C10.9114 24.7104 12.4415 28.7913 15.1972 32.0574C17.9509 35.2213 19.89 39.0988 20.9101 43.0784C21.3189 44.8124 21.6246 46.6505 21.6246 48.4861C21.6246 48.793 21.6246 49.0985 21.6246 49.4042V52.3639H24.1759C24.8904 52.3639 25.5016 52.977 25.5016 53.6907C25.5016 54.4051 24.8904 55.0176 24.1759 55.0176H20.2988C19.5843 55.0176 18.9721 54.4051 18.9721 53.6907V49.5065C18.9721 49.201 18.9721 48.9965 18.9721 48.6897C18.8699 47.0581 18.6664 45.4256 18.2576 43.8944C17.3397 40.2202 15.6051 36.7517 13.156 33.8944C9.9924 30.2204 8.25781 25.5272 8.25781 20.6285C8.25781 15.2197 10.4023 10.1175 14.2793 6.24004C18.1564 2.36258 23.258 0.219902 28.6652 0.219902H28.8696C34.2768 0.219902 39.3784 2.36258 43.1543 6.24004C46.9291 10.1175 49.0716 15.2197 49.0716 20.6285C49.0716 25.5272 47.338 30.2204 44.0722 33.9967C41.6231 36.8529 39.7873 40.3235 38.8684 43.8944C38.4606 45.5268 38.2561 47.1605 38.1539 48.6897C38.1539 49.0985 38.1539 49.4042 38.1539 49.8134V53.7927C38.2561 54.3031 37.6438 54.9156 36.9294 54.9156Z" fill="#10002B"/>
<path d="M33.1554 60.0176C32.4419 60.0176 31.8285 59.4052 31.8285 58.6904V54.8132H25.4007V58.6904C25.4007 59.4052 24.7884 60.0176 24.0739 60.0176C23.3594 60.0176 22.748 59.4052 22.748 58.6904V53.5884C22.748 52.874 23.3594 52.2628 24.0739 52.2628H33.0531C33.7677 52.2628 34.38 52.874 34.38 53.5884V58.6904C34.38 59.4052 33.7677 60.0176 33.1554 60.0176Z" fill="#10002B"/>
<path d="M40.8045 44.7109H16.5211C15.8066 44.7109 15.1953 44.0986 15.1953 43.3837C15.1953 42.6694 15.8066 42.058 16.5211 42.058H40.8045C41.52 42.058 42.1323 42.6694 42.1323 43.3837C42.1323 44.0986 41.4178 44.7109 40.8045 44.7109Z" fill="#10002B"/>
<path d="M40.8045 49.8145H16.5211C15.8066 49.8145 15.1953 49.202 15.1953 48.4871C15.1953 47.7728 15.8066 47.1616 16.5211 47.1616H40.8045C41.52 47.1616 42.1323 47.7728 42.1323 48.4871C42.0291 49.202 41.4178 49.8145 40.8045 49.8145Z" fill="#10002B"/>
<path d="M28.7662 44.7109C28.0517 44.7109 27.4395 44.0986 27.4395 43.3837V1.34111C27.4395 0.62756 28.0517 0.0152245 28.7662 0.0152245C29.4807 0.0152245 30.0929 0.62756 30.0929 1.34111V43.4862C30.0929 44.0986 29.4807 44.7109 28.7662 44.7109Z" fill="#10002B"/>
<path d="M36.9294 14.0977C36.5216 14.0977 36.1137 13.8932 35.9103 13.4843C35.5014 12.873 35.7048 12.0563 36.3181 11.7496C40.0932 9.30034 39.5832 6.74987 39.5832 6.74987C39.3787 6.03635 39.8888 5.42302 40.5021 5.21959C41.2156 5.01515 41.828 5.52523 42.0314 6.13755C42.0314 6.34199 42.9514 10.4238 37.644 13.8932C37.4395 13.9944 37.1349 14.0977 36.9294 14.0977Z" fill="#10002B"/>
<path d="M29.2782 26.8516C29.0747 26.8516 28.9715 26.8516 28.7681 26.7504C28.1557 26.4437 27.7469 25.7292 28.0535 25.1168C29.3794 21.6474 31.7274 20.2193 33.4621 19.7092C35.2981 19.0959 36.8294 19.1991 37.0338 19.3003C37.7473 19.4026 38.2574 20.0149 38.1552 20.7284C38.054 21.4429 37.4407 21.953 36.7272 21.8518C36.5227 21.8518 32.2375 21.4429 30.4006 26.137C30.2993 26.5459 29.7883 26.8516 29.2782 26.8516Z" fill="#10002B"/>
<path d="M42.339 33.2832C37.7471 33.2832 34.7877 28.997 34.5843 28.7926C34.1764 28.1812 34.3799 27.4667 34.89 27.0578C35.5023 26.65 36.2168 26.8544 36.6247 27.3645C36.6247 27.4667 39.3796 31.2418 43.0535 30.6305C43.768 30.5273 44.3803 31.0384 44.4816 31.6507C44.5838 32.3652 44.0737 32.9765 43.4624 33.0798C43.0535 33.181 42.7468 33.2832 42.339 33.2832Z" fill="#10002B"/>
<path d="M46.4194 24.3027C43.0521 24.3027 41.2152 20.4254 40.8063 18.0774C40.7051 17.3628 41.113 16.7515 41.8275 16.5471C42.542 16.4449 43.1544 16.8527 43.3578 17.5673C43.3578 17.5673 44.379 22.2613 46.9295 21.649C47.644 21.5468 48.2563 21.9547 48.4608 22.6692C48.563 23.3848 48.1541 23.9961 47.4396 24.2005C47.0317 24.3027 46.726 24.3027 46.4194 24.3027Z" fill="#10002B"/>
<path d="M38.1543 17.873C37.6442 17.873 37.1351 17.5664 36.9297 16.9541C35.5016 12.4644 33.359 12.6689 33.2568 12.6689C32.5422 12.7701 31.9299 12.3622 31.7265 11.6487C31.6243 10.9341 32.0332 10.3218 32.7467 10.1174C32.9511 10.1174 37.1351 9.30062 39.2777 16.0361C39.4812 16.7506 39.1755 17.4652 38.4609 17.6686C38.4609 17.873 38.3598 17.873 38.1543 17.873Z" fill="#10002B"/>
<path d="M52.2353 60.0176H6.3199C5.60541 60.0176 4.99414 59.4051 4.99414 58.6904C4.99414 57.9767 5.60541 57.3647 6.3199 57.3647H52.2353C52.9487 57.3647 53.562 57.9767 53.562 58.6904C53.562 59.4051 52.9487 60.0176 52.2353 60.0176Z" fill="#10002B"/>
<path d="M51.6215 40.8337C50.6013 40.8337 49.6823 41.6497 49.6823 42.7729C49.6823 43.8945 50.4991 44.7112 51.6215 44.7112C52.6427 44.7112 53.5607 43.8945 53.5607 42.7729C53.5607 41.6497 52.6427 40.8337 51.6215 40.8337ZM51.6215 47.2617C49.1723 47.2617 47.1309 45.2212 47.1309 42.7729C47.1309 40.3237 49.1723 38.2823 51.6215 38.2823C54.0708 38.2823 56.1111 40.3237 56.1111 42.7729C56.1111 45.2212 54.0708 47.2617 51.6215 47.2617Z" fill="#10002B"/>
<path d="M8.25849 38.2828C7.95385 38.2828 7.64718 38.5895 7.64718 38.8951C7.64718 39.2008 7.95385 39.5075 8.25849 39.5075C8.56515 39.5075 8.87182 39.2008 8.87182 38.8951C8.87182 38.5895 8.56515 38.2828 8.25849 38.2828ZM8.25849 42.1602C6.52376 42.1602 5.0957 40.7322 5.0957 38.9964C5.0957 37.2616 6.52376 35.8336 8.25849 35.8336C9.99322 35.8336 11.4223 37.2616 11.4223 38.9964C11.4223 40.7322 9.99322 42.1602 8.25849 42.1602Z" fill="#10002B"/>
<path d="M3.15497 10.2193C2.85033 10.2193 2.54372 10.525 2.54372 10.8316C2.54372 11.1383 2.85033 11.444 3.15497 11.444C3.46164 11.444 3.76831 11.2395 3.76831 10.8316C3.76831 10.525 3.46164 10.2193 3.15497 10.2193ZM3.15497 14.0977C1.42025 14.0977 -0.0078125 12.6686 -0.0078125 10.9339C-0.0078125 9.19913 1.42025 7.77107 3.15497 7.77107C4.8897 7.77107 6.3188 9.19913 6.3188 10.9339C6.3188 12.6686 4.8897 14.0977 3.15497 14.0977Z" fill="#10002B"/>
<path d="M33.1541 30.6289C32.8484 30.6289 32.5417 30.5257 32.2361 30.22C31.726 29.7099 31.726 28.8942 32.2361 28.3831L36.1134 24.5057C36.6235 23.9957 37.4392 23.9957 37.9504 24.5057C38.4604 25.0158 38.4604 25.8316 37.9504 26.3427L34.073 30.22C33.7664 30.5257 33.4607 30.6289 33.1541 30.6289Z" fill="#10002B"/>
</svg>
