<svg width="65" height="60" viewBox="0 0 65 60" fill="none" xmlns="http://www.w3.org/2000/svg">
<path d="M16.4625 40.6723C15.3566 40.6723 14.3626 41.5557 14.3626 42.7711C14.3626 43.9865 15.2459 44.8709 16.4625 44.8709C17.5672 44.8709 18.5612 43.9865 18.5612 42.7711C18.5612 41.5557 17.5672 40.6723 16.4625 40.6723ZM16.4625 47.6328C13.8102 47.6328 11.5996 45.4233 11.5996 42.7711C11.5996 40.1188 13.8102 37.9093 16.4625 37.9093C19.1147 37.9093 21.3242 40.1188 21.3242 42.7711C21.3242 45.4233 19.1147 47.6328 16.4625 47.6328Z" fill="#10002B"/>
<path d="M55.7953 53.1589C54.6906 53.1589 53.6954 54.0433 53.6954 55.2587C53.6954 56.3635 54.5799 57.3586 55.7953 57.3586C56.9001 57.3586 57.8952 56.4741 57.8952 55.2587C57.8952 54.0433 57.0118 53.1589 55.7953 53.1589ZM55.7953 60.0098C53.1431 60.0098 50.9336 57.8003 50.9336 55.148C50.9336 52.4958 53.1431 50.2863 55.7953 50.2863C58.4476 50.2863 60.6582 52.4958 60.6582 55.148C60.6582 57.8003 58.4476 60.0098 55.7953 60.0098Z" fill="#10002B"/>
<path d="M29.0568 58.1309C13.0359 58.1309 -0.00195312 45.0916 -0.00195312 29.069C-0.00195312 13.0464 13.0359 0.00709152 29.0568 0.00709152C33.6979 0.00709152 38.007 1.00117 42.0947 3.10114C42.7577 3.43323 43.0897 4.31663 42.7577 4.97972C42.4267 5.64281 41.5434 5.97378 40.8793 5.64278C37.2333 3.76422 33.2562 2.87974 29.0568 2.87974C14.5833 2.87974 2.76079 14.7035 2.76079 29.1797C2.76079 43.6558 14.5833 55.4785 29.0568 55.4785C41.3209 55.4785 52.0399 46.8606 54.6909 34.9261C55.1325 33.0475 55.3539 31.169 55.3539 29.2904C55.3539 27.8535 55.2432 26.4166 55.0218 25.0904C54.0279 19.013 50.9342 13.3774 46.1835 9.39995C45.6311 8.95826 45.5193 8.07373 46.0727 7.41064C46.5155 6.85825 47.3988 6.74758 48.0618 7.29997C53.2541 11.7202 56.7906 17.9083 57.7846 24.6488C58.006 26.1963 58.1166 27.7428 58.1166 29.2904C58.1166 31.3893 57.8953 33.4892 57.4536 35.4785C56.0169 41.8869 52.4815 47.6333 47.3988 51.7225C42.2053 55.8106 35.6869 58.1309 29.0568 58.1309Z" fill="#10002B"/>
<path d="M44.7484 3.43425C43.8651 3.43425 43.0913 3.98548 42.7593 4.86993C42.6486 5.09132 42.6486 5.31164 42.6486 5.53303C42.6486 6.63777 43.533 7.63288 44.7484 7.63288C45.4115 7.63288 45.8532 7.41154 46.0746 7.19015C46.5174 6.74848 46.8473 6.19607 46.8473 5.6437C46.8473 4.31757 45.9639 3.43425 44.7484 3.43425ZM44.7484 10.2852C42.0962 10.2852 39.8867 8.07456 39.8867 5.42231C39.8867 4.86994 39.9963 4.42828 40.1081 3.9855C40.7701 1.99631 42.6486 0.560585 44.7484 0.560585C47.4007 0.560585 49.6102 2.77115 49.6102 5.42231C49.6102 6.85913 48.9471 8.18526 47.8435 9.06861C47.0697 9.95307 45.9639 10.2852 44.7484 10.2852Z" fill="#10002B"/>
<path d="M10.9379 23.6543C10.8272 23.6543 10.6058 23.6543 10.4951 23.5436C9.8321 23.3222 9.39154 22.4388 9.72141 21.7757C11.1581 17.9079 13.8102 14.5935 17.236 12.1615C20.7703 9.7305 24.859 8.40542 29.1692 8.40542C29.9418 8.40542 30.6048 9.06742 30.6048 9.84121C30.6048 10.615 29.9418 11.2781 29.1692 11.2781C21.7653 11.2781 15.0256 15.9186 12.3735 22.8805C12.0425 23.3222 11.4902 23.6543 10.9379 23.6543Z" fill="#10002B"/>
<path d="M40.1072 22.2174C37.7871 22.2174 35.9075 23.3222 35.9075 24.3173C35.9075 25.3114 37.6753 26.4161 40.1072 26.4161C42.5381 26.4161 44.3059 25.3114 44.3059 24.3173C44.3059 23.3222 42.4274 22.2174 40.1072 22.2174ZM40.1072 29.0684C36.2395 29.0684 33.1445 26.9695 33.1445 24.2066C33.1445 21.4447 36.1288 19.3449 40.1072 19.3449C44.0845 19.3449 47.0689 21.4447 47.0689 24.2066C47.0689 26.9695 43.9738 29.0684 40.1072 29.0684Z" fill="#10002B"/>
<path d="M55.3529 26.0859C53.5852 26.0859 52.4806 25.7539 51.8176 25.2015C51.4855 24.8705 51.2653 24.4288 51.1546 23.986C50.2702 23.986 48.0609 24.6491 46.1825 25.5335C45.5184 25.8645 44.6362 25.5336 44.3041 24.8705C43.9721 24.2074 44.3041 23.3229 44.9671 22.9919C44.9671 22.9919 46.2932 22.3288 47.8406 21.8871C50.2702 21.1133 51.8176 21.0026 52.8115 21.6657C53.365 21.9978 53.6948 22.5491 53.8066 23.2122C54.1376 23.3229 54.8006 23.4336 56.1266 23.3229C59.2192 23.2122 63.0878 22.2181 63.1973 22.2181C63.971 21.9978 64.6341 22.5491 64.8554 23.2122C65.0757 23.986 64.5234 24.6491 63.8615 24.8705C63.6401 24.8705 59.662 25.8646 56.3469 25.9753C56.016 26.086 55.685 26.0859 55.3529 26.0859Z" fill="#10002B"/>
<path d="M34.5827 33.2682C32.2625 33.2682 30.384 34.374 30.384 35.3681C30.384 36.3621 32.1519 37.468 34.5827 37.468C36.904 37.468 38.7825 36.3621 38.7825 35.3681C38.7825 34.374 36.904 33.2682 34.5827 33.2682ZM34.5827 40.1191C30.7161 40.1191 27.6211 38.0204 27.6211 35.2574C27.6211 32.4956 30.6054 30.3957 34.5827 30.3957C38.4504 30.3957 41.5454 32.4956 41.5454 35.2574C41.5454 38.0204 38.4504 40.1191 34.5827 40.1191Z" fill="#10002B"/>
<path d="M49.9408 37.1367C47.5101 37.1367 46.846 36.5843 46.5162 36.2522C46.0734 35.9212 45.852 35.4795 45.7424 34.9271C44.8581 34.9271 42.6476 35.5891 40.7693 36.4736C40.1074 36.8057 39.223 36.4736 38.892 35.8105C38.56 35.1474 38.892 34.264 39.554 33.9319C39.554 33.9319 40.88 33.2689 42.4274 32.8272C44.8581 32.0534 46.4044 31.9438 47.3995 32.6058C47.9518 32.9379 48.2828 33.4903 48.3945 34.1533C49.0565 34.3747 51.2669 34.4854 55.7962 33.601C56.9009 33.3796 57.7853 33.1593 57.7853 33.1593C58.559 32.9379 59.2209 33.4903 59.4433 34.1533C59.6636 34.9271 59.1113 35.5891 58.4482 35.8105C58.4482 35.8105 57.565 36.0319 56.3485 36.2522C53.3666 36.9153 51.2669 37.1367 49.9408 37.1367Z" fill="#10002B"/>
<path d="M19.8872 33.8229C18.7824 33.8229 17.7883 34.7062 17.7883 35.9216C17.7883 37.1371 18.6717 38.0216 19.8872 38.0216C20.993 38.0216 21.987 37.1371 21.987 35.9216C21.987 34.7062 21.1026 33.8229 19.8872 33.8229ZM19.8872 40.6738C17.236 40.6738 15.0254 38.4632 15.0254 35.811C15.0254 33.1598 17.236 30.9492 19.8872 30.9492C22.5394 30.9492 24.7489 33.1598 24.7489 35.811C24.7489 38.4632 22.5394 40.6738 19.8872 40.6738Z" fill="#10002B"/>
<path d="M13.0375 33.8229C11.9328 33.8229 10.9387 34.7062 10.9387 35.9216C10.9387 37.1371 11.8221 38.0216 13.0375 38.0216C14.1433 38.0216 15.1374 37.1371 15.1374 35.9216C15.1374 34.7062 14.1433 33.8229 13.0375 33.8229ZM13.0375 40.6738C10.3863 40.6738 8.17578 38.4632 8.17578 35.811C8.17578 33.1598 10.3863 30.9492 13.0375 30.9492C15.6898 30.9492 17.8992 33.1598 17.8992 35.811C17.8992 38.4632 15.6898 40.6738 13.0375 40.6738Z" fill="#10002B"/>
</svg>
