<svg width="60" height="60" viewBox="0 0 60 60" fill="none" xmlns="http://www.w3.org/2000/svg">
<path d="M26.516 46.6367C20.5383 46.6367 14.6695 44.4621 10.104 40.4395L8.14733 42.3963C7.604 42.9397 6.73403 42.9397 6.1907 42.3963C5.64737 41.8529 5.64737 40.9829 6.1907 40.4395L9.01731 37.6137C9.234 37.3969 9.56065 37.1791 9.9951 37.1791C10.3207 37.1791 10.7562 37.288 10.9729 37.6137C16.4073 42.9397 24.1249 45.0055 31.516 43.3753C32.3849 43.1575 33.2548 42.9397 34.1237 42.6141C37.3848 41.4184 40.2104 39.5705 42.7103 37.0703C46.8414 32.7221 49.1236 27.0704 49.0147 21.0909C48.9058 15.1126 46.5147 9.45981 42.167 5.3294C41.9503 5.11161 41.7325 4.78598 41.7325 4.35148C41.7325 4.0248 41.8414 3.59035 42.167 3.37256L44.9936 0.437801C45.5369 -0.105591 46.4058 -0.105591 46.9492 0.437801C47.4936 0.98119 47.4936 1.85017 46.9492 2.39464L44.9936 4.35148C49.2324 8.91639 51.6235 14.787 51.7324 20.9831C51.8402 27.7216 49.3413 34.0266 44.667 38.9182C41.9503 41.7441 38.6892 43.8098 35.1026 45.1144C34.1237 45.44 33.146 45.7667 32.1671 45.9845C30.2115 46.419 28.3638 46.6367 26.516 46.6367Z" fill="white"/>
<path d="M31.842 51.7441C31.0819 51.7441 30.4297 51.0919 30.4297 50.3307V44.896C30.4297 44.1348 31.0819 43.4836 31.842 43.4836C32.6032 43.4836 33.2554 44.1348 33.2554 44.896V50.3307C33.2554 51.0919 32.6032 51.7441 31.842 51.7441Z" fill="white"/>
<path d="M35.9729 51.7441C35.2128 51.7441 34.5605 51.0919 34.5605 50.3307V43.8092C34.5605 43.0481 35.2128 42.3958 35.9729 42.3958C36.734 42.3958 37.3863 43.0481 37.3863 43.8092V50.3307C37.2774 51.0919 36.734 51.7441 35.9729 51.7441Z" fill="white"/>
<path d="M25.8628 2.83105H25.7539C16.0807 2.93995 8.25522 10.7662 8.25522 20.4405C8.25522 30.2237 16.1896 38.1589 25.9717 38.1589C35.7538 38.1589 43.6882 30.2237 43.6882 20.4405C43.6882 10.7662 35.8627 2.83105 26.1895 2.83105C25.9717 2.83105 25.8628 2.83105 25.8628 2.83105ZM25.8628 40.877C14.6685 40.877 5.42969 31.746 5.42969 20.4405C5.42969 15.0055 7.49413 9.8962 11.4074 6.09247C15.2107 2.28766 20.3196 0.114082 25.7539 0.114082H25.8628H25.9717C31.4061 0.114082 36.5149 2.28766 40.3183 6.09247C44.1227 9.8962 46.1882 15.0055 46.1882 20.4405C46.1882 31.746 37.0583 40.877 25.8628 40.877Z" fill="white"/>
<path d="M25.8613 40.877C21.5136 40.877 17.7092 36.311 15.9703 28.9191C15.7536 28.1579 16.2969 27.5067 16.9492 27.2889C17.7092 27.0722 18.3614 27.6157 18.5791 28.2669C19.9914 34.1374 22.9269 38.05 25.8613 38.05C27.8179 38.05 29.8824 36.311 31.4046 33.2673C33.1434 29.8981 34.0134 25.3321 34.0134 20.4405C34.0134 18.7014 33.9045 16.8535 33.6868 15.2234C33.5779 14.4622 34.1212 13.8099 34.8823 13.701C35.6434 13.5932 36.2956 14.1366 36.4045 14.8977C36.6212 16.7446 36.839 18.5926 36.839 20.5494C36.7301 31.855 31.9479 40.877 25.8613 40.877Z" fill="white"/>
<path d="M16.2981 21.8516C15.537 21.8516 14.8848 21.1992 14.8848 20.4381C14.8848 15.2209 15.8625 10.2204 17.8192 6.41564C19.7758 2.39412 22.6014 0.111671 25.6458 0.0027771C25.7536 0.0027771 25.8624 0.0027771 25.9713 0.0027771C29.2313 0.111671 32.3835 2.8286 34.3401 7.61129C34.6668 8.26358 34.3401 9.13366 33.579 9.35145C32.9268 9.67705 32.0579 9.35144 31.8402 8.59027C30.319 5.00325 28.1446 2.82862 25.9713 2.82862H25.8624C25.8624 2.82862 25.8624 2.82862 25.7536 2.82862C21.8414 2.93751 17.7103 10.0037 17.7103 20.4381C17.7103 21.1992 17.0581 21.8516 16.2981 21.8516Z" fill="white"/>
<path d="M44.8837 21.8516H6.84193C6.08083 21.8516 5.42969 21.1992 5.42969 20.4381C5.42969 19.678 6.08083 19.0257 6.84193 19.0257H44.8837C45.6437 19.0257 46.296 19.678 46.296 20.4381C46.296 21.1992 45.6437 21.8516 44.8837 21.8516Z" fill="white"/>
<path d="M25.8625 40.877C25.1014 40.877 24.4492 40.2247 24.4492 39.4635V1.41866C24.4492 0.657486 25.1014 0.00521851 25.8625 0.00521851C26.6236 0.00521851 27.2759 0.657486 27.2759 1.41866V39.4635C27.167 40.2247 26.6236 40.877 25.8625 40.877Z" fill="white"/>
<path d="M43.5826 59.898C42.8215 59.898 42.1692 59.2458 42.1692 58.4846V51.745H16.4095V58.5935C16.4095 59.3536 15.7584 60.0059 14.9973 60.0059C14.2362 60.0059 13.584 59.3536 13.584 58.5935V50.4404C13.584 49.6793 14.2362 49.027 14.9973 49.027H43.5826C44.3437 49.027 44.9958 49.6793 44.9958 50.4404V58.5935C44.887 59.2458 44.2348 59.898 43.5826 59.898Z" fill="white"/>
<path d="M55.7524 59.8984H1.40745C0.646352 59.8984 -0.00585938 59.2462 -0.00585938 58.485C-0.00585938 57.7238 0.646352 57.1804 1.40745 57.1804H55.7524C56.5135 57.1804 57.1657 57.8327 57.1657 58.5939C57.1657 59.2461 56.5135 59.8984 55.7524 59.8984Z" fill="white"/>
<path d="M4.77838 49.0268C4.45171 49.0268 4.12613 49.3535 4.12613 49.6791C4.12613 50.0058 4.45171 50.3314 4.77838 50.3314C5.10397 50.3314 5.43064 50.0058 5.43064 49.6791C5.53846 49.3535 5.21286 49.0268 4.77838 49.0268ZM4.77838 53.1582C2.92941 53.1582 1.4082 51.6359 1.4082 49.788C1.4082 47.9401 2.92941 46.4189 4.77838 46.4189C6.62627 46.4189 8.14749 47.9401 8.14749 49.788C8.25638 51.527 6.62627 53.1582 4.77838 53.1582Z" fill="white"/>
<path d="M55.101 32.7234C54.3398 32.7234 53.6876 33.3757 53.6876 34.1368C53.6876 34.8969 54.3398 35.5491 55.101 35.5491C55.8621 35.5491 56.5144 34.8969 56.5144 34.1368C56.5144 33.3757 55.8621 32.7234 55.101 32.7234ZM55.101 38.1582C52.8186 38.1582 50.9707 36.3103 50.9707 34.0279C50.9707 31.7456 52.8186 29.8977 55.101 29.8977C57.3844 29.8977 59.2312 31.7456 59.2312 34.0279C59.2312 36.3103 57.2744 38.1582 55.101 38.1582Z" fill="white"/>
</svg>
