<svg width="25" height="24" viewBox="0 0 25 24" fill="none" xmlns="http://www.w3.org/2000/svg">
<path d="M9.26508 12.0485C8.19673 12.0485 7.16914 12.4598 6.38816 13.2404C5.15555 14.473 4.78543 15.8291 5.36097 17.2268C5.93652 18.6649 7.49809 20.1037 9.59361 21.254C11.6076 22.3228 13.8266 22.9802 15.5936 22.9802C16.7036 22.9802 17.5253 22.7336 17.9773 22.2404C18.4294 21.7884 18.7583 21.2128 18.9638 20.5969C19.0045 20.5142 19.0461 20.4323 19.0869 20.3911L19.2515 20.2264C19.2923 20.1857 19.3746 20.1445 19.457 20.1037C20.0733 19.8979 20.6484 19.5282 21.1009 19.1173C22.1692 18.0485 22.0457 15.2132 20.7719 12.172C19.5389 9.21319 17.1968 6.21277 14.7307 6.21277C13.7859 6.21277 12.8814 6.66522 12.0592 7.48655C11.0732 8.47297 10.662 9.8295 10.9501 11.1856C10.9909 11.3087 10.9909 11.3911 11.0325 11.5142C11.0732 11.6788 11.0325 11.8843 10.909 12.0074C10.7855 12.1309 10.58 12.172 10.4158 12.1309C10.0461 12.0893 9.67636 12.0485 9.26508 12.0485ZM15.6348 24.0078C13.7031 24.0078 11.2787 23.3088 9.14156 22.1585C6.79943 20.8843 5.11437 19.2816 4.41573 17.6377C3.88135 16.3639 3.67591 14.473 5.64875 12.5006C6.59359 11.5142 7.90896 11.0209 9.26508 11.0209C9.47051 11.0209 9.67636 11.0209 9.88139 11.0621C9.67636 9.50055 10.2103 7.93899 11.3198 6.82948C12.3882 5.76072 13.5389 5.22676 14.7307 5.22676C16.128 5.22676 17.5253 5.92499 18.8402 7.28152C19.9502 8.43221 20.9773 10.0345 21.7172 11.8019C22.8267 14.473 23.4842 18.1717 21.7995 19.8567C21.2651 20.3911 20.6077 20.802 19.909 21.0486C19.6624 21.7884 19.2515 22.4459 18.7171 22.9391C18.0597 23.6377 16.9913 24.0078 15.6348 24.0078Z" fill="#10002B"/>
<path d="M10.4983 11.8434C10.4164 11.8434 10.334 11.8022 10.2521 11.7615C10.2521 11.7615 10.211 11.7615 10.211 11.7199C6.10142 9.21348 6.6358 6.78861 6.6358 6.66551L7.66297 6.95287C7.66297 6.95287 7.58064 7.40491 7.90958 8.10356C8.23812 8.76103 8.97792 9.78862 10.7861 10.8981C11.0331 11.0624 11.115 11.3502 10.9508 11.5972C10.8684 11.7615 10.6626 11.8434 10.4983 11.8434Z" fill="#10002B"/>
<path d="M18.7585 17.9666C18.7173 17.9666 18.7173 17.9666 18.6761 17.9666C18.3888 17.9258 18.2241 17.638 18.2652 17.3914C18.5938 15.5833 17.5254 13.7747 17.5254 13.7747C17.3612 13.5285 17.4431 13.1995 17.6901 13.076C17.9363 12.9118 18.2653 12.9941 18.3888 13.2407C18.4295 13.3231 19.6214 15.3778 19.2517 17.5561C19.2105 17.8023 19.0047 17.9666 18.7585 17.9666Z" fill="#10002B"/>
<path d="M1.94973 10.1583C2.11441 10.3638 2.31984 10.528 2.52568 10.6515C2.93614 10.8981 3.34702 11.0212 3.79946 11.0212C4.2515 11.0212 4.70315 10.8981 5.11443 10.6515C5.31986 10.528 5.52529 10.3638 5.68956 10.1995C5.52529 10.0348 5.31985 9.87056 5.15558 9.74746C4.74471 9.50086 4.29267 9.33659 3.84022 9.33659C3.38859 9.33659 2.97731 9.45969 2.56644 9.70629C2.31984 9.8298 2.15517 9.99407 1.94973 10.1583ZM3.84022 12.0488C3.22392 12.0488 2.56646 11.8846 2.03249 11.5145C1.62121 11.2683 1.21033 10.8981 0.881386 10.4461C0.758288 10.2818 0.758288 9.99407 0.881386 9.8298C1.21033 9.41893 1.58004 9.04923 1.99091 8.80221C2.56646 8.43251 3.18275 8.26824 3.84022 8.26824C4.4977 8.26824 5.15559 8.47327 5.68956 8.84338C6.10084 9.08999 6.47054 9.45969 6.7579 9.87056C6.88141 10.0348 6.88141 10.323 6.7579 10.4873C6.42937 10.8981 6.05926 11.2683 5.6488 11.5145C5.11442 11.8846 4.45694 12.0488 3.84022 12.0488Z" fill="#10002B"/>
<path d="M21.8406 7.36401C21.5528 7.36401 21.3066 7.117 21.3066 6.82963V1.52785C21.3066 1.24048 21.5528 0.993876 21.8406 0.993876C22.1284 0.993876 22.375 1.24048 22.375 1.52785V6.82963C22.375 7.117 22.1284 7.36401 21.8406 7.36401Z" fill="#10002B"/>
<path d="M19.7862 6.87085C19.4984 6.87085 19.2522 6.62384 19.2522 6.33648V3.9116C19.2522 3.62424 19.4984 3.37722 19.7862 3.37722C20.0739 3.37722 20.3205 3.62424 20.3205 3.9116V6.33648C20.3205 6.62384 20.0739 6.87085 19.7862 6.87085Z" fill="#10002B"/>
<path d="M17.731 4.44666C17.4432 4.44666 17.197 4.19965 17.197 3.91188V0.542153C17.197 0.25438 17.4432 0.00778103 17.731 0.00778103C18.0188 0.00778103 18.2654 0.25438 18.2654 0.542153V3.91188C18.2654 4.24082 18.0188 4.44666 17.731 4.44666Z" fill="#10002B"/>
<path d="M15.6763 4.69263C15.3885 4.69263 15.1423 4.44643 15.1423 4.15825V2.22699C15.1423 1.93922 15.3885 1.69261 15.6763 1.69261C15.9637 1.69261 16.2107 1.93922 16.2107 2.22699V4.15825C16.2107 4.44643 15.9637 4.69263 15.6763 4.69263Z" fill="#10002B"/>
<path d="M23.8953 4.19946C23.6075 4.19946 23.3613 3.95327 23.3613 3.6655V2.63791C23.3613 2.35014 23.6075 2.10353 23.8953 2.10353C24.1831 2.10353 24.4297 2.35014 24.4297 2.63791V3.6655C24.4297 3.95327 24.1831 4.19946 23.8953 4.19946Z" fill="#10002B"/>
</svg>
