<svg width="27" height="24" viewBox="0 0 27 24" fill="none" xmlns="http://www.w3.org/2000/svg">
<path d="M12.89 4.35964H11.2962C10.968 4.35964 10.6867 4.07789 10.6867 3.79708C10.6867 3.51581 10.968 3.18757 11.2962 3.18757H12.3274V1.82816C12.3274 1.45343 12.0461 1.17216 11.6714 1.17216H4.54607C4.17135 1.17216 3.89008 1.45343 3.89008 1.82816V3.18757H4.92126C5.2495 3.18757 5.53078 3.46885 5.53078 3.79708C5.53078 4.12531 5.2495 4.40613 4.92126 4.40613H3.32752C2.99929 4.40613 2.71802 4.12531 2.71802 3.79708V1.82816C2.71802 0.843924 3.51535 0.000100613 4.54607 0.000100613H11.6244C12.6087 0.000100613 13.4525 0.797432 13.4525 1.82816V3.79708C13.4525 4.07789 13.2182 4.35964 12.89 4.35964Z" fill="#10002B"/>
<path d="M11.2028 9.93884H1.21867C0.890899 9.93884 0.609619 9.6571 0.609619 9.32934C0.609619 9.0011 0.890899 8.71983 1.21867 8.71983H11.2497C11.578 8.71983 11.8592 9.0011 11.8592 9.32934C11.8592 9.6571 11.531 9.93884 11.2028 9.93884Z" fill="#10002B"/>
<path d="M10.2184 4.35974C9.89018 4.35974 9.60938 4.078 9.60938 3.79719V2.20345C9.60938 1.87522 9.89018 1.59395 10.2184 1.59395C10.5466 1.59395 10.8279 1.87522 10.8279 2.20345V3.79719C10.8279 4.078 10.5466 4.35974 10.2184 4.35974Z" fill="#10002B"/>
<path d="M8.10929 4.35974C7.78106 4.35974 7.50024 4.078 7.50024 3.79719V2.20345C7.50024 1.87522 7.78106 1.59395 8.10929 1.59395C8.43752 1.59395 8.71879 1.87522 8.71879 2.20345V3.79719C8.67184 4.078 8.43752 4.35974 8.10929 4.35974Z" fill="#10002B"/>
<path d="M5.99988 4.35974C5.67165 4.35974 5.39038 4.078 5.39038 3.79719V2.20345C5.39038 1.87522 5.67165 1.59395 5.99988 1.59395C6.32811 1.59395 6.60939 1.87522 6.60939 2.20345V3.79719C6.56244 4.078 6.28116 4.35974 5.99988 4.35974Z" fill="#10002B"/>
<path d="M7.5935 20.4839H0.609507C0.281275 20.4839 0 20.2031 0 19.875C0 19.5468 0.281275 19.2655 0.609507 19.2655H7.5935C8.2495 19.2655 8.81205 18.7029 8.81205 18.0464V14.0156C8.81205 13.3591 8.2495 12.7966 7.5935 12.7966H0.609507C0.281275 12.7966 0 12.5158 0 12.1875C0 11.8593 0.281275 11.578 0.609507 11.578H7.5935C8.90596 11.578 9.98412 12.6562 9.98412 13.9686V17.9999C9.98412 19.4063 8.90596 20.4839 7.5935 20.4839Z" fill="#10002B"/>
<path d="M13.8745 24.0007H2.29661C1.03111 24.0007 0.046875 22.9696 0.046875 21.751V11.72C0.046875 11.673 0.046875 11.673 0.046875 11.6261L0.140324 11.1574C0.328151 9.09458 1.64015 7.26699 3.51563 6.37621C4.03122 6.14189 4.35899 5.62583 4.35899 5.06375V3.79823C4.35899 3.47 4.64026 3.18873 4.96849 3.18873H11.3435C11.6717 3.18873 11.953 3.47 11.953 3.79823V5.06375C11.953 5.62583 12.2807 6.14189 12.7963 6.37621C14.8592 7.31348 16.2181 9.37632 16.2181 11.673V15.1413C16.2181 15.4695 15.9368 15.7513 15.6086 15.7513C15.2808 15.7513 14.9996 15.4695 14.9996 15.1413V11.673C14.9996 9.84496 13.9214 8.20426 12.2807 7.45435C11.3434 7.03267 10.7809 6.09493 10.7809 5.1107V4.40728H5.48409V5.1107C5.48409 6.14189 4.87505 7.07916 3.93731 7.50131C2.43702 8.20426 1.35888 9.65713 1.21847 11.3448V11.3917L1.17151 11.8604V21.8445C1.17151 22.454 1.64015 22.9225 2.25012 22.9225H13.8275C14.3901 22.9225 14.8592 22.454 14.9056 21.8914C14.9056 21.5637 15.1869 21.3289 15.5152 21.3289C15.8434 21.3289 16.0777 21.6102 16.0777 21.9384C16.0307 23.0631 15.0461 24.0007 13.8745 24.0007Z" fill="#10002B"/>
<path d="M20.8582 10.8292C20.7178 10.8292 20.5774 10.8761 20.4835 10.9696L13.3586 18.095C13.2647 18.1884 13.2182 18.3293 13.2182 18.4697C13.2182 18.6101 13.2647 18.751 13.3586 18.8449L17.1556 22.6414C17.249 22.7353 17.3899 22.7821 17.5303 22.7821C17.6712 22.7821 17.8116 22.7353 17.9055 22.6414L25.0773 15.5634C25.1708 15.4695 25.2177 15.3287 25.2177 15.1887C25.2177 15.0479 25.1708 14.907 25.0773 14.8135L21.2803 11.0166C21.1395 10.8761 20.9991 10.8292 20.8582 10.8292ZM17.5773 24.0007C17.1086 24.0007 16.6865 23.813 16.3587 23.4852L12.5617 19.6881C12.234 19.3599 12.0461 18.9382 12.0461 18.4697C12.0461 18.001 12.234 17.5789 12.5617 17.2505L19.6866 10.1262C20.0148 9.79801 20.4365 9.61064 20.9052 9.61064C21.3743 9.61064 21.7959 9.79801 22.1242 10.1262L25.9211 13.9228C26.2489 14.251 26.4363 14.6727 26.4363 15.1413C26.4363 15.6104 26.2489 16.0321 25.9211 16.3603L18.7493 23.4852C18.468 23.813 17.9989 24.0007 17.5773 24.0007Z" fill="#10002B"/>
<path d="M16.3124 19.0782C16.2654 19.0782 16.1715 19.0782 16.125 19.0312L14.906 18.6091C14.5782 18.5156 14.4373 18.1875 14.5313 17.8597C14.6247 17.5315 14.9529 17.3905 15.2812 17.4845L16.5467 17.9061C16.8749 18.0001 17.0153 18.3284 16.9219 18.6566C16.781 18.9373 16.5467 19.0782 16.3124 19.0782Z" fill="#10002B"/>
<path d="M17.999 17.4384C17.9525 17.4384 17.8586 17.4384 17.8117 17.3913L16.5462 16.9696C16.2179 16.8757 16.0775 16.5479 16.171 16.2193C16.2649 15.8911 16.5931 15.7511 16.9213 15.8446L18.1869 16.2663C18.5146 16.3602 18.6555 16.6879 18.5616 17.0161C18.4681 17.2504 18.2333 17.4384 17.999 17.4384Z" fill="#10002B"/>
<path d="M19.6401 15.7507C19.5932 15.7507 19.4997 15.7507 19.4528 15.7033L18.1873 15.3281C17.859 15.2347 17.7186 14.9064 17.8121 14.5787C17.906 14.2504 18.2338 14.1096 18.562 14.204L19.828 14.6256C20.1557 14.7191 20.2966 15.0473 20.2027 15.3755C20.1092 15.6099 19.8745 15.7507 19.6401 15.7507Z" fill="#10002B"/>
<path d="M21.2805 14.1094C21.2335 14.1094 21.1396 14.1094 21.0931 14.0629L19.8276 13.6412C19.4994 13.5468 19.3585 13.2191 19.4524 12.8908C19.5463 12.5626 19.8741 12.4217 20.2023 12.5161L21.4678 12.9378C21.796 13.0317 21.9369 13.3595 21.843 13.6877C21.7491 13.969 21.5617 14.1094 21.2805 14.1094Z" fill="#10002B"/>
<path d="M18.3744 21.1404C18.3274 21.1404 18.2335 21.1404 18.187 21.0941L16.968 20.7188C16.6402 20.6253 16.4994 20.2972 16.5933 19.9688C16.6867 19.6412 17.0149 19.5002 17.3432 19.5936L18.6087 20.0158C18.9369 20.1097 19.0773 20.4379 18.9839 20.7657C18.89 21.0005 18.6556 21.1404 18.3744 21.1404Z" fill="#10002B"/>
<path d="M20.0622 19.5005C20.0153 19.5005 19.9214 19.5005 19.8744 19.4535L18.6089 19.0318C18.2807 18.9379 18.1403 18.6097 18.2337 18.2819C18.3276 17.9538 18.6558 17.8128 18.9841 17.9067L20.2496 18.3289C20.5778 18.4223 20.7182 18.7506 20.6243 19.0788C20.5309 19.3131 20.2966 19.5005 20.0622 19.5005Z" fill="#10002B"/>
<path d="M21.7024 17.8129C21.6559 17.8129 21.562 17.8129 21.515 17.7664L20.2495 17.3443C19.9213 17.2502 19.7809 16.9226 19.8743 16.5943C19.9682 16.2661 20.2965 16.1252 20.6242 16.2191L21.8902 16.6413C22.2184 16.7352 22.3589 17.063 22.2649 17.3911C22.1715 17.6725 21.9372 17.8129 21.7024 17.8129Z" fill="#10002B"/>
<path d="M5.90585 18.1411H0.609507C0.281275 18.1411 0 17.8603 0 17.5322C0 17.204 0.281275 16.9227 0.609507 16.9227H5.90585C6.23408 16.9227 6.51536 17.204 6.51536 17.5322C6.51536 17.8603 6.18712 18.1411 5.90585 18.1411Z" fill="#10002B"/>
</svg>
