<svg width="20" height="20" viewBox="0 0 20 20" fill="none" xmlns="http://www.w3.org/2000/svg">
<path d="M1.66663 5L7.42748 8.26414C9.55129 9.4675 10.4486 9.4675 12.5725 8.26414L18.3333 5" stroke="white" stroke-width="1.5" stroke-linejoin="round"/>
<path d="M1.67965 11.23C1.73412 13.7847 1.76136 15.0619 2.70397 16.0082C3.64657 16.9543 4.95845 16.9872 7.5822 17.0532C9.19925 17.0938 10.8004 17.0938 12.4175 17.0532C15.0413 16.9872 16.3531 16.9543 17.2958 16.0082C18.2383 15.0619 18.2656 13.7847 18.32 11.23C18.3376 10.4086 18.3376 9.59208 18.32 8.77066C18.2656 6.21604 18.2383 4.93873 17.2958 3.99254C16.3531 3.04635 15.0413 3.01339 12.4175 2.94747C10.8004 2.90683 9.19925 2.90683 7.58219 2.94746C4.95845 3.01338 3.64657 3.04633 2.70396 3.99253C1.76135 4.93873 1.73412 6.21603 1.67964 8.77066C1.66212 9.59208 1.66213 10.4086 1.67965 11.23Z" stroke="white" stroke-width="1.5" stroke-linejoin="round"/>
</svg>
