<svg width="20" height="20" viewBox="0 0 20 20" fill="none" xmlns="http://www.w3.org/2000/svg">
<g clip-path="url(#clip0_441_7188)">
<g clip-path="url(#clip1_441_7188)">
<path d="M3.14785 9.95233C2.35784 8.57474 1.97638 7.44989 1.74637 6.30967C1.40619 4.62331 2.18468 2.976 3.47432 1.92489C4.01938 1.48064 4.64419 1.63243 4.9665 2.21066L5.69415 3.51609C6.27091 4.5508 6.55929 5.06815 6.50209 5.61665C6.44489 6.16515 6.05598 6.61188 5.27814 7.50534L3.14785 9.95233ZM3.14785 9.95233C4.74693 12.7406 7.25637 15.2514 10.0478 16.8523M10.0478 16.8523C11.4254 17.6423 12.5503 18.0238 13.6905 18.2538C15.3768 18.594 17.0242 17.8155 18.0753 16.5258C18.5195 15.9808 18.3678 15.356 17.7895 15.0337L16.4841 14.306C15.4493 13.7292 14.932 13.4409 14.3835 13.4981C13.835 13.5552 13.3883 13.9442 12.4948 14.722L10.0478 16.8523Z" stroke="#10002B" stroke-width="1.5" stroke-linejoin="round"/>
</g>
</g>
<defs>
<clipPath id="clip0_441_7188">
<rect width="20" height="20" fill="white"/>
</clipPath>
<clipPath id="clip1_441_7188">
<rect width="20" height="20" fill="white"/>
</clipPath>
</defs>
</svg>
