<svg width="20" height="20" viewBox="0 0 20 20" fill="none" xmlns="http://www.w3.org/2000/svg">
<g clip-path="url(#clip0_441_1687)">
<path fill-rule="evenodd" clip-rule="evenodd" d="M8.55481 7.51198C6.77091 5.98631 5.32543 4.16942 4.23922 2.05261C4.02198 1.63099 3.51649 1.47016 3.10707 1.69618C2.70183 1.92221 2.54722 2.44816 2.76446 2.87413C3.9593 5.19088 5.53851 7.18164 7.49369 8.8551C7.8488 9.15936 8.37935 9.10719 8.6718 8.73773C8.96424 8.36392 8.90991 7.81624 8.55481 7.51198Z" fill="#058C42"/>
<path fill-rule="evenodd" clip-rule="evenodd" d="M7.60312 1.56892C7.69504 3.32496 7.77861 5.08099 7.88305 6.83703C7.9123 7.31516 8.30918 7.68027 8.76873 7.64985C9.22828 7.61942 9.57921 7.20649 9.54997 6.72836C9.44552 4.97667 9.36195 3.22499 9.27004 1.46895C9.24497 0.992127 8.84809 0.624835 8.38854 0.651784C7.92899 0.678733 7.57388 1.08948 7.60312 1.56892Z" fill="#058C42"/>
<path fill-rule="evenodd" clip-rule="evenodd" d="M13.8063 1.92549C12.7368 3.60329 11.5253 5.15067 10.3054 6.71546C10.013 7.08927 10.0673 7.63697 10.4266 7.93688C10.7858 8.24115 11.3123 8.18463 11.6005 7.81082C12.8538 6.20691 14.0988 4.61169 15.2017 2.88608C15.4566 2.48619 15.3479 1.94722 14.9636 1.68208C14.5834 1.41694 14.0612 1.5256 13.8063 1.92549Z" fill="#058C42"/>
<path fill-rule="evenodd" clip-rule="evenodd" d="M17.9487 8.16288C15.0493 8.29766 11.9703 8.30201 9.07098 8.1107C8.61142 8.08462 8.21454 8.44549 8.1853 8.9281C8.15605 9.40636 8.50698 9.8194 8.96653 9.84983C11.9244 10.0411 15.0661 10.0368 18.0239 9.90201C18.4834 9.88027 18.8427 9.47159 18.8218 8.99333C18.8009 8.51506 18.4082 8.14114 17.9487 8.16288Z" fill="#058C42"/>
<path fill-rule="evenodd" clip-rule="evenodd" d="M7.49069 8.71448C9.27877 10.9921 11.1295 13.2263 12.7881 15.6083C13.0596 15.9951 13.5819 16.082 13.9579 15.7995C14.3297 15.517 14.4132 14.9736 14.1417 14.5868C12.4622 12.1787 10.5906 9.91849 8.78165 7.61477C8.48921 7.24531 7.96279 7.18882 7.60768 7.49308C7.2484 7.79735 7.19825 8.34502 7.49069 8.71448Z" fill="#058C42"/>
<path fill-rule="evenodd" clip-rule="evenodd" d="M8.03195 9.37492C8.49986 11.7482 8.62938 14.0171 8.6628 16.4208C8.66697 16.8989 9.04716 17.2814 9.50671 17.2771C9.97044 17.2684 10.3381 16.8772 10.3297 16.3947C10.2963 13.878 10.1584 11.5091 9.66965 9.02285C9.57356 8.55341 9.1349 8.24913 8.67952 8.3491C8.22833 8.44473 7.93587 8.90549 8.03195 9.37492Z" fill="#058C42"/>
<path fill-rule="evenodd" clip-rule="evenodd" d="M8.10708 9.18521C6.75349 12.0018 6.05581 15.1314 4.60613 17.8872C4.38471 18.3044 4.53508 18.8347 4.94032 19.0651C5.34556 19.2955 5.8511 19.139 6.07252 18.7217C7.53056 15.9485 8.23657 12.8016 9.60269 9.96324C9.8074 9.53293 9.64029 9.01133 9.23087 8.794C8.81727 8.58101 8.31597 8.75489 8.10708 9.18521Z" fill="#058C42"/>
<path fill-rule="evenodd" clip-rule="evenodd" d="M8.85301 8.5456C6.15837 9.04125 3.4679 9.26734 0.756548 9.60212C0.296996 9.65864 -0.0288673 10.0891 0.0254433 10.5673C0.079754 11.0456 0.493389 11.3847 0.95294 11.3282C3.69354 10.9934 6.41742 10.7586 9.14548 10.2586C9.59668 10.1717 9.90165 9.71951 9.82227 9.24995C9.73872 8.77603 9.30838 8.45864 8.85301 8.5456Z" fill="#058C42"/>
<path fill-rule="evenodd" clip-rule="evenodd" d="M10.7289 7.22349C10.1732 7.19741 9.64683 7.15826 9.10373 7.07566C8.64418 7.00609 8.22222 7.33653 8.15537 7.81044C8.08853 8.28435 8.40601 8.72784 8.86139 8.79741C9.46298 8.88871 10.0437 8.93219 10.6537 8.95827C11.1132 8.98001 11.5059 8.61043 11.5226 8.12782C11.5435 7.64956 11.1884 7.24523 10.7289 7.22349Z" fill="#058C42"/>
</g>
<defs>
<clipPath id="clip0_441_1687">
<rect width="19.2176" height="19.9945" fill="white" transform="translate(0 -0.00195312)"/>
</clipPath>
</defs>
</svg>
