<svg width="37" height="23" viewBox="0 0 37 23" fill="none" xmlns="http://www.w3.org/2000/svg">
<path d="M28.7203 14.8156C32.2592 14.8156 35.1281 11.9467 35.1281 8.40778C35.1281 4.86886 32.2592 2 28.7203 2C25.1814 2 22.3125 4.86886 22.3125 8.40778C22.3125 11.9467 25.1814 14.8156 28.7203 14.8156Z" stroke="white" stroke-width="2.30441" stroke-miterlimit="10" stroke-linecap="round" stroke-linejoin="round"/>
<path d="M35.1281 8.40625C35.1281 15.4548 29.3611 21.2218 22.3125 21.2218" stroke="white" stroke-width="2.30441" stroke-miterlimit="10" stroke-linecap="round" stroke-linejoin="round"/>
<path d="M8.40778 14.8156C11.9467 14.8156 14.8156 11.9467 14.8156 8.40778C14.8156 4.86886 11.9467 2 8.40778 2C4.86886 2 2 4.86886 2 8.40778C2 11.9467 4.86886 14.8156 8.40778 14.8156Z" stroke="white" stroke-width="2.30441" stroke-miterlimit="10" stroke-linecap="round" stroke-linejoin="round"/>
<path d="M14.8156 8.40625C14.8156 15.4548 9.04856 21.2218 2 21.2218" stroke="white" stroke-width="2.30441" stroke-miterlimit="10" stroke-linecap="round" stroke-linejoin="round"/>
</svg>
