<svg width="20" height="20" viewBox="0 0 20 20" fill="none" xmlns="http://www.w3.org/2000/svg">
<g clip-path="url(#clip0_345_1899)">
<path d="M2.5 7.5V17.5H17.5V3.75H15V4.375C15 4.54076 14.9342 4.69973 14.8169 4.81694C14.6997 4.93415 14.5408 5 14.375 5C14.2092 5 14.0503 4.93415 13.9331 4.81694C13.8158 4.69973 13.75 4.54076 13.75 4.375V3.75H6.25V4.375C6.25 4.54076 6.18415 4.69973 6.06694 4.81694C5.94973 4.93415 5.79076 5 5.625 5C5.45924 5 5.30027 4.93415 5.18306 4.81694C5.06585 4.69973 5 4.54076 5 4.375V3.75H2.5V6.25H17.5V7.5H2.5ZM6.25 2.5H13.75V1.875C13.75 1.70924 13.8158 1.55027 13.9331 1.43306C14.0503 1.31585 14.2092 1.25 14.375 1.25C14.5408 1.25 14.6997 1.31585 14.8169 1.43306C14.9342 1.55027 15 1.70924 15 1.875V2.5H18.125C18.2908 2.5 18.4497 2.56585 18.5669 2.68306C18.6842 2.80027 18.75 2.95924 18.75 3.125V18.125C18.75 18.2908 18.6842 18.4497 18.5669 18.5669C18.4497 18.6842 18.2908 18.75 18.125 18.75H1.875C1.70924 18.75 1.55027 18.6842 1.43306 18.5669C1.31585 18.4497 1.25 18.2908 1.25 18.125V3.125C1.25 2.95924 1.31585 2.80027 1.43306 2.68306C1.55027 2.56585 1.70924 2.5 1.875 2.5H5V1.875C5 1.70924 5.06585 1.55027 5.18306 1.43306C5.30027 1.31585 5.45924 1.25 5.625 1.25C5.79076 1.25 5.94973 1.31585 6.06694 1.43306C6.18415 1.55027 6.25 1.70924 6.25 1.875V2.5ZM5.625 10H6.875C7.04076 10 7.19973 10.0658 7.31694 10.1831C7.43415 10.3003 7.5 10.4592 7.5 10.625C7.5 10.7908 7.43415 10.9497 7.31694 11.0669C7.19973 11.1842 7.04076 11.25 6.875 11.25H5.625C5.45924 11.25 5.30027 11.1842 5.18306 11.0669C5.06585 10.9497 5 10.7908 5 10.625C5 10.4592 5.06585 10.3003 5.18306 10.1831C5.30027 10.0658 5.45924 10 5.625 10ZM5.625 13.75H6.875C7.04076 13.75 7.19973 13.8158 7.31694 13.9331C7.43415 14.0503 7.5 14.2092 7.5 14.375C7.5 14.5408 7.43415 14.6997 7.31694 14.8169C7.19973 14.9342 7.04076 15 6.875 15H5.625C5.45924 15 5.30027 14.9342 5.18306 14.8169C5.06585 14.6997 5 14.5408 5 14.375C5 14.2092 5.06585 14.0503 5.18306 13.9331C5.30027 13.8158 5.45924 13.75 5.625 13.75ZM9.375 10H10.625C10.7908 10 10.9497 10.0658 11.0669 10.1831C11.1842 10.3003 11.25 10.4592 11.25 10.625C11.25 10.7908 11.1842 10.9497 11.0669 11.0669C10.9497 11.1842 10.7908 11.25 10.625 11.25H9.375C9.20924 11.25 9.05027 11.1842 8.93306 11.0669C8.81585 10.9497 8.75 10.7908 8.75 10.625C8.75 10.4592 8.81585 10.3003 8.93306 10.1831C9.05027 10.0658 9.20924 10 9.375 10ZM9.375 13.75H10.625C10.7908 13.75 10.9497 13.8158 11.0669 13.9331C11.1842 14.0503 11.25 14.2092 11.25 14.375C11.25 14.5408 11.1842 14.6997 11.0669 14.8169C10.9497 14.9342 10.7908 15 10.625 15H9.375C9.20924 15 9.05027 14.9342 8.93306 14.8169C8.81585 14.6997 8.75 14.5408 8.75 14.375C8.75 14.2092 8.81585 14.0503 8.93306 13.9331C9.05027 13.8158 9.20924 13.75 9.375 13.75ZM13.125 10H14.375C14.5408 10 14.6997 10.0658 14.8169 10.1831C14.9342 10.3003 15 10.4592 15 10.625C15 10.7908 14.9342 10.9497 14.8169 11.0669C14.6997 11.1842 14.5408 11.25 14.375 11.25H13.125C12.9592 11.25 12.8003 11.1842 12.6831 11.0669C12.5658 10.9497 12.5 10.7908 12.5 10.625C12.5 10.4592 12.5658 10.3003 12.6831 10.1831C12.8003 10.0658 12.9592 10 13.125 10ZM13.125 13.75H14.375C14.5408 13.75 14.6997 13.8158 14.8169 13.9331C14.9342 14.0503 15 14.2092 15 14.375C15 14.5408 14.9342 14.6997 14.8169 14.8169C14.6997 14.9342 14.5408 15 14.375 15H13.125C12.9592 15 12.8003 14.9342 12.6831 14.8169C12.5658 14.6997 12.5 14.5408 12.5 14.375C12.5 14.2092 12.5658 14.0503 12.6831 13.9331C12.8003 13.8158 12.9592 13.75 13.125 13.75Z" fill="#10002B"/>
</g>
<defs>
<clipPath id="clip0_345_1899">
<rect width="20" height="20" fill="white"/>
</clipPath>
</defs>
</svg>
