<svg width="24" height="24" viewBox="0 0 24 24" fill="none" xmlns="http://www.w3.org/2000/svg">
<path d="M11.8282 9.46177C13.3339 9.46177 14.5382 10.6665 14.5382 12.1716C14.5382 13.6766 13.3339 14.8813 11.8282 14.8813C10.3228 14.8813 9.11865 13.6766 9.11865 12.1716C9.16165 10.6665 10.3228 9.46177 11.8282 9.46177Z" fill="#10002B"/>
<path d="M11.8282 10.021C10.6241 10.021 9.67771 10.9672 9.67771 12.1715C9.67771 13.3758 10.6241 14.322 11.8282 14.322C13.0327 14.322 13.9789 13.3758 13.9789 12.1715C13.9789 10.9672 13.0327 10.021 11.8282 10.021ZM11.8282 15.3975C10.0648 15.3975 8.60254 13.9351 8.60254 12.1715C8.60254 10.4079 10.0648 8.9455 11.8282 8.9455C13.592 8.9455 15.0539 10.4079 15.0539 12.1715C15.0539 13.9351 13.592 15.3975 11.8282 15.3975Z" fill="#10002B"/>
<path d="M11.828 19.6987C11.6992 19.6987 11.57 19.6987 11.441 19.6987C11.1398 19.6987 10.9248 19.4406 10.9248 19.1395C10.9248 18.8383 11.1829 18.6233 11.4839 18.6233C11.613 18.6233 11.6992 18.6233 11.828 18.6233C15.398 18.6233 18.2797 15.7416 18.2797 12.1717C18.2797 8.60191 15.398 5.7202 11.828 5.7202C8.25819 5.7202 5.37644 8.60191 5.37644 12.1717C5.37644 14.4942 6.62374 16.6447 8.64512 17.8063C8.90326 17.9352 8.98922 18.279 8.86043 18.5375C8.7313 18.7952 8.38733 18.8818 8.12919 18.7525C5.76354 17.3759 4.30127 14.8815 4.30127 12.1717C4.30127 8.04263 7.69908 4.64473 11.828 4.64473C15.9572 4.64473 19.3551 7.99997 19.3551 12.1717C19.3551 16.3435 15.9572 19.6987 11.828 19.6987Z" fill="#10002B"/>
<path d="M9.89263 17.7629C9.46252 17.7629 9.03242 18.0214 8.90329 18.4514C8.86046 18.5802 8.81729 18.7095 8.81729 18.8383C8.81729 19.4407 9.29056 19.9138 9.89263 19.9138C10.4087 19.9138 10.8388 19.57 10.968 19.0538C10.968 18.9676 10.968 18.9245 10.968 18.8383C10.968 18.2364 10.4947 17.7629 9.89263 17.7629ZM9.89263 20.9893C8.68832 20.9893 7.74194 20.0426 7.74194 18.8383C7.74194 18.5802 7.78512 18.3226 7.87112 18.064C8.17205 17.2471 8.98925 16.6878 9.89263 16.6878C11.097 16.6878 12.0432 17.6344 12.0432 18.8383C12.0432 18.9676 12.0432 19.1395 12.0001 19.2688C11.7852 20.2576 10.9248 20.9893 9.89263 20.9893Z" fill="#10002B"/>
<path d="M11.8279 24C8.68822 24 5.6775 22.7526 3.48382 20.5164C1.24731 18.2792 0 15.3118 0 12.172C0 8.17213 2.02151 4.43039 5.37636 2.23637C5.6345 2.06445 5.9786 2.15062 6.1076 2.40829C6.27957 2.66681 6.19356 3.01065 5.93543 3.13949C2.88171 5.11808 1.03234 8.51598 1.03234 12.172C1.03234 18.1073 5.84947 22.9245 11.7851 22.9245C17.7207 22.9245 22.538 18.1073 22.538 12.172C22.538 6.23663 17.7207 1.41941 11.7851 1.41941C10.7527 1.41941 9.72056 1.59134 8.68822 1.84944C8.38725 1.93561 8.08598 1.76369 7.99998 1.50516C7.91397 1.20398 8.08598 0.903229 8.34408 0.817055C9.41925 0.472786 10.5806 0.343948 11.7419 0.343948C14.8817 0.343948 17.8927 1.59134 20.0863 3.8276C22.3225 6.06472 23.5699 9.03217 23.5699 12.172C23.5699 15.3118 22.3225 18.3228 20.0863 20.5164C17.9784 22.7526 14.9679 24 11.8279 24Z" fill="#10002B"/>
<path d="M7.22599 1.07505C6.62388 1.07505 6.15078 1.54815 6.15078 2.15052C6.15078 2.27935 6.15078 2.40819 6.19378 2.49436C6.32279 2.92438 6.75289 3.22556 7.22599 3.22556C7.82823 3.22556 8.30134 2.75246 8.30134 2.15052C8.30134 1.97817 8.25833 1.76358 8.17216 1.59124C7.95719 1.29005 7.57009 1.07505 7.22599 1.07505ZM7.22599 4.30103C6.32279 4.30103 5.50554 3.69866 5.20462 2.83863C5.11844 2.62319 5.07544 2.36553 5.07544 2.15052C5.07544 0.946215 6.02182 1.04904e-05 7.22599 1.04904e-05C8.00019 1.04904e-05 8.68844 0.386938 9.07554 1.07505C9.29067 1.41932 9.37668 1.76359 9.37668 2.15052C9.37668 3.35439 8.38747 4.30103 7.22599 4.30103Z" fill="#10002B"/>
</svg>
