<svg width="22" height="25" viewBox="0 0 22 25" fill="none" xmlns="http://www.w3.org/2000/svg">
<path d="M19.3051 17.874C19.0228 18.1531 18.5388 18.1531 18.2159 17.874L13.054 12.7711L14.1432 11.6947L19.3051 16.7976C19.4661 16.9571 19.5068 17.1166 19.5068 17.3159C19.5068 17.5551 19.4263 17.7544 19.3051 17.874ZM10.7557 13.6482C10.2718 14.1266 9.46487 14.1266 8.98089 13.6482C8.49691 13.1698 8.49691 12.3725 8.98089 11.8941C9.58606 11.2961 12.2878 8.62502 12.893 8.02703C13.3769 7.54863 14.1835 7.54863 14.6674 8.02703C15.1514 8.50543 15.1514 9.30275 14.6674 9.78115C14.1025 10.3393 12.4895 11.9339 12.0056 12.4123L10.7557 13.6482ZM6.84366 12.5718C6.35968 13.0502 5.55318 13.0502 5.0692 12.5718C4.58522 12.0934 4.58522 11.2961 5.0692 10.8177C6.92418 8.98382 9.70686 6.23304 11.8445 4.12013C12.3285 3.64173 13.1346 3.64173 13.6185 4.12013C14.1025 4.59852 14.1025 5.39585 13.6185 5.87425L6.84366 12.5718ZM3.61727 7.30944C6.03716 4.91746 6.11769 4.83772 8.25492 2.72481C8.7389 2.24641 9.54541 2.24641 10.0294 2.72481C10.5134 3.2032 10.5134 4.00053 10.0294 4.47893L5.39173 9.06355C4.90815 9.54195 4.10125 9.54195 3.61727 9.06355C3.37528 8.82436 3.13329 7.78783 3.61727 7.30944ZM2.68958 3.28294L4.14151 1.84775C4.62549 1.36935 5.43199 1.36935 5.91597 1.84775C6.39995 2.32614 6.39995 3.12347 5.91597 3.60187L4.46404 5.03705C3.98006 5.51545 3.17356 5.51545 2.68958 5.03705C2.2056 4.55866 2.2056 3.76133 2.68958 3.28294ZM14.8285 11.017L15.3531 10.4987C16.2397 9.62168 16.2397 8.18649 15.3531 7.30944C15.0302 6.9905 14.6268 6.79117 14.1834 6.71144L14.264 6.63171C15.1514 5.75465 15.1514 4.31946 14.264 3.4424C13.4575 2.64507 12.2073 2.56534 11.3203 3.2032C11.2393 2.76467 11.038 2.36601 10.6748 2.00721C9.78779 1.13015 8.33584 1.13015 7.44882 2.00721L7.20645 2.24641C7.12592 1.80788 6.92418 1.40922 6.60166 1.09029C5.71424 0.213228 4.26232 0.213228 3.37529 1.09029L2.00389 2.56534C1.11687 3.4424 1.11687 4.87759 2.00389 5.75465C2.32681 6.07358 2.73025 6.27291 3.17356 6.35264L2.93197 6.59184C2.04455 7.4689 2.04455 8.90409 2.93197 9.78115C3.25449 10.1001 3.65753 10.3393 4.14151 10.419C3.49647 11.2961 3.57702 12.5319 4.38351 13.3293C5.27094 14.2063 6.72246 14.2063 7.60988 13.3293L7.69041 13.2495C7.77094 13.688 7.97267 14.0867 8.29559 14.4056C9.18262 15.2827 10.6345 15.2827 11.5216 14.4056L12.409 13.5286L17.5709 18.6315C18.2566 19.3092 19.3856 19.3092 20.0713 18.6315C20.7566 17.9537 20.7566 16.8375 20.0713 16.1598L14.8285 11.017Z" fill="#174940"/>
<path d="M9.78786 21.103C8.9407 21.103 8.25499 21.7807 8.25499 22.6179V22.8571C8.25499 22.9767 8.13419 23.0963 8.0134 23.0963C7.8922 23.0963 7.77101 22.9767 7.77101 22.8571V18.3522C7.77101 17.6745 7.2065 17.1163 6.5208 17.1163C5.8355 17.1163 5.23033 17.6745 5.23033 18.3522V22.0996C5.23033 22.2192 5.10913 22.3388 4.98873 22.3388C4.86754 22.3388 4.74636 22.2192 4.74636 22.0996V16.3589C4.74636 15.6812 4.18185 15.123 3.49655 15.123C2.81085 15.123 2.24633 15.6812 2.24633 16.3589V21.103C2.24633 21.2226 2.12515 21.3422 2.00396 21.3422C1.88356 21.3422 1.76236 21.2226 1.76236 21.103V11.6547C1.76236 11.3756 1.51997 11.1364 1.23772 11.1364C0.955463 11.1364 0.713867 11.3756 0.713867 11.6547V21.1428C0.713867 21.8206 1.27839 22.3787 1.96409 22.3787C2.64979 22.3787 3.21429 21.8206 3.21429 21.1428V16.3589C3.21429 16.2393 3.33509 16.1197 3.45588 16.1197C3.57708 16.1197 3.69787 16.2393 3.69787 16.3589V22.0996C3.69787 22.7774 4.26237 23.3355 4.94807 23.3355C5.63377 23.3355 6.19829 22.7774 6.19829 22.0996V18.3522C6.19829 18.2326 6.31948 18.113 6.44027 18.113C6.56147 18.113 6.68225 18.2326 6.68225 18.3522V22.8571C6.68225 23.5348 7.24717 24.0929 7.93248 24.0929C8.61818 24.0929 9.18268 23.5348 9.18268 22.8571V22.6179C9.18268 22.3388 9.42466 22.0996 9.70692 22.0996C9.98957 22.0996 10.2312 22.3388 10.2312 22.6179V23.6146C10.2312 23.8936 10.4735 24.1328 10.7558 24.1328C11.0381 24.1328 11.2797 23.8936 11.2797 23.6146V22.6179C11.2797 21.7807 10.594 21.103 9.78786 21.103Z" fill="#174940"/>
<path d="M16.8448 4.39849C17.1271 4.39849 17.3691 4.1593 17.3691 3.88023V1.88692C17.3691 1.76732 17.4903 1.64772 17.611 1.64772C17.7322 1.64772 17.853 1.76732 17.853 1.88692V3.88023C17.853 4.55796 18.4176 5.11609 19.1033 5.11609C19.789 5.11609 20.3535 4.55796 20.3535 3.88023V0.65106C20.3535 0.371995 20.1115 0.132797 19.8292 0.132797C19.547 0.132797 19.3452 0.411862 19.3452 0.690926V3.9201C19.3452 4.0397 19.2244 4.1593 19.1033 4.1593C18.9821 4.1593 18.8617 4.0397 18.8617 3.9201V1.92678C18.8617 1.24905 18.2967 0.690926 17.611 0.690926C16.9253 0.690926 16.3608 1.24905 16.3608 1.92678V3.9201C16.3206 4.19916 16.5626 4.39849 16.8448 4.39849Z" fill="#174940"/>
<path d="M1.19774 9.62156C1.48677 9.62156 1.72159 9.85358 1.72159 10.1398C1.72159 10.4261 1.48677 10.6581 1.19774 10.6581C0.907915 10.6581 0.673096 10.4261 0.673096 10.1398C0.673096 9.85358 0.907915 9.62156 1.19774 9.62156Z" fill="#174940"/>
<path d="M1.19774 8.14646C1.48677 8.14646 1.72159 8.37848 1.72159 8.66472C1.72159 8.95096 1.48677 9.18298 1.19774 9.18298C0.907915 9.18298 0.673096 8.95096 0.673096 8.66472C0.673096 8.37848 0.907915 8.14646 1.19774 8.14646Z" fill="#174940"/>
<path d="M8.77912 16.1201C9.06895 16.1201 9.30377 16.3521 9.30377 16.6384C9.30377 16.9246 9.06895 17.1566 8.77912 17.1566C8.48969 17.1566 8.25488 16.9246 8.25488 16.6384C8.25488 16.3521 8.48969 16.1201 8.77912 16.1201Z" fill="#174940"/>
<path d="M16.8451 21.5814C17.1345 21.5814 17.3693 21.8134 17.3693 22.0997C17.3693 22.3859 17.1345 22.6179 16.8451 22.6179C16.5556 22.6179 16.3208 22.3859 16.3208 22.0997C16.3208 21.8134 16.5556 21.5814 16.8451 21.5814Z" fill="#174940"/>
<path d="M20.3533 12.1327C20.6428 12.1327 20.8776 12.3647 20.8776 12.6509C20.8776 12.9372 20.6428 13.1692 20.3533 13.1692C20.0639 13.1692 19.8291 12.9372 19.8291 12.6509C19.8291 12.3647 20.0639 12.1327 20.3533 12.1327Z" fill="#174940"/>
<path d="M13.7796 0.651586C14.069 0.651586 14.3039 0.883608 14.3039 1.16985C14.3039 1.45609 14.069 1.68811 13.7796 1.68811C13.4902 1.68811 13.2554 1.45609 13.2554 1.16985C13.2554 0.883608 13.4902 0.651586 13.7796 0.651586Z" fill="#174940"/>
<path d="M0.713692 1.17014C1.00312 1.17014 1.23754 1.40216 1.23754 1.6884C1.23754 1.97464 1.00312 2.20667 0.713692 2.20667C0.423863 2.20667 0.189453 1.97464 0.189453 1.6884C0.189453 1.40216 0.423863 1.17014 0.713692 1.17014Z" fill="#174940"/>
<path d="M12.2874 19.6274C12.0052 19.6274 11.7632 19.3882 11.7632 19.1092C11.7632 18.8301 12.0052 18.5909 12.2874 18.5909C12.5697 18.5909 12.8121 18.8301 12.8121 19.1092C12.8121 19.3882 12.5697 19.6274 12.2874 19.6274ZM12.2874 17.6341C11.4407 17.6341 10.7554 18.3118 10.7554 19.149C10.7554 19.9862 11.4407 20.6639 12.2874 20.6639C13.1342 20.6639 13.8199 19.9862 13.8199 19.149C13.8199 18.3118 13.1342 17.6341 12.2874 17.6341Z" fill="#174940"/>
<path d="M20.1119 9.14267C19.7088 9.14267 19.3456 8.82374 19.3456 8.38521C19.3456 7.94668 19.6682 7.62775 20.1119 7.62775C20.5556 7.62775 20.8781 7.94668 20.8781 8.38521C20.8781 8.82374 20.5153 9.14267 20.1119 9.14267ZM20.1119 6.67096C19.1443 6.67096 18.3374 7.46829 18.3374 8.42508C18.3374 9.38187 19.1443 10.1792 20.1119 10.1792C21.0798 10.1792 21.8863 9.38187 21.8863 8.42508C21.8863 7.42842 21.0798 6.67096 20.1119 6.67096Z" fill="#174940"/>
</svg>
