<svg width="26" height="25" viewBox="0 0 26 25" fill="none" xmlns="http://www.w3.org/2000/svg">
<path d="M15.7314 23.3767C15.7314 21.0882 15.7314 10.3809 15.7314 9.40004C15.7314 9.27744 15.6902 9.11397 15.5663 9.03224L12.1764 5.84457L12.7963 4.78201L14.9051 6.49845C15.0702 6.62105 15.277 6.66192 15.4421 6.58018C15.6072 6.49845 15.7314 6.33498 15.7314 6.13064V2.82037L17.964 1.75781V9.76785C17.964 9.97219 18.0883 10.1765 18.2946 10.2583C18.5014 10.34 18.7078 10.2991 18.8733 10.1357L22.6356 6.58018L24.2065 7.02972L18.0049 12.7921C17.8815 12.8738 17.8398 13.0373 17.8398 13.1599V23.3767H15.7314ZM10.5637 23.3767V22.3551H11.0599V23.3767H10.5637ZM3.32895 23.3767V22.3551H3.86675V23.3767H3.32895ZM9.53018 22.3551V23.3767H4.85903V22.3551H9.53018ZM2.29581 20.3117H12.1347V21.3334C10.1093 21.3334 4.36289 21.3334 2.29581 21.3334V20.3117ZM4.36289 18.2683H10.068V19.29H4.36289V18.2683ZM2.79194 16.4701C2.79194 16.0615 3.12216 15.6936 3.57743 15.6936H10.8118C11.2254 15.6936 11.5977 16.0206 11.5977 16.4701C11.5977 16.9197 11.2667 17.2466 10.8118 17.2466H3.57743C3.12216 17.2466 2.79194 16.8788 2.79194 16.4701ZM10.6054 8.01055C10.6467 7.52014 11.0186 7.11146 11.556 7.07059C11.5147 7.60187 11.1841 7.96968 10.6054 8.01055ZM25.0333 23.3767H18.8321V17.2875L20.5685 18.677C20.8995 18.9222 21.3953 18.7178 21.3953 18.2683V16.0206L23.7104 14.6311C23.9585 14.4676 24.041 14.1815 23.8759 13.9363C23.7104 13.6911 23.4207 13.6094 23.173 13.7729L20.5685 15.3258C20.4034 15.4076 20.3205 15.571 20.3205 15.7754V17.2466L18.7495 16.0206V13.4051L25.4465 7.1932C25.7358 6.90712 25.6124 6.45758 25.2401 6.33498L22.5114 5.55849C22.3463 5.51763 22.1395 5.55849 22.0152 5.6811L18.9976 8.54182V0.899591C18.9976 0.531782 18.584 0.286577 18.2534 0.450048L14.9876 2.00302C14.8217 2.08475 14.6983 2.24822 14.6983 2.45256V4.98635L12.9618 3.55598C12.7134 3.35164 12.3415 3.43338 12.1764 3.71945L11.0599 5.64023C10.9773 5.8037 10.9773 6.00804 11.0599 6.13064C10.068 6.41671 9.40636 7.39753 9.65442 8.58269C9.6957 8.78703 9.86122 8.9505 10.068 8.99137C11.2254 9.23657 12.2589 8.58269 12.5483 7.561L14.6983 9.60438V13.2007L13.5405 11.8112C13.4163 11.6478 13.1686 11.566 12.9618 11.6478L12.0938 11.9338V10.5852C12.0938 10.2991 11.8453 10.0539 11.556 10.0539C11.2667 10.0539 11.0599 10.2991 11.0599 10.5852V12.6286C11.0599 12.9964 11.3909 13.2416 11.7215 13.119L12.9202 12.7103L14.6566 14.8354V16.4701L13.9954 15.8162C13.7886 15.6119 13.458 15.6119 13.2512 15.8162C13.0444 16.0206 13.0444 16.3475 13.2512 16.5519L14.6566 17.9414V23.3359H12.0521V22.3142H12.5899C12.8793 22.3142 13.1269 22.069 13.1269 21.7829V19.7395C13.1269 19.4535 12.8793 19.2083 12.5899 19.2083H11.0599V18.1866C11.9279 18.064 12.6308 17.3283 12.6308 16.4293C12.6308 15.5302 11.9696 14.7946 11.0599 14.672V14.1407C11.0599 13.8546 10.8118 13.6094 10.5225 13.6094C10.2331 13.6094 9.98505 13.8546 9.98505 14.1407V14.672H4.36289V14.1407C4.36289 13.8546 4.11443 13.6094 3.82509 13.6094C3.53575 13.6094 3.28808 13.8546 3.28808 14.1407V14.672C2.41965 14.7946 1.71672 15.5302 1.71672 16.4293C1.71672 17.3283 2.37837 18.064 3.28808 18.1866V19.2083H1.71672C1.42737 19.2083 1.17971 19.4535 1.17971 19.7395V21.7829C1.17971 22.069 1.42737 22.3142 1.71672 22.3142H2.25412V23.3359H1.22058C0.931237 23.3359 0.683594 23.5811 0.683594 23.8672C0.683594 24.1532 0.931237 24.3984 1.22058 24.3984C4.1561 24.3984 22.4288 24.3984 24.992 24.3984C25.2814 24.3984 25.5294 24.1532 25.5294 23.8672C25.5294 23.5811 25.2814 23.3767 25.0333 23.3767Z" fill="#174940"/>
<path d="M2.29571 11.6072C2.5924 11.6072 2.83271 11.8451 2.83271 12.1385C2.83271 12.432 2.5924 12.6698 2.29571 12.6698C1.9986 12.6698 1.7583 12.432 1.7583 12.1385C1.7583 11.8451 1.9986 11.6072 2.29571 11.6072Z" fill="#174940"/>
<path d="M21.3948 2.37128C21.6915 2.37128 21.9322 2.60913 21.9322 2.90256C21.9322 3.19599 21.6915 3.43384 21.3948 3.43384C21.0981 3.43384 20.8574 3.19599 20.8574 2.90256C20.8574 2.60913 21.0981 2.37128 21.3948 2.37128Z" fill="#174940"/>
<path d="M23.4617 11.0756C23.7588 11.0756 23.9991 11.3135 23.9991 11.6069C23.9991 11.9003 23.7588 12.1382 23.4617 12.1382C23.1646 12.1382 22.9243 11.9003 22.9243 11.6069C22.9243 11.3135 23.1646 11.0756 23.4617 11.0756Z" fill="#174940"/>
<path d="M23.9577 17.6966C24.2544 17.6966 24.4951 17.9344 24.4951 18.2279C24.4951 18.5213 24.2544 18.7592 23.9577 18.7592C23.6606 18.7592 23.4199 18.5213 23.4199 18.2279C23.4199 17.9344 23.6606 17.6966 23.9577 17.6966Z" fill="#174940"/>
<path d="M4.36251 9.56342C4.65921 9.56342 4.89991 9.80127 4.89991 10.0947C4.89991 10.3881 4.65921 10.626 4.36251 10.626C4.0654 10.626 3.82471 10.3881 3.82471 10.0947C3.82471 9.80127 4.0654 9.56342 4.36251 9.56342Z" fill="#174940"/>
<path d="M3.32851 3.43329C3.62562 3.43329 3.86631 3.67114 3.86631 3.96457C3.86631 4.258 3.62562 4.49585 3.32851 4.49585C3.03222 4.49585 2.7915 4.258 2.7915 3.96457C2.7915 3.67114 3.03222 3.43329 3.32851 3.43329Z" fill="#174940"/>
<path d="M19.8651 13.1195C20.1622 13.1195 20.4029 13.3573 20.4029 13.6507C20.4029 13.9442 20.1622 14.182 19.8651 14.182C19.5684 14.182 19.3276 13.9442 19.3276 13.6507C19.3276 13.3573 19.5684 13.1195 19.8651 13.1195Z" fill="#174940"/>
<path d="M6.92548 12.0569C6.96717 11.5256 7.33906 11.1578 7.87647 11.1169C7.83519 11.3621 7.4633 11.9751 6.92548 12.0569ZM5.93323 12.629C5.97491 12.8334 6.14002 12.9968 6.34681 13.0377C7.91776 13.3238 9.19977 12.1386 8.86875 10.5448C8.82706 10.3404 8.66195 10.177 8.45516 10.1361C6.88462 9.80916 5.64388 11.0352 5.93323 12.629Z" fill="#174940"/>
<path d="M21.2295 20.5574C21.7257 20.3531 22.2218 20.5165 22.5111 20.9661C22.015 21.1704 21.5189 21.007 21.2295 20.5574ZM20.2789 19.9444C20.1134 20.067 20.0309 20.2713 20.1134 20.4757C20.5683 22.0286 22.2218 22.5599 23.5038 21.5791C23.6689 21.4565 23.7515 21.2522 23.6689 21.0478C23.2141 19.4949 21.5605 18.9636 20.2789 19.9444Z" fill="#174940"/>
<path d="M6.26424 7.43911C5.76811 7.64344 5.27196 7.47997 4.98262 7.03043C5.47875 6.82609 5.9749 6.98956 6.26424 7.43911ZM7.21481 8.05212C7.38033 7.92952 7.4633 7.72518 7.38034 7.52084C6.92548 5.96788 5.27197 5.4366 3.99037 6.41742C3.82485 6.54002 3.74231 6.74436 3.82486 6.9487C4.28012 8.50166 5.93321 9.03294 7.21481 8.05212Z" fill="#174940"/>
<path d="M7.17418 2.41249C7.29801 2.41249 7.42184 2.53509 7.42184 2.65769C7.42184 2.78029 7.29801 2.9029 7.17418 2.9029C7.04994 2.9029 6.9257 2.82116 6.9257 2.65769C6.9257 2.49422 7.04994 2.41249 7.17418 2.41249ZM7.17418 3.96545C7.87669 3.96545 8.45538 3.39331 8.45538 2.69856C8.45538 2.00381 7.87669 1.43167 7.17418 1.43167C6.47126 1.43167 5.89258 2.00381 5.89258 2.69856C5.89258 3.39331 6.47126 3.96545 7.17418 3.96545Z" fill="#174940"/>
</svg>
