<svg width="26" height="25" viewBox="0 0 26 25" fill="none" xmlns="http://www.w3.org/2000/svg">
<path d="M22.3785 21.4168C16.5688 21.4168 9.45185 21.4168 3.77664 21.4168C2.74053 21.4168 1.84022 20.7044 1.61492 19.7249C2.69556 19.7249 23.5949 19.7249 24.5406 19.7249C24.3158 20.7044 23.415 21.4168 22.3785 21.4168ZM17.3342 23.6431H8.86634C8.14592 23.6431 7.51499 23.1979 7.28969 22.53H18.9104C18.6855 23.1979 18.0551 23.6431 17.3342 23.6431ZM3.82161 17.5431C4.4975 17.5431 8.7764 17.5431 9.45185 17.5431V18.6563H3.82161V17.5431ZM1.56995 15.3169C2.11005 15.3169 6.56927 15.3169 7.19975 15.3169V16.43C6.5243 16.43 2.2454 16.43 1.56995 16.43V15.3169ZM3.23609 13.0906H8.86634V14.2037C8.3258 14.2037 3.86657 14.2037 3.23609 14.2037V13.0906ZM12.9199 11.7103C12.9199 10.6862 13.7757 9.84023 14.8118 9.84023C14.9018 9.84023 14.9922 9.84023 15.2624 9.88476C14.8568 10.3745 14.6319 10.9979 14.6319 11.6658V16.7417C14.6319 17.4096 14.8568 18.0329 15.2624 18.5227C14.9922 18.5672 14.8568 18.5672 14.8118 18.5672C13.7757 18.5672 12.9199 17.7212 12.9199 16.6972V11.7103ZM17.9647 7.79206L18.5502 8.01469V8.59352C18.2799 8.54899 18.1 8.54899 18.0551 8.54899L17.9647 7.79206ZM21.0725 9.84023C22.1087 9.84023 22.9644 10.6862 22.9644 11.7103V16.7417C22.9644 17.7658 22.1087 18.6117 21.0725 18.6117C21.0276 18.6117 20.9376 18.6117 20.7573 18.6117C21.1625 18.122 21.4328 17.4986 21.4328 16.7862V11.6658C21.4328 10.9979 21.2079 10.3745 20.7573 9.84023C20.9376 9.84023 20.9826 9.84023 21.0725 9.84023ZM15.7575 16.7417V11.6658C15.7575 10.5972 16.7936 9.70666 18.0551 9.70666C19.316 9.70666 20.3521 10.5972 20.3521 11.6658V16.7417C20.3521 17.8103 19.361 18.6117 18.0551 18.6117C16.7487 18.6117 15.7575 17.8103 15.7575 16.7417ZM25.2161 18.6563H23.3696C23.8202 18.122 24.0905 17.4541 24.0905 16.7417V11.7103C24.0905 10.0629 22.7391 8.7271 21.0725 8.7271C20.9826 8.7271 20.3971 8.68257 19.7216 8.99425L19.6762 8.94972V7.61396C19.6762 7.39133 19.5409 7.1687 19.316 7.07965L17.5595 6.36725C17.1539 6.23367 16.7487 6.50082 16.7936 6.94608L16.9286 8.7271C16.7033 8.81615 16.4784 8.9052 16.2536 8.99425C15.4877 8.63804 14.8568 8.68257 14.8118 8.68257C13.1452 8.68257 11.7939 10.0183 11.7939 11.6658V16.6972C11.7939 17.4096 12.0642 18.0774 12.5148 18.6117H10.5779V16.9643C10.5779 16.6526 10.3076 16.3855 9.99238 16.3855H8.28083V15.2723H9.40688C9.72212 15.2723 9.99238 15.0052 9.99238 14.6935V12.4672C9.99238 12.1556 9.72212 11.8884 9.40688 11.8884H2.65059C2.33535 11.8884 2.06508 12.1556 2.06508 12.4672V14.1592H0.939032C0.623792 14.1592 0.353516 14.4264 0.353516 14.738V16.9643C0.353516 17.276 0.623792 17.5431 0.939032 17.5431H2.65059V18.6563H0.939032C0.623792 18.6563 0.353516 18.9234 0.353516 19.2351C0.353516 21.0606 1.8852 22.5745 3.73167 22.5745H6.02874C6.29901 23.8212 7.42505 24.8008 8.7764 24.8008H17.2438C18.5951 24.8008 19.7216 23.8212 19.9915 22.5745H22.3785C24.2254 22.5745 25.7566 21.0606 25.7566 19.2351C25.7566 18.8789 25.4868 18.6563 25.2161 18.6563Z" fill="#174940"/>
<path d="M2.65045 6.36687C2.9737 6.36687 3.23595 6.62601 3.23595 6.94571C3.23595 7.2654 2.9737 7.52454 2.65045 7.52454C2.32719 7.52454 2.06494 7.2654 2.06494 6.94571C2.06494 6.62601 2.32719 6.36687 2.65045 6.36687Z" fill="#174940"/>
<path d="M2.10993 1.91485C2.43363 1.91485 2.69544 2.17399 2.69544 2.49368C2.69544 2.81337 2.43363 3.07251 2.10993 3.07251C1.78668 3.07251 1.52441 2.81337 1.52441 2.49368C1.52441 2.17399 1.78668 1.91485 2.10993 1.91485Z" fill="#174940"/>
<path d="M14.4962 2.49261C14.8194 2.49261 15.0817 2.75175 15.0817 3.07144C15.0817 3.39113 14.8194 3.65027 14.4962 3.65027C14.1729 3.65027 13.9106 3.39113 13.9106 3.07144C13.9106 2.75175 14.1729 2.49261 14.4962 2.49261Z" fill="#174940"/>
<path d="M24.6314 7.47955C24.9547 7.47955 25.2165 7.73868 25.2165 8.05838C25.2165 8.37807 24.9547 8.63721 24.6314 8.63721C24.3077 8.63721 24.0459 8.37807 24.0459 8.05838C24.0459 7.73868 24.3077 7.47955 24.6314 7.47955Z" fill="#174940"/>
<path d="M19.0005 11.933C19.3238 11.933 19.5861 12.1922 19.5861 12.5119C19.5861 12.8316 19.3238 13.0907 19.0005 13.0907C18.6773 13.0907 18.415 12.8316 18.415 12.5119C18.415 12.1922 18.6773 11.933 19.0005 11.933Z" fill="#174940"/>
<path d="M4.36187 9.17144C4.68557 9.17144 4.94739 9.43058 4.94739 9.75027C4.94739 10.07 4.68557 10.3291 4.36187 10.3291C4.03862 10.3291 3.77637 10.07 3.77637 9.75027C3.77637 9.43058 4.03862 9.17144 4.36187 9.17144Z" fill="#174940"/>
<path d="M21.8384 0.800835C22.1617 0.800835 22.424 1.05997 22.424 1.37967C22.424 1.69936 22.1617 1.9585 21.8384 1.9585C21.5152 1.9585 21.2529 1.69936 21.2529 1.37967C21.2529 1.05997 21.5152 0.800835 21.8384 0.800835Z" fill="#174940"/>
<path d="M12.7853 6.45619C12.7403 6.99049 12.3347 7.43575 11.7492 7.48027C11.7941 7.21312 12.1998 6.54524 12.7853 6.45619ZM11.1187 8.54888C12.8302 8.86056 14.2265 7.56932 13.8663 5.83283C13.8214 5.6102 13.641 5.4321 13.4157 5.38757C11.7042 5.0759 10.3079 6.36713 10.6685 8.10363C10.7135 8.32625 10.8938 8.50436 11.1187 8.54888Z" fill="#174940"/>
<path d="M7.47004 9.17205C7.6054 9.17205 7.74031 9.30562 7.74031 9.4392C7.74031 9.57278 7.6054 9.70635 7.47004 9.70635C7.33513 9.70635 7.19977 9.57278 7.19977 9.4392C7.19977 9.30562 7.28971 9.17205 7.47004 9.17205ZM7.47004 10.864C8.23588 10.864 8.86637 10.2407 8.86637 9.48372C8.86637 8.72679 8.23588 8.05891 7.47004 8.05891C6.7042 8.05891 6.07373 8.68227 6.07373 9.4392C6.07373 10.1961 6.7042 10.864 7.47004 10.864Z" fill="#174940"/>
<path d="M8.32581 1.95891C8.64105 1.95891 8.91133 2.22606 8.91133 2.53774C8.91133 2.84942 8.64105 3.11657 8.32581 3.11657C8.01057 3.11657 7.74031 2.84942 7.74031 2.53774C7.74031 2.18154 8.01057 1.95891 8.32581 1.95891ZM8.32581 4.18518C9.27153 4.18518 10.0374 3.42825 10.0374 2.49321C10.0374 1.55818 9.27153 0.801247 8.32581 0.801247C7.38009 0.801247 6.61426 1.55818 6.61426 2.49321C6.61426 3.42825 7.38009 4.18518 8.32581 4.18518Z" fill="#174940"/>
<path d="M23.2343 4.1852C23.3696 4.1852 23.505 4.31878 23.505 4.45235C23.505 4.58593 23.3696 4.71951 23.2343 4.71951C23.0998 4.71951 22.9644 4.58593 22.9644 4.45235C22.9644 4.31878 23.0544 4.1852 23.2343 4.1852ZM21.8384 4.45235C21.8384 5.20929 22.4689 5.83264 23.2343 5.83264C24.0001 5.83264 24.631 5.20929 24.631 4.45235C24.631 3.69542 24.0001 3.07206 23.2343 3.07206C22.4689 3.07206 21.8384 3.69542 21.8384 4.45235Z" fill="#174940"/>
<path d="M16.749 11.3978C16.4338 11.3978 16.1631 11.665 16.1631 11.9766V14.7372C16.1631 15.0489 16.4338 15.316 16.749 15.316C17.0643 15.316 17.3346 15.0489 17.3346 14.7372V11.9321C17.3346 11.665 17.0643 11.3978 16.749 11.3978Z" fill="#174940"/>
<path d="M19.0005 13.624C18.6853 13.624 18.415 13.8912 18.415 14.2028V16.4291C18.415 16.7408 18.6853 17.0079 19.0005 17.0079C19.3158 17.0079 19.5861 16.7408 19.5861 16.4291V14.2028C19.5861 13.8912 19.3158 13.624 19.0005 13.624Z" fill="#174940"/>
</svg>
