<svg width="25" height="25" viewBox="0 0 25 25" fill="none" xmlns="http://www.w3.org/2000/svg">
<path d="M16.2231 22.3084C15.2101 23.3099 13.8322 23.9107 12.3737 23.9107H12.3333C9.33463 23.9107 6.90361 21.4673 6.90361 18.5031C6.90361 17.2613 7.34904 16.0196 8.15938 15.0582C8.76744 14.2972 9.09149 13.3358 9.05104 12.3344C8.92966 10.4117 10.469 8.84948 12.3737 8.84948C14.278 8.84948 15.8178 10.4517 15.6964 12.3344C15.6559 13.3358 15.98 14.2972 16.5877 15.0582C18.3301 17.1812 18.2492 20.3056 16.2231 22.3084ZM10.5908 3.88248C10.5095 3.88248 10.469 3.88248 10.3881 3.92253L6.5387 5.36457L2.5675 3.4018L3.45916 2.96118C6.41733 4.40321 6.29555 4.36316 6.33601 4.36316C6.45778 4.40321 6.57916 4.40321 6.70093 4.36316L10.6717 2.88107C13.589 3.00124 21.1665 3.36175 21.207 3.36175C21.3287 3.36175 21.4097 3.32169 21.4906 3.28163L22.7876 2.40039L23.3953 2.60067L21.9768 4.36316L10.5908 3.88248ZM8.60521 5.76513C9.13195 5.80519 9.49686 6.1657 9.53732 6.68643C9.37509 6.68643 8.68613 6.24581 8.60521 5.76513ZM16.669 12.4145C16.7903 10.1313 15.0483 8.16852 12.8195 7.92818V5.00406L15.6559 5.12423L15.2101 5.56485C15.0074 5.76513 15.0074 6.08558 15.2101 6.28587C15.4128 6.48615 15.7369 6.48615 15.9395 6.28587L16.993 5.20434L22.1391 5.44468C22.3013 5.44468 22.4631 5.36457 22.5445 5.2444L24.5701 2.72084C24.7728 2.44045 24.6514 2.03988 24.3274 1.91971L22.7876 1.39898C22.6254 1.35892 22.4631 1.35892 22.3418 1.43904L21.207 2.28022L18.9378 0.958359C18.695 0.798134 18.3706 0.878246 18.2492 1.11858C18.087 1.35892 18.1683 1.67937 18.4114 1.79954L19.2214 2.28022L10.5908 1.87966C10.5095 1.87966 10.469 1.87966 10.3881 1.91971L7.34904 3.04129L7.51127 2.52056C7.59218 2.24017 7.47081 1.95977 7.18721 1.87966C6.90361 1.79954 6.61961 1.91971 6.5387 2.20011L6.21464 3.16146L3.7023 1.91971C3.54007 1.8396 3.37824 1.8396 3.25647 1.91971L1.23042 2.92112C0.865903 3.12141 0.865903 3.64214 1.23042 3.80237L6.29555 6.32592C6.41732 6.40603 6.57916 6.40603 6.70093 6.36598L7.63264 6.00547C7.79487 7.12705 8.88881 7.88812 10.1045 7.64779C10.3072 7.60773 10.469 7.4475 10.5095 7.24722C10.6717 6.48615 10.4286 5.68502 9.82092 5.20434L10.6717 4.88389L11.847 4.92395V7.88812C9.61824 8.12846 7.87578 10.0912 7.99715 12.3744C8.03801 13.1355 7.79487 13.8165 7.34904 14.3773C6.37687 15.5389 5.84973 16.9809 5.84973 18.463C5.84973 21.988 8.72698 24.832 12.2928 24.8721H12.3333C12.3737 24.8721 14.8456 25.0323 16.9121 22.9894C19.3027 20.6261 19.4241 16.9008 17.3171 14.3773C16.8713 13.8966 16.6285 13.1756 16.669 12.4145Z" fill="#174940"/>
<path d="M12.3334 21.9479C10.5505 21.9479 9.13206 20.5059 9.13206 18.7434C9.13206 18.0224 9.3752 17.3014 9.86149 16.7006C10.0237 16.5003 10.0237 16.1798 9.78057 15.9795C9.57789 15.8193 9.25383 15.8193 9.05115 16.0597C7.67321 17.702 7.75452 20.1454 9.29429 21.6676C10.1046 22.4687 11.1581 22.9093 12.2929 22.9093C12.5765 22.9093 12.8197 22.669 12.8197 22.4286C12.8197 22.1482 12.617 21.9479 12.3334 21.9479Z" fill="#174940"/>
<path d="M23.2332 8.36881C23.524 8.36881 23.7599 8.60194 23.7599 8.88954C23.7599 9.17715 23.524 9.41028 23.2332 9.41028C22.942 9.41028 22.7061 9.17715 22.7061 8.88954C22.7061 8.60194 22.942 8.36881 23.2332 8.36881Z" fill="#174940"/>
<path d="M19.7078 11.8941C19.9986 11.8941 20.2346 12.1272 20.2346 12.4148C20.2346 12.7024 19.9986 12.9355 19.7078 12.9355C19.4166 12.9355 19.1807 12.7024 19.1807 12.4148C19.1807 12.1272 19.4166 11.8941 19.7078 11.8941Z" fill="#174940"/>
<path d="M23.2332 19.3847C23.524 19.3847 23.7599 19.6178 23.7599 19.9054C23.7599 20.193 23.524 20.4261 23.2332 20.4261C22.942 20.4261 22.7061 20.193 22.7061 19.9054C22.7061 19.6178 22.942 19.3847 23.2332 19.3847Z" fill="#174940"/>
<path d="M20.7211 21.9078C21.0119 21.9078 21.2478 22.1409 21.2478 22.4285C21.2478 22.7161 21.0119 22.9492 20.7211 22.9492C20.4299 22.9492 20.1943 22.7161 20.1943 22.4285C20.1943 22.1409 20.4299 21.9078 20.7211 21.9078Z" fill="#174940"/>
<path d="M3.4994 16.9015C3.79061 16.9015 4.02614 17.1347 4.02614 17.4223C4.02614 17.7099 3.79061 17.943 3.4994 17.943C3.20859 17.943 2.97266 17.7099 2.97266 17.4223C2.97266 17.1347 3.20859 16.9015 3.4994 16.9015Z" fill="#174940"/>
<path d="M6.01161 12.8951C6.30242 12.8951 6.53835 13.1282 6.53835 13.4158C6.53835 13.7034 6.30242 13.9365 6.01161 13.9365C5.7204 13.9365 5.48486 13.7034 5.48486 13.4158C5.48486 13.1282 5.7204 12.8951 6.01161 12.8951Z" fill="#174940"/>
<path d="M2.97303 11.373C3.26384 11.373 3.49978 11.6061 3.49978 11.8937C3.49978 12.1813 3.26384 12.4144 2.97303 12.4144C2.68222 12.4144 2.44629 12.1813 2.44629 11.8937C2.44629 11.6061 2.68222 11.373 2.97303 11.373Z" fill="#174940"/>
<path d="M10.0639 14.3772C10.3547 14.3772 10.5906 14.6104 10.5906 14.898C10.5906 15.1856 10.3547 15.4187 10.0639 15.4187C9.77305 15.4187 9.53711 15.1856 9.53711 14.898C9.53711 14.6104 9.77305 14.3772 10.0639 14.3772Z" fill="#174940"/>
<path d="M3.98582 8.32891C4.02628 7.84823 4.39119 7.44766 4.91753 7.40761C4.87708 7.88829 4.51256 8.24879 3.98582 8.32891ZM5.89011 6.80676C5.84965 6.60648 5.68742 6.44625 5.48513 6.4062C3.94536 6.1258 2.68919 7.28744 3.01325 8.84964C3.05371 9.04992 3.21593 9.21015 3.41862 9.2502C4.95839 9.57066 6.21456 8.36896 5.89011 6.80676Z" fill="#174940"/>
<path d="M18.249 6.96705C18.7757 7.0071 19.1403 7.40767 19.1807 7.88834C18.9784 7.84829 18.2895 7.44772 18.249 6.96705ZM17.6818 6.00569C17.4791 6.04575 17.3169 6.20597 17.2764 6.40626C16.9524 7.96846 18.2085 9.13009 19.7483 8.8497C19.951 8.80964 20.1128 8.64942 20.1537 8.44913C20.4373 6.88693 19.2212 5.7253 17.6818 6.00569Z" fill="#174940"/>
<path d="M2.97287 21.4278C2.68927 21.4278 2.44613 21.1874 2.44613 20.907C2.44613 20.6266 2.68927 20.3863 2.97287 20.3863C3.25647 20.3863 3.49962 20.6266 3.49962 20.907C3.49962 21.1874 3.25647 21.4278 2.97287 21.4278ZM2.97287 19.4249C2.12167 19.4249 1.43311 20.1059 1.43311 20.9471C1.43311 21.7883 2.12167 22.4692 2.97287 22.4692C3.82407 22.4692 4.51264 21.7883 4.51264 20.9471C4.51264 20.1059 3.82407 19.4249 2.97287 19.4249Z" fill="#174940"/>
<path d="M22.9903 16.9015C22.585 16.9015 22.2201 16.5811 22.2201 16.1405C22.2201 15.6998 22.5445 15.3794 22.9903 15.3794C23.4358 15.3794 23.7602 15.6998 23.7602 16.1405C23.7602 16.5811 23.3953 16.9015 22.9903 16.9015ZM22.9903 14.418C22.0178 14.418 21.207 15.2192 21.207 16.1805C21.207 17.1419 22.0178 17.943 22.9903 17.943C23.9625 17.943 24.7729 17.1419 24.7729 16.1805C24.7729 15.2192 23.9625 14.418 22.9903 14.418Z" fill="#174940"/>
</svg>
