<svg width="21" height="24" viewBox="0 0 21 24" fill="none" xmlns="http://www.w3.org/2000/svg">
<path d="M3.15822 6.61024C2.73684 6.61024 2.35807 6.94725 2.35807 7.41039C2.35807 7.83134 2.69508 8.21054 3.15822 8.21054C3.57917 8.21054 3.95795 7.87352 3.95795 7.41039C3.95795 6.94725 3.57917 6.61024 3.15822 6.61024ZM3.15822 9.26294C2.14758 9.26294 1.30566 8.42102 1.30566 7.41039C1.30566 6.39975 2.14758 5.55784 3.15822 5.55784C4.16885 5.55784 5.01076 6.39975 5.01076 7.41039C5.01076 8.42102 4.16885 9.26294 3.15822 9.26294Z" fill="#10002B"/>
<path d="M10.4841 10.9485C10.3998 10.9485 10.3154 10.9485 10.2315 10.9063L8.37893 9.93786C8.25239 9.85391 8.16803 9.76955 8.12627 9.64343L7.70489 8.21184C7.66313 8.0853 7.66313 7.91701 7.74707 7.79089L11.1999 1.26437C11.2839 1.13784 11.3682 1.05389 11.4948 1.01171C11.6209 0.969534 11.7892 0.969535 11.9153 1.05389L12.842 1.55921C13.0947 1.68533 13.1786 2.02235 13.0525 2.275C12.9259 2.52766 12.5893 2.61161 12.3367 2.48549L11.8735 2.23282L8.75771 8.08531L9.05254 9.09594L10.5263 9.89609L11.5365 9.60125L12.4206 7.91701C12.5472 7.66435 12.8842 7.57999 13.1364 7.70653C13.3891 7.83265 13.4734 8.16966 13.3473 8.42232L12.3789 10.2749C12.2945 10.4014 12.2101 10.4854 12.084 10.5275L10.6524 10.9485C10.6103 10.9485 10.5681 10.9485 10.4841 10.9485Z" fill="#10002B"/>
<path d="M14.3993 5.85278C14.3153 5.85278 14.231 5.85278 14.1466 5.8106C13.894 5.68448 13.81 5.34747 13.9361 5.09481L14.6941 3.7054L14.1888 3.45274C13.9361 3.32662 13.8522 2.98961 13.9783 2.73695C14.1049 2.48429 14.4415 2.39993 14.6941 2.52647L15.6204 3.03179C15.7465 3.11573 15.8309 3.20008 15.873 3.32662C15.9152 3.45274 15.9152 3.62104 15.8309 3.74716L14.8624 5.60013C14.7363 5.76843 14.5676 5.85278 14.3993 5.85278Z" fill="#10002B"/>
<path d="M11.0309 8.84204C10.9469 8.84204 10.8626 8.84204 10.7782 8.79986L8.46253 7.57875C8.20988 7.45263 8.12593 7.11562 8.25205 6.86296C8.37859 6.6103 8.71519 6.52636 8.96785 6.65248L11.2835 7.87359C11.5362 8.00013 11.6205 8.33672 11.4944 8.58938C11.3679 8.75768 11.1996 8.84204 11.0309 8.84204Z" fill="#10002B"/>
<path d="M13.3064 1.76845L14.2327 2.27376L14.4854 1.81062C14.5275 1.72626 14.5275 1.64191 14.5275 1.55797C14.5275 1.34749 14.401 1.17919 14.2327 1.09483C14.1483 1.05265 14.0644 1.05265 13.98 1.05265C13.7696 1.05265 13.6013 1.17919 13.5169 1.34749L13.3064 1.76845ZM14.4432 3.49487C14.3592 3.49487 14.2749 3.49487 14.1905 3.45269L12.338 2.48424C12.2114 2.39988 12.1275 2.31594 12.0853 2.1894C12.0431 2.06328 12.0431 1.89457 12.1275 1.76845L12.6328 0.84217C12.9272 0.336854 13.4325 -0.000159979 14.0222 -0.000159979C14.2749 -0.000159979 14.5275 0.0842004 14.7798 0.168559C15.2851 0.463396 15.6221 0.968296 15.6221 1.55797C15.6221 1.81063 15.5378 2.06328 15.4538 2.31594L14.9485 3.24221C14.822 3.41051 14.6115 3.49487 14.4432 3.49487Z" fill="#10002B"/>
<path d="M13.0108 14.0623C12.9264 14.0623 12.8425 14.0623 12.7581 14.0201L6.232 10.5676C5.97934 10.4411 5.89499 10.1045 6.02153 9.85184C6.14765 9.59918 6.48466 9.51482 6.73732 9.64136L13.2634 13.0938C13.5161 13.2199 13.6004 13.5569 13.4739 13.8096C13.3895 13.9779 13.2212 14.0623 13.0108 14.0623Z" fill="#10002B"/>
<path d="M19.9995 24H1.05262C0.757784 24 0.505127 23.7473 0.505127 23.4525V21.3473C0.505127 21.0525 0.757784 20.7998 1.05262 20.7998H3.7049C3.99974 20.7998 4.2524 21.0525 4.2524 21.3473C4.2524 21.6421 3.99974 21.8948 3.7049 21.8948H1.5997V22.9472H19.4942V21.8948H17.389C17.0945 21.8948 16.8419 21.6421 16.8419 21.3473C16.8419 21.0525 17.0945 20.7998 17.389 20.7998H20.0417C20.3365 20.7998 20.5891 21.0525 20.5891 21.3473V23.4525C20.547 23.7473 20.2943 24 19.9995 24Z" fill="#10002B"/>
<path d="M17.3896 21.8938H3.70552C3.4111 21.8938 3.15845 21.6411 3.15845 21.3463V20.9675C3.15845 19.1572 4.63221 17.6834 6.44258 17.6834H9.39012C9.68454 17.6834 9.93721 17.936 9.93721 18.1883C9.93721 18.4835 9.68454 18.7358 9.39012 18.7358H6.44258C5.26365 18.7358 4.25302 19.6625 4.21084 20.841H16.8425C16.7581 19.6625 15.7897 18.7358 14.6108 18.7358H14.1476C13.8532 18.7358 13.6005 18.4835 13.6005 18.1883C13.6005 17.8934 13.8532 17.6834 14.1476 17.6834H14.6108C16.4215 17.6834 17.8949 19.1572 17.8949 20.9675V21.3463C17.8949 21.6411 17.6422 21.8938 17.3896 21.8938Z" fill="#10002B"/>
<path d="M16.5067 12.9268C16.4649 12.9268 16.4649 12.9268 16.4228 12.9268C16.3806 12.9268 16.3806 12.9268 16.3384 12.9268C16.0436 12.8846 15.8331 12.6319 15.8753 12.3793C15.9174 12.0844 16.1701 11.8739 16.4228 11.9161C16.4649 11.9161 16.5067 11.9161 16.5489 11.9161C16.8437 11.9583 17.0542 12.211 17.012 12.5058C17.012 12.7585 16.8015 12.9268 16.5067 12.9268Z" fill="#10002B"/>
<path d="M16.2104 12.9275C15.9577 12.9275 15.7051 12.7171 15.7051 12.4644C15.6629 12.1696 15.9156 11.9169 16.1682 11.9169C16.2104 11.9169 16.2104 11.9169 16.2522 11.9169C16.547 11.9169 16.7575 12.1696 16.7575 12.4644C16.7575 12.7592 16.547 12.9697 16.2522 12.9697C16.2522 12.9275 16.2104 12.9275 16.2104 12.9275Z" fill="#10002B"/>
<path d="M16.0849 12.9258C15.8323 12.9258 15.6218 12.7575 15.5796 12.4626C15.5374 12.1678 15.7479 11.9152 16.0006 11.873C16.0428 11.873 16.0428 11.873 16.0849 11.873H16.1271C16.422 11.8308 16.6746 12.0834 16.7168 12.3361C16.7586 12.6309 16.5481 12.8836 16.2533 12.9258H16.2115C16.1271 12.9258 16.1271 12.9258 16.0849 12.9258Z" fill="#10002B"/>
<path d="M15.916 12.9688C15.7055 12.9688 15.495 12.8001 15.4106 12.5896C15.3263 12.2948 15.495 12.0004 15.7894 11.9582H15.8316H15.8738H15.916C15.9581 11.9582 15.9581 11.9582 15.9999 11.9582C16.2947 11.916 16.5474 12.1265 16.5896 12.4213C16.6317 12.7161 16.4213 12.9688 16.1264 13.011C16.1264 13.011 16.1264 13.011 16.0843 13.011C16.0843 13.011 16.0843 13.011 16.0421 13.011H15.9999C15.9999 12.9688 15.9581 12.9688 15.916 12.9688Z" fill="#10002B"/>
<path d="M15.0324 13.6001C14.9063 13.6001 14.8219 13.5579 14.738 13.5157C14.4853 13.3474 14.4431 13.0108 14.6114 12.7999C14.738 12.5895 14.9063 12.4212 15.1167 12.2946C15.1589 12.2946 15.1589 12.2529 15.2011 12.2529C15.285 12.2107 15.3694 12.1685 15.4538 12.1263C15.4538 12.1263 15.4959 12.1263 15.4959 12.0841C15.5377 12.0424 15.6221 12.0424 15.6642 12.0424C15.7064 12.0424 15.7064 12.0424 15.7482 12.0002C16.043 11.9159 16.2957 12.0841 16.38 12.379C16.4644 12.6738 16.2957 12.9265 16.0008 13.0108C16.0008 13.0108 16.0008 13.0108 15.9591 13.0108C15.9169 13.0108 15.9169 13.0108 15.8747 13.0526H15.8325C15.7904 13.0948 15.7482 13.0948 15.7064 13.137C15.7064 13.137 15.6642 13.137 15.6642 13.1791C15.5799 13.2631 15.4959 13.3474 15.4116 13.4314C15.3694 13.5157 15.2011 13.6001 15.0324 13.6001Z" fill="#10002B"/>
<path d="M14.9904 13.6423C14.9061 13.6423 14.7795 13.6002 14.6956 13.558C14.4429 13.3897 14.359 13.0948 14.5273 12.8422C14.5273 12.8 14.5691 12.8 14.5691 12.7582C14.7378 12.5056 15.0744 12.4634 15.2849 12.6317C15.5375 12.8 15.5797 13.137 15.4114 13.3475C15.4114 13.3475 15.4114 13.3475 15.4114 13.3897C15.327 13.558 15.1587 13.6423 14.9904 13.6423Z" fill="#10002B"/>
<path d="M14.9051 13.7676C14.8208 13.7676 14.7368 13.7676 14.6525 13.7254C14.3998 13.5993 14.3159 13.2623 14.442 13.01C14.442 12.9678 14.4842 12.9678 14.4842 12.9257C14.4842 12.8835 14.5264 12.8835 14.5264 12.8413C14.6947 12.5886 15.0312 12.5465 15.2421 12.673C15.4948 12.8413 15.5366 13.1783 15.4104 13.3888C15.4104 13.3888 15.4104 13.3888 15.4104 13.4306C15.4104 13.4306 15.4104 13.4727 15.3683 13.4727C15.2839 13.6832 15.1156 13.7676 14.9051 13.7676Z" fill="#10002B"/>
<path d="M14.7373 14.3157H14.6951C14.4002 14.2735 14.1898 14.0208 14.2319 13.726C14.2319 13.6838 14.2319 13.6838 14.2319 13.6421C14.2319 13.5999 14.2319 13.5577 14.2319 13.5577C14.2319 13.4733 14.2741 13.4312 14.2741 13.3472C14.2741 13.305 14.2741 13.2629 14.3163 13.2629C14.4424 13.0106 14.7373 12.8419 14.9899 12.9684C15.2426 13.0946 15.4109 13.3894 15.2843 13.6421C15.2843 13.6838 15.2843 13.6838 15.2426 13.726V13.7682V13.8104C15.2426 14.1474 15.0317 14.3157 14.7373 14.3157Z" fill="#10002B"/>
<path d="M14.7372 14.4006C14.4424 14.4006 14.1897 14.148 14.1897 13.8531C14.1897 13.811 14.1897 13.811 14.1897 13.7688V13.7266C14.2319 13.4318 14.5267 13.2635 14.779 13.3056C15.0738 13.3478 15.2425 13.6005 15.2003 13.8953C15.2425 14.1897 15.0316 14.4006 14.7372 14.4006Z" fill="#10002B"/>
<path d="M14.7372 14.4841C14.4424 14.4841 14.1897 14.2315 14.1897 13.9366C14.1897 13.8949 14.1897 13.8527 14.1897 13.8105C14.1897 13.5157 14.4424 13.3052 14.7372 13.3052C15.0316 13.3052 15.2425 13.5579 15.2425 13.8527V13.8949C15.2843 14.2736 15.0316 14.4841 14.7372 14.4841Z" fill="#10002B"/>
<path d="M14.7373 14.7366C14.4846 14.7366 14.2741 14.5261 14.2319 14.2734C14.2319 14.2313 14.2319 14.1891 14.2319 14.1473C14.2319 13.8525 14.4424 13.5998 14.7373 13.5998C15.0317 13.5998 15.2843 13.8103 15.2843 14.1051V14.1473C15.3265 14.4417 15.116 14.6944 14.8212 14.7366C14.8212 14.7366 14.779 14.7366 14.7373 14.7366Z" fill="#10002B"/>
<path d="M14.9049 15.2434C14.7366 15.2434 14.5261 15.1595 14.4417 14.9486C14.3996 14.9064 14.3996 14.8646 14.3996 14.8224C14.2734 14.5698 14.3996 14.2328 14.6522 14.1067C14.9049 13.9801 15.2419 14.1067 15.368 14.3593C15.368 14.4015 15.4102 14.4015 15.4102 14.4433C15.5363 14.6959 15.4524 15.0329 15.1997 15.1595C15.0732 15.2434 14.9892 15.2434 14.9049 15.2434Z" fill="#10002B"/>
<path d="M15.2836 15.7065C15.1575 15.7065 15.0309 15.6648 14.947 15.58C14.9048 15.5382 14.8626 15.5382 14.8205 15.4961C14.61 15.2852 14.61 14.9486 14.8205 14.7381C15.0309 14.5276 15.3679 14.5276 15.5784 14.7381L15.6206 14.7798C15.8311 14.9486 15.8733 15.2852 15.6628 15.5382C15.5784 15.6648 15.4523 15.7065 15.2836 15.7065Z" fill="#10002B"/>
<path d="M14.1481 18.7361H9.43234C9.3484 18.7361 9.26404 18.7361 9.17968 18.6939L6.35868 17.1784C5.68506 16.7992 5.22192 16.0834 5.22192 15.3258C5.22192 14.9888 5.30628 14.6522 5.47458 14.3574C6.02208 13.3467 7.28496 12.9258 8.33777 13.4729L11.201 14.9888C11.3692 14.9888 11.8746 14.6522 12.0429 14.3574L14.3168 9.93606C14.359 9.85212 14.4007 9.72558 14.359 9.59946C14.3168 9.47292 14.2324 9.38899 14.1481 9.34681L12.6743 8.54665C12.5482 8.46229 12.4638 8.37835 12.4216 8.25223C12.3799 8.12569 12.3799 7.9574 12.4638 7.83086L13.9376 5.05204C14.0219 4.92592 14.1063 4.84156 14.2324 4.79938C14.359 4.7572 14.5273 4.7572 14.6534 4.84156L19.7901 7.53644C19.9166 7.62038 20.0006 7.70474 20.0427 7.83086C20.0849 7.9574 20.0849 8.12569 20.0006 8.25223L17.6009 12.7992C17.4744 13.0519 17.1374 13.1363 16.8851 13.0101C16.6325 12.8836 16.5481 12.5466 16.6746 12.2939L18.822 8.21005L14.6534 5.97831L13.6849 7.83086L14.6956 8.37835C15.0322 8.54665 15.2848 8.88367 15.4114 9.26245C15.5375 9.64165 15.4957 10.0204 15.2848 10.3996L12.927 14.8205C12.5904 15.4098 11.5375 16.336 10.6956 15.9151L7.83245 14.3996C7.32713 14.1469 6.69569 14.3152 6.40086 14.8205C6.3165 14.9888 6.27473 15.1575 6.27473 15.3258C6.27473 15.7046 6.48522 16.0834 6.82182 16.2521L9.5167 17.6837H13.7693L15.1165 15.1575C15.2431 14.9045 15.5797 14.8205 15.8323 14.9466C16.085 15.0732 16.1693 15.4098 16.0428 15.6628L14.569 18.4413C14.4851 18.6096 14.3168 18.7361 14.1481 18.7361Z" fill="#10002B"/>
<path d="M15.3695 14.4004C15.3695 14.4422 15.3695 14.4422 15.4117 14.4843C15.4538 14.5687 15.5378 14.6531 15.6221 14.737L15.6643 14.7788C15.7483 14.8214 15.7904 14.8635 15.8748 14.9053C16.0009 14.9897 16.1696 15.0318 16.3379 15.0318C16.9272 15.0318 17.3903 14.5687 17.3903 13.979C17.3903 13.6002 17.1798 13.2632 16.8432 13.0528C16.7171 12.9688 16.5906 12.9266 16.4645 12.9266C16.4645 12.9266 16.4223 12.9266 16.3801 12.9266C16.3379 12.9266 16.2958 12.9266 16.2536 12.9266C16.2536 12.9266 16.2536 12.9266 16.2118 12.9266C16.2118 12.9266 16.2118 12.9266 16.1696 12.9266H16.1275C16.1275 12.9266 16.1275 12.9266 16.0853 12.9266C16.0853 12.9266 16.0853 12.9266 16.0431 12.9266H16.0009H15.9592C15.917 12.9266 15.917 12.9266 15.8748 12.9688C15.8748 12.9688 15.8748 12.9688 15.8326 12.9688C15.7904 12.9688 15.7483 13.011 15.7065 13.011C15.7065 13.011 15.7065 13.011 15.6643 13.011C15.58 13.0949 15.496 13.1793 15.4117 13.2632C15.4117 13.2632 15.4117 13.2632 15.4117 13.3054C15.4117 13.3054 15.4117 13.3054 15.4117 13.3476C15.4117 13.3476 15.4117 13.3476 15.4117 13.3898C15.3695 13.4315 15.3695 13.4737 15.3695 13.5159V13.5581C15.3695 13.6002 15.3695 13.6424 15.3273 13.6424V13.6842V13.7264V13.7685V13.8107C15.3273 13.8529 15.3273 13.8529 15.3273 13.8951V13.9368C15.2851 14.2317 15.3273 14.316 15.3695 14.4004ZM16.3379 16.0842C16.0009 16.0842 15.7065 16.0003 15.4117 15.8742C15.2434 15.7894 15.1168 15.7055 14.9907 15.5789C14.9485 15.5372 14.9063 15.495 14.8642 15.495C14.6959 15.3267 14.5693 15.1584 14.4854 14.9897C14.4854 14.9475 14.4432 14.9053 14.4432 14.8635C14.3593 14.6948 14.3171 14.4843 14.2749 14.2739C14.2749 14.2317 14.2749 14.1895 14.2749 14.1477C14.2749 14.1056 14.2749 14.0634 14.2749 13.979C14.2749 13.9368 14.2749 13.8951 14.2749 13.8951C14.2749 13.8951 14.2749 13.8951 14.2749 13.8529C14.2749 13.8107 14.2749 13.8107 14.2749 13.7685C14.2749 13.7685 14.2749 13.7685 14.2749 13.7264C14.2749 13.6842 14.2749 13.6842 14.2749 13.6424C14.2749 13.6002 14.2749 13.5581 14.2749 13.5159C14.2749 13.4315 14.3171 13.3898 14.3171 13.3054C14.3171 13.2632 14.3171 13.2632 14.3593 13.2211C14.401 13.1371 14.4432 13.011 14.4854 12.9266C14.4854 12.8845 14.5271 12.8845 14.5271 12.8423C14.5271 12.8001 14.5693 12.8001 14.5693 12.7583C14.5693 12.7162 14.6115 12.7162 14.6115 12.674C14.738 12.4635 14.9063 12.2948 15.1168 12.1687C15.159 12.1265 15.159 12.1265 15.2012 12.1265C15.2851 12.0843 15.3695 12.0425 15.4117 12.0004C15.4538 12.0004 15.4538 11.9582 15.496 11.9582C15.5378 11.916 15.6221 11.916 15.6643 11.916C15.7065 11.916 15.7065 11.916 15.7483 11.8738H15.7904H15.8326H15.8748H15.917H15.9592C15.9592 11.8738 15.9592 11.8738 16.0009 11.8738H16.0431H16.0853H16.1275H16.1696C16.2536 11.8738 16.3379 11.8738 16.3801 11.8738C16.4223 11.8738 16.4645 11.8738 16.5062 11.8738C16.7589 11.916 17.0115 12.0004 17.2642 12.1265C17.9378 12.5057 18.3588 13.2211 18.3588 13.979C18.4431 15.1584 17.4747 16.0842 16.3379 16.0842Z" fill="#10002B"/>
<path d="M4.46388 4.0008C4.04292 4.0008 3.66414 4.33782 3.66414 4.80096C3.66414 5.22191 4.00074 5.60112 4.46388 5.60112C4.88526 5.60112 5.26403 5.26409 5.26403 4.80096C5.26403 4.33782 4.92702 4.0008 4.46388 4.0008ZM4.46388 6.61133C3.45325 6.61133 2.61133 5.76941 2.61133 4.75878C2.61133 3.74814 3.45325 2.90623 4.46388 2.90623C5.47451 2.90623 6.31642 3.74814 6.31642 4.75878C6.31642 5.76941 5.47451 6.61133 4.46388 6.61133Z" fill="#10002B"/>
<path d="M1.85255 4.0008C1.43159 4.0008 1.05281 4.33782 1.05281 4.80096C1.05281 5.22191 1.38941 5.60112 1.85255 5.60112C2.27392 5.60112 2.6527 5.26409 2.6527 4.80096C2.6527 4.33782 2.27392 4.0008 1.85255 4.0008ZM1.85255 6.61133C0.841915 6.61133 0 5.76941 0 4.75878C0 3.74814 0.841915 2.90623 1.85255 2.90623C2.86318 2.90623 3.70509 3.74814 3.70509 4.75878C3.70509 5.76941 2.86318 6.61133 1.85255 6.61133Z" fill="#10002B"/>
</svg>
