<svg width="24" height="24" viewBox="0 0 24 24" fill="none" xmlns="http://www.w3.org/2000/svg">
<path d="M10.6081 18.6526C8.21717 18.6526 5.86976 17.7828 4.04365 16.1738L3.26103 16.9565C3.04371 17.1739 2.69574 17.1739 2.47842 16.9565C2.2611 16.7392 2.2611 16.3912 2.47842 16.1738L3.60901 15.0435C3.69568 14.9569 3.82633 14.8697 4.0001 14.8697C4.13032 14.8697 4.30452 14.9133 4.39119 15.0435C6.56483 17.1739 9.65175 18.0001 12.608 17.3481C12.9555 17.261 13.3035 17.1739 13.6511 17.0436C14.9554 16.5654 16.0856 15.8262 17.0855 14.8262C18.7379 13.087 19.6507 10.8265 19.6071 8.4348C19.5636 6.04358 18.6072 3.78259 16.8682 2.13051C16.7815 2.0434 16.6944 1.91315 16.6944 1.73936C16.6944 1.6087 16.738 1.43493 16.8682 1.34781L17.9988 0.173971C18.2161 -0.0433731 18.5637 -0.0433731 18.781 0.173971C18.9987 0.391315 18.9987 0.73889 18.781 0.956667L17.9988 1.73936C19.6942 3.56523 20.6506 5.91334 20.6942 8.39167C20.7373 11.0869 19.7378 13.6088 17.8681 15.5654C16.7815 16.6956 15.4772 17.5219 14.0426 18.0437C13.6511 18.1739 13.26 18.3046 12.8684 18.3917C12.0863 18.5655 11.3472 18.6526 10.6081 18.6526Z" fill="#10002B"/>
<path d="M12.7385 20.6956C12.4345 20.6956 12.1736 20.4347 12.1736 20.1302V17.9564C12.1736 17.652 12.4345 17.3915 12.7385 17.3915C13.0429 17.3915 13.3038 17.652 13.3038 17.9564V20.1302C13.3038 20.4347 13.0429 20.6956 12.7385 20.6956Z" fill="#10002B"/>
<path d="M14.3908 20.6956C14.0868 20.6956 13.8259 20.4347 13.8259 20.1302V17.5217C13.8259 17.2173 14.0868 16.9564 14.3908 16.9564C14.6953 16.9564 14.9562 17.2173 14.9562 17.5217V20.1302C14.9126 20.4347 14.6953 20.6956 14.3908 20.6956Z" fill="#10002B"/>
<path d="M10.3469 1.1313H10.3034C6.43426 1.17485 3.30423 4.3052 3.30423 8.17472C3.30423 12.0878 6.47781 15.2617 10.3905 15.2617C14.3031 15.2617 17.4767 12.0878 17.4767 8.17472C17.4767 4.3052 14.3467 1.1313 10.4776 1.1313C10.3905 1.1313 10.3469 1.1313 10.3469 1.1313ZM10.3469 16.3489C5.8694 16.3489 2.17407 12.6967 2.17407 8.17472C2.17407 6.00084 2.99981 3.95721 4.56504 2.4358C6.08629 0.913954 8.12971 0.0445671 10.3034 0.0445671H10.3469H10.3905C12.5641 0.0445671 14.6075 0.913954 16.1288 2.4358C17.6505 3.95721 18.4766 6.00084 18.4766 8.17472C18.4766 12.6967 14.8248 16.3489 10.3469 16.3489Z" fill="#10002B"/>
<path d="M10.3464 16.3489C8.60741 16.3489 7.08573 14.5226 6.39022 11.566C6.30355 11.2615 6.52087 11.0011 6.78174 10.914C7.08573 10.8273 7.3466 11.0446 7.4337 11.3051C7.99856 13.6532 9.1727 15.2182 10.3464 15.2182C11.129 15.2182 11.9548 14.5226 12.5636 13.3052C13.2591 11.9576 13.6071 10.1313 13.6071 8.17472C13.6071 7.47913 13.5635 6.74 13.4764 6.08796C13.4329 5.78351 13.6502 5.5226 13.9546 5.47905C14.2591 5.43592 14.5199 5.65327 14.5635 5.95773C14.6502 6.69644 14.7373 7.43558 14.7373 8.21828C14.6937 12.7403 12.7809 16.3489 10.3464 16.3489Z" fill="#10002B"/>
<path d="M6.52135 8.73901C6.21693 8.73901 5.95605 8.4781 5.95605 8.17364C5.95605 6.08688 6.34715 4.0868 7.12976 2.56496C7.91238 0.956437 9.04254 0.0435038 10.2602 -5.14984e-05C10.3033 -5.14984e-05 10.3469 -5.14984e-05 10.3904 -5.14984e-05C11.6944 0.0435038 12.9552 1.13022 13.7378 3.0432C13.8684 3.3041 13.7378 3.65211 13.4334 3.73922C13.1725 3.86946 12.825 3.73922 12.7379 3.43477C12.1294 2.00003 11.2597 1.13023 10.3904 1.13023H10.3469C10.3469 1.13023 10.3469 1.13023 10.3033 1.13023C8.73855 1.17378 7.08621 4.00011 7.08621 8.17364C7.08621 8.4781 6.82534 8.73901 6.52135 8.73901Z" fill="#10002B"/>
<path d="M17.9549 8.73901H2.73894C2.43452 8.73901 2.17407 8.4781 2.17407 8.17364C2.17407 7.86962 2.43452 7.60874 2.73894 7.60874H17.9549C18.2589 7.60874 18.5197 7.86962 18.5197 8.17364C18.5197 8.4781 18.2589 8.73901 17.9549 8.73901Z" fill="#10002B"/>
<path d="M10.3468 16.3489C10.0424 16.3489 9.78149 16.088 9.78149 15.7835V0.566372C9.78149 0.261917 10.0424 0.00102234 10.3468 0.00102234C10.6512 0.00102234 10.9121 0.261917 10.9121 0.566372V15.7835C10.8685 16.088 10.6512 16.3489 10.3468 16.3489Z" fill="#10002B"/>
<path d="M17.4344 23.9569C17.1299 23.9569 16.8691 23.696 16.8691 23.3915V20.6958H6.5657V23.4351C6.5657 23.7391 6.30526 24 6.00084 24C5.69641 24 5.43555 23.7391 5.43555 23.4351V20.174C5.43555 19.8696 5.69641 19.6087 6.00084 19.6087H17.4344C17.7388 19.6087 17.9996 19.8696 17.9996 20.174V23.4351C17.9561 23.696 17.6952 23.9569 17.4344 23.9569Z" fill="#10002B"/>
<path d="M22.3022 23.957H0.565294C0.260871 23.957 0 23.6961 0 23.3917C0 23.0872 0.260871 22.8699 0.565294 22.8699H22.3022C22.6066 22.8699 22.8675 23.1308 22.8675 23.4352C22.8675 23.6961 22.6066 23.957 22.3022 23.957Z" fill="#10002B"/>
<path d="M1.91367 19.6085C1.78301 19.6085 1.65279 19.7392 1.65279 19.8694C1.65279 20.0001 1.78301 20.1303 1.91367 20.1303C2.0439 20.1303 2.17457 20.0001 2.17457 19.8694C2.21769 19.7392 2.08746 19.6085 1.91367 19.6085ZM1.91367 21.261C1.17413 21.261 0.565674 20.6521 0.565674 19.913C0.565674 19.1739 1.17413 18.5654 1.91367 18.5654C2.65279 18.5654 3.26125 19.1739 3.26125 19.913C3.3048 20.6085 2.65279 21.261 1.91367 21.261Z" fill="#10002B"/>
<path d="M22.0417 13.0877C21.7372 13.0877 21.4763 13.3486 21.4763 13.653C21.4763 13.957 21.7372 14.2179 22.0417 14.2179C22.3461 14.2179 22.607 13.957 22.607 13.653C22.607 13.3486 22.3461 13.0877 22.0417 13.0877ZM22.0417 15.2615C21.1288 15.2615 20.3896 14.5224 20.3896 13.6095C20.3896 12.6966 21.1288 11.9574 22.0417 11.9574C22.955 11.9574 23.6937 12.6966 23.6937 13.6095C23.6937 14.5224 22.911 15.2615 22.0417 15.2615Z" fill="#10002B"/>
</svg>
