<svg width="25" height="24" viewBox="0 0 25 24" fill="none" xmlns="http://www.w3.org/2000/svg">
<path d="M4.05942 8.40805C3.43983 9.02029 3.43983 9.95906 4.05942 10.5713C4.26595 10.7754 4.59616 10.7754 4.80269 10.5713C5.00922 10.3672 5.00922 10.0407 4.80269 9.83661C4.59616 9.63253 4.59616 9.306 4.80269 9.10192C5.00922 8.89784 5.33942 8.89784 5.54595 9.10192C5.75207 9.306 6.08227 9.306 6.2888 9.10192C6.49533 8.89784 6.49533 8.57131 6.2888 8.36723C5.66962 7.83662 4.6786 7.83662 4.05942 8.40805Z" fill="#174940"/>
<path d="M19.3776 11.143C19.5841 11.347 19.9143 11.347 20.1208 11.143C20.9053 10.3675 20.9053 9.06133 20.1208 8.24501C19.9143 8.04093 19.5841 8.04093 19.3776 8.24501C19.171 8.44909 19.171 8.77562 19.3776 8.9797C19.7902 9.38786 19.7902 10.0409 19.3776 10.4083C19.171 10.6532 19.171 10.9389 19.3776 11.143Z" fill="#174940"/>
<path d="M11.3674 22.9796C11.3674 21.6735 11.3674 13.0204 11.3674 11.7143C11.3674 11.5919 11.3262 11.4286 11.2021 11.347L8.84867 9.14291C8.76622 9.06127 8.76622 9.02046 8.76622 8.97964C8.76622 8.73474 9.01398 8.6123 9.22051 8.77556L10.5005 9.95923C10.6654 10.0817 10.8719 10.1225 11.0785 10.0409C11.285 9.95923 11.4087 9.79597 11.4087 9.59188V7.67352C11.4087 7.38781 11.6564 7.14291 11.9454 7.14291C12.2344 7.14291 12.3997 7.38781 12.3997 7.67352V11.9592C12.3997 12.1633 12.5238 12.3674 12.7299 12.449C12.9364 12.5307 13.1429 12.4898 13.3082 12.3266L16.4462 9.30617C16.6111 9.14291 16.9001 9.26536 16.9001 9.51025C16.9001 9.55107 16.9001 9.6327 16.8176 9.67352L12.6062 13.7143C12.4409 13.796 12.3997 13.9184 12.3997 14.0817C12.3997 15.1021 12.3997 21.8367 12.3997 22.9796H11.3674ZM8.93112 13.2653C8.76622 13.0613 8.47724 13.0204 8.27071 13.1837C7.65153 13.5919 6.94949 13.796 6.24745 13.796C4.26583 13.796 2.614 12.2041 2.614 10.2041C2.614 8.40821 3.97684 6.8572 5.79316 6.65312C6.08214 6.6123 6.28868 6.3674 6.24745 6.08169C5.95847 3.91843 7.69275 2.04089 9.83969 2.04089C10.6654 2.04089 11.4499 2.3266 12.1107 2.8164C12.3172 2.97966 12.565 2.97966 12.7711 2.8164C13.4319 2.28579 14.2164 2.04089 15.0425 2.04089C17.189 2.04089 18.9233 3.91843 18.6343 6.08169C18.5931 6.3674 18.7997 6.6123 19.0886 6.65312C20.9054 6.8572 22.2678 8.3674 22.2678 10.2041C22.2678 12.1633 20.6572 13.796 18.6343 13.796C17.8911 13.796 17.189 13.5919 16.6111 13.1837C16.405 13.0204 16.1156 13.0613 15.9503 13.2653C15.2899 14 14.4229 14.4898 13.5144 14.6939V14.2857L17.5609 10.4082C17.8086 10.1633 17.9327 9.83678 17.9735 9.51025C17.9735 8.77556 17.3956 8.20413 16.6939 8.20413C16.3633 8.20413 16.0331 8.32658 15.7854 8.57148L13.5144 10.7347V7.67352C13.5144 6.81638 12.8127 6.12251 11.9454 6.12251C11.0785 6.12251 10.3352 6.81638 10.3352 7.67352V8.40821L9.92254 8.04087C9.3854 7.55107 8.60091 7.59189 8.10541 8.08169C7.61031 8.6123 7.65153 9.3878 8.14704 9.8776L10.3352 11.9184V14.3266C9.79846 14.0817 9.30295 13.7143 8.93112 13.2653ZM22.7221 22.9796H13.4319V15.7551C14.547 15.551 15.5376 15.0204 16.3633 14.2449C17.0654 14.6123 17.8086 14.8164 18.5931 14.8164C21.1527 14.8164 23.2584 12.7755 23.2584 10.2041C23.2584 8.04087 21.7311 6.20414 19.6254 5.71435C19.7078 3.18374 17.6021 1.02048 15.0009 1.02048C14.0923 1.02048 13.1842 1.3062 12.3997 1.79599C11.6564 1.3062 10.7483 1.02048 9.79846 1.02048C7.15602 1.02048 5.09154 3.18374 5.17399 5.71435C3.06828 6.16332 1.54053 8.04087 1.54053 10.2041C1.54053 12.7347 3.60501 14.8164 6.20623 14.8164C6.99072 14.8164 7.7752 14.6123 8.43601 14.2449C8.97274 14.7755 9.63315 15.1837 10.3352 15.4286V22.9388H8.27071C7.98174 22.9388 7.73398 23.1837 7.73398 23.4694C7.73398 23.7551 7.98174 24 8.27071 24C9.01398 24 21.9372 24 22.7221 24C23.0111 24 23.2584 23.7551 23.2584 23.4694C23.2584 23.2245 23.0111 22.9796 22.7221 22.9796Z" fill="#174940"/>
<path d="M23.7541 21.4692H18.5933C18.3043 21.4692 18.0562 21.7141 18.0562 21.9998C18.0562 22.2855 18.3043 22.5304 18.5933 22.5304H23.7541C24.0431 22.5304 24.2912 22.2855 24.2912 21.9998C24.2912 21.6733 24.0431 21.4692 23.7541 21.4692Z" fill="#174940"/>
<path d="M17.066 21.4285C17.3624 21.4285 17.6028 21.6661 17.6028 21.9591C17.6028 22.2522 17.3624 22.4897 17.066 22.4897C16.7697 22.4897 16.5293 22.2522 16.5293 21.9591C16.5293 21.6661 16.7697 21.4285 17.066 21.4285Z" fill="#174940"/>
<path d="M21.69 19.3873C21.9863 19.3873 22.2267 19.6248 22.2267 19.9179C22.2267 20.2109 21.9863 20.4485 21.69 20.4485C21.3932 20.4485 21.1528 20.2109 21.1528 19.9179C21.1528 19.6248 21.3932 19.3873 21.69 19.3873Z" fill="#174940"/>
<path d="M17.5611 16.3261C17.8575 16.3261 18.0979 16.5637 18.0979 16.8567C18.0979 17.1498 17.8575 17.3873 17.5611 17.3873C17.2648 17.3873 17.0244 17.1498 17.0244 16.8567C17.0244 16.5637 17.2648 16.3261 17.5611 16.3261Z" fill="#174940"/>
<path d="M8.27111 17.877C8.56744 17.877 8.80784 18.1146 8.80784 18.4076C8.80784 18.7007 8.56744 18.9382 8.27111 18.9382C7.97479 18.9382 7.73438 18.7007 7.73438 18.4076C7.73438 18.1146 7.97479 17.877 8.27111 17.877Z" fill="#174940"/>
<path d="M1.54112 13.7552C1.83786 13.7552 2.07786 13.9927 2.07786 14.2858C2.07786 14.5789 1.83786 14.8164 1.54112 14.8164C1.2448 14.8164 1.00439 14.5789 1.00439 14.2858C1.00439 13.9927 1.2448 13.7552 1.54112 13.7552Z" fill="#174940"/>
<path d="M5.71057 0.530942C6.00689 0.530942 6.2473 0.768492 6.2473 1.06155C6.2473 1.35461 6.00689 1.59216 5.71057 1.59216C5.41424 1.59216 5.17383 1.35461 5.17383 1.06155C5.17383 0.768492 5.41424 0.530942 5.71057 0.530942Z" fill="#174940"/>
<path d="M19.6256 5.84126e-05C19.9219 5.84126e-05 20.1623 0.237609 20.1623 0.530669C20.1623 0.823729 19.9219 1.06128 19.6256 1.06128C19.3293 1.06128 19.0889 0.823729 19.0889 0.530669C19.0889 0.237609 19.3293 5.84126e-05 19.6256 5.84126e-05Z" fill="#174940"/>
<path d="M10.3356 4.08124C10.6319 4.08124 10.8723 4.31879 10.8723 4.61185C10.8723 4.90491 10.6319 5.14246 10.3356 5.14246C10.0392 5.14246 9.79883 4.90491 9.79883 4.61185C9.79883 4.31879 10.0392 4.08124 10.3356 4.08124Z" fill="#174940"/>
<path d="M7.23889 11.2249C7.53562 11.2249 7.77562 11.4625 7.77562 11.7555C7.77562 12.0486 7.53562 12.2861 7.23889 12.2861C6.94256 12.2861 6.70215 12.0486 6.70215 11.7555C6.70215 11.4625 6.94256 11.2249 7.23889 11.2249Z" fill="#174940"/>
<path d="M7.73399 4.61212C8.03032 4.61212 8.27073 4.84967 8.27073 5.14273C8.27073 5.43579 8.03032 5.67334 7.73399 5.67334C7.43767 5.67334 7.19727 5.43579 7.19727 5.14273C7.19727 4.84967 7.43767 4.61212 7.73399 4.61212Z" fill="#174940"/>
<path d="M18.0563 11.7139C18.3531 11.7139 18.5935 11.9515 18.5935 12.2445C18.5935 12.5376 18.3531 12.7751 18.0563 12.7751C17.7604 12.7751 17.52 12.5376 17.52 12.2445C17.52 11.9515 17.7604 11.7139 18.0563 11.7139Z" fill="#174940"/>
<path d="M23.7541 6.65338C24.0508 6.65338 24.2912 6.89093 24.2912 7.18399C24.2912 7.47705 24.0508 7.7146 23.7541 7.7146C23.4582 7.7146 23.2178 7.47705 23.2178 7.18399C23.2178 6.89093 23.4582 6.65338 23.7541 6.65338Z" fill="#174940"/>
<path d="M2.07727 5.10248C2.374 5.10248 2.614 5.34003 2.614 5.63309C2.614 5.92615 2.374 6.1637 2.07727 6.1637C1.78094 6.1637 1.54053 5.92615 1.54053 5.63309C1.54053 5.34003 1.78094 5.10248 2.07727 5.10248Z" fill="#174940"/>
<path d="M5.75218 22.4085C5.79341 21.8779 6.16525 21.5105 6.70198 21.4697C6.66075 21.9595 6.33014 22.3269 5.75218 22.4085ZM7.32157 20.4901C5.75219 20.2044 4.47261 21.3881 4.80281 22.9799C4.84403 23.184 5.00933 23.3473 5.21546 23.3881C6.78443 23.6738 8.06442 22.4901 7.73422 20.8983C7.65177 20.6942 7.48647 20.531 7.32157 20.4901Z" fill="#174940"/>
<path d="M20.1625 16.8576C20.2037 16.3678 20.5751 15.9596 21.1123 15.9188C21.0706 16.1637 20.6992 16.8168 20.1625 16.8576ZM22.1029 15.3474C22.0616 15.1433 21.8968 14.98 21.6902 14.9392C20.1213 14.6535 18.8412 15.8372 19.1714 17.429C19.2127 17.6331 19.378 17.7964 19.5845 17.8372C21.1123 18.1229 22.3918 16.8984 22.1029 15.3474Z" fill="#174940"/>
<path d="M15.8679 19.1426C16.3635 18.9385 16.859 19.1018 17.1479 19.5507C16.9002 19.6732 16.1157 19.6324 15.8679 19.1426ZM18.2626 19.6324C17.8088 18.0813 16.1569 17.5507 14.8769 18.5303C14.712 18.6528 14.6296 18.8569 14.712 19.0609C15.1659 20.612 16.8177 21.1426 18.0977 20.163C18.2626 20.0813 18.3451 19.8364 18.2626 19.6324Z" fill="#174940"/>
<path d="M1.70624 18.8975C2.20175 18.6934 2.69726 18.8566 2.98624 19.3056C2.44951 19.5097 1.95399 19.3464 1.70624 18.8975ZM0.715223 18.2852C0.549917 18.4077 0.467466 18.6117 0.549915 18.8158C1.0042 20.3668 2.65563 20.8974 3.93563 19.9179C4.10093 19.7954 4.18337 19.5913 4.10092 19.3872C3.68786 17.8362 1.99522 17.3056 0.715223 18.2852Z" fill="#174940"/>
<path d="M12.4 5.14329C12.5241 5.14329 12.6478 5.18411 12.7714 5.26574C13.0196 5.51064 13.4323 5.429 13.5976 5.14329C13.7625 4.81676 14.1343 4.61268 14.5057 4.61268C15.0837 4.61268 15.538 5.06166 15.538 5.63309C15.538 5.9188 15.7857 6.1637 16.0747 6.1637C16.3637 6.1637 16.529 5.9188 16.529 5.63309C16.529 4.49023 15.6208 3.59228 14.4645 3.59228C13.8865 3.59228 13.3498 3.83717 12.978 4.20452C12.8131 4.12289 12.6065 4.08207 12.4 4.08207C12.111 4.08207 11.8633 4.32697 11.8633 4.61268C11.9045 4.89839 12.111 5.14329 12.4 5.14329Z" fill="#174940"/>
<path d="M4.38965 16.8572C4.26598 16.8572 4.1419 16.7347 4.1419 16.6123C4.1419 16.4898 4.26598 16.3674 4.38965 16.3674C4.51374 16.3674 4.63741 16.4898 4.63741 16.6123C4.63741 16.7347 4.55496 16.8572 4.38965 16.8572ZM5.71088 16.6123C5.71088 15.9184 5.13292 15.347 4.43088 15.347C3.72925 15.347 3.15088 15.9184 3.15088 16.6123C3.15088 17.3061 3.72925 17.8776 4.43088 17.8776C5.13292 17.8776 5.71088 17.3061 5.71088 16.6123Z" fill="#174940"/>
<path d="M2.61438 2.57186C2.90336 2.57186 3.15111 2.81676 3.15111 3.10247C3.15111 3.38819 2.90336 3.63308 2.61438 3.63308C2.3254 3.63308 2.07765 3.34737 2.07765 3.10247C2.07765 2.81676 2.3254 2.57186 2.61438 2.57186ZM2.61438 4.61267C3.48173 4.61267 4.18335 3.9188 4.18335 3.06166C4.18335 2.20452 3.44009 1.55146 2.61438 1.55146C1.78867 1.55146 1.04541 2.24533 1.04541 3.10247C1.04541 3.95961 1.74745 4.61267 2.61438 4.61267Z" fill="#174940"/>
<path d="M21.9374 2.57104C22.3505 2.57104 22.7223 2.89757 22.7223 3.34654C22.7223 3.79552 22.3917 4.12205 21.9374 4.12205C21.4835 4.12205 21.1529 3.79552 21.1529 3.34654C21.1529 2.89757 21.5248 2.57104 21.9374 2.57104ZM21.9374 5.14246C22.9288 5.14246 23.7541 4.32613 23.7541 3.34654C23.7541 2.36696 22.9288 1.55063 21.9374 1.55063C20.9464 1.55063 20.1211 2.36696 20.1211 3.34654C20.1211 4.32613 20.9464 5.14246 21.9374 5.14246Z" fill="#174940"/>
</svg>
