<svg width="27" height="25" viewBox="0 0 27 25" fill="none" xmlns="http://www.w3.org/2000/svg">
<path d="M7.96329 10.131C8.47899 9.91862 8.99468 10.0885 9.29585 10.5558C8.77973 10.7682 8.26404 10.5983 7.96329 10.131ZM6.97523 9.49383C6.80319 9.62126 6.71738 9.83366 6.80319 10.0461C7.27598 11.6603 8.99468 12.2125 10.3268 11.193C10.4989 11.0656 10.5847 10.8532 10.4989 10.6408C10.0261 9.06904 8.26404 8.47433 6.97523 9.49383Z" fill="#174940"/>
<path d="M13.5928 7.03091C13.292 7.49818 12.8197 7.6681 12.2607 7.4557C12.3898 7.24331 13.0771 6.81852 13.5928 7.03091ZM11.2726 8.09289C12.6047 9.11239 14.3234 8.56016 14.7962 6.94596C14.8391 6.73356 14.7962 6.52117 14.6242 6.39373C13.292 5.37423 11.5733 5.96894 11.1005 7.54066C11.0147 7.75306 11.1006 7.96545 11.2726 8.09289Z" fill="#174940"/>
<path d="M11.0573 23.4268V22.8746H11.573V23.4268H11.0573ZM3.5372 23.4268V22.8746H4.0958V23.4268H3.5372ZM9.98297 22.8746V23.4268H5.12719V22.8746H9.98297ZM2.46291 20.7506H12.6902V21.8126C10.5845 21.8126 4.6115 21.8126 2.46291 21.8126V20.7506ZM4.61149 18.6267H10.5416V19.6886H4.61149V18.6267ZM2.9786 16.7576C2.9786 16.3328 3.32226 15.9505 3.79505 15.9505H11.3151C11.7446 15.9505 12.1316 16.2903 12.1316 16.7576C12.1316 17.2249 11.7879 17.5647 11.3151 17.5647H3.79505C3.32226 17.5647 2.9786 17.2249 2.9786 16.7576ZM20.4681 21.3028H20.8117V23.4268H20.4681V21.3028ZM19.6083 18.2019H21.9718C22.6596 19.009 23.4331 19.6462 24.2067 20.2409C22.7454 20.2409 19.0497 20.2409 17.6747 20.2409C18.4482 19.6462 19.093 18.924 19.6083 18.2019ZM19.6945 15.3558H21.8431C22.4446 16.0354 23.1319 16.6301 23.7768 17.1399C21.5853 17.1399 19.9524 17.1399 18.0187 17.1399C18.6631 16.6301 19.2646 15.9505 19.6945 15.3558ZM19.7803 12.6796H21.7573C22.3155 13.3168 22.9174 13.8265 23.5189 14.2938C21.5853 14.2938 19.2646 14.2938 18.2337 14.2938C18.8352 13.8265 19.3509 13.2318 19.7803 12.6796ZM20.683 9.06888C21.1554 9.74854 21.9718 10.7256 23.089 11.6176C22.6162 11.6176 19.3075 11.6176 18.6202 11.6176C19.5225 10.8105 20.2531 9.74854 20.683 9.06888ZM26.097 23.4268H21.886V21.3028H26.097C26.3548 21.3028 26.5698 21.1329 26.6127 20.8781C26.656 20.6232 26.5698 20.4108 26.3119 20.2833C25.3239 19.7736 24.3354 19.0939 23.4331 18.2019H25.6675C25.9254 18.2019 26.1403 18.032 26.1832 17.7771C26.2261 17.5222 26.1403 17.3098 25.882 17.1824C24.9798 16.7151 24.1204 16.1204 23.304 15.3133H25.3668C25.6246 15.3133 25.8391 15.1434 25.882 14.8885C25.9254 14.6336 25.8391 14.4212 25.5813 14.2938C24.7653 13.869 23.9488 13.3168 23.2182 12.5946H24.894C25.1518 12.5946 25.3668 12.4247 25.4097 12.1698C25.4526 11.915 25.3668 11.7026 25.1089 11.5751C22.5733 10.3008 21.0696 7.70955 21.0696 7.66707C20.8546 7.28476 20.296 7.32723 20.124 7.70955C19.6516 8.72904 18.0187 11.3627 16.2567 11.5327C15.956 11.5751 15.741 11.7875 15.7843 12.0849C15.7843 12.3822 16.0418 12.5946 16.2996 12.5946H18.3624C17.6746 13.4017 16.7724 14.1239 15.8272 14.2088C15.5265 14.2513 15.3115 14.4637 15.3545 14.7611C15.3545 15.0584 15.6123 15.2708 15.8701 15.2708H18.3195C17.5459 16.1629 16.6004 16.97 15.5265 17.0549C15.2253 17.0974 15.0108 17.3098 15.0537 17.6072C15.0537 17.9045 15.3115 18.1169 15.5694 18.1169H18.1904C17.331 19.0939 16.2567 20.0285 15.0966 20.1559C14.7958 20.1984 14.5809 20.4108 14.6238 20.7081C14.6238 21.0055 14.8817 21.2179 15.1395 21.2179H19.3509V23.3418H12.6473V22.8746H13.2059C13.5066 22.8746 13.7645 22.6197 13.7645 22.3223V20.1984C13.7645 19.901 13.5066 19.6462 13.2059 19.6462H11.573V18.6267C12.4752 18.4992 13.2059 17.7346 13.2059 16.8001C13.2059 15.8655 12.5185 15.1009 11.573 14.9735V14.3788C11.573 14.0814 11.3151 13.8265 11.0144 13.8265C10.7132 13.8265 10.4558 14.0814 10.4558 14.3788V14.931H4.61149V14.3788C4.61149 14.0814 4.35365 13.8265 4.0529 13.8265C3.75215 13.8265 3.4943 14.0814 3.4943 14.3788V14.931C2.59162 15.0584 1.8614 15.823 1.8614 16.7576C1.8614 17.6921 2.54871 18.4567 3.4943 18.5842V19.6462H1.8614C1.56065 19.6462 1.30281 19.901 1.30281 20.1984V22.3223C1.30281 22.6197 1.56065 22.8746 1.8614 22.8746H2.42V23.4268H1.34571C1.04496 23.4268 0.787109 23.6817 0.787109 23.979C0.787109 24.2764 1.04496 24.5312 1.34571 24.5312C4.0529 24.5312 23.5618 24.5312 26.0541 24.5312C26.3548 24.5312 26.6127 24.2764 26.6127 23.979C26.6127 23.6392 26.3548 23.4268 26.097 23.4268Z" fill="#174940"/>
<path d="M1.38887 5.88367H3.53746C3.83822 5.88367 4.09606 5.62879 4.09606 5.33144C4.09606 4.73673 4.56885 4.26946 5.17036 4.26946C5.77186 4.26946 6.24465 4.73673 6.24465 5.33144C6.24465 5.62879 6.5025 5.88367 6.80325 5.88367H10.0261C10.3269 5.88367 10.5847 5.62879 10.5847 5.33144C10.5847 5.03409 10.3269 4.77921 10.0261 4.77921H7.27604C7.01819 3.84467 6.20175 3.16501 5.21326 3.16501C4.2252 3.16501 3.36543 3.84467 3.15091 4.77921H1.47468C1.17393 4.77921 0.916504 5.03409 0.916504 5.33144C0.916504 5.62879 1.08812 5.88367 1.38887 5.88367Z" fill="#174940"/>
<path d="M18.5776 2.69763H19.6519C19.9526 2.69763 20.2101 2.44276 20.2101 2.1454C20.2101 1.84805 20.4683 1.59318 20.7691 1.59318C21.0698 1.59318 21.3277 1.84805 21.3277 2.1454C21.3277 2.44276 21.5855 2.69763 21.8863 2.69763H25.6678C25.9685 2.69763 26.2264 2.44276 26.2264 2.1454C26.2264 1.84805 25.9685 1.59318 25.6678 1.59318H22.3591C22.1441 0.955991 21.5426 0.5312 20.8549 0.5312C20.1672 0.5312 19.5656 0.955991 19.3511 1.59318H18.7063C18.4055 1.59318 18.1477 1.84805 18.1477 2.1454C18.019 2.44276 18.2768 2.69763 18.5776 2.69763Z" fill="#174940"/>
<path d="M16.9444 1.63554C17.2532 1.63554 17.5034 1.88276 17.5034 2.18776C17.5034 2.49276 17.2532 2.73999 16.9444 2.73999C16.636 2.73999 16.3862 2.49276 16.3862 2.18776C16.3862 1.88276 16.636 1.63554 16.9444 1.63554Z" fill="#174940"/>
<path d="M4.61182 0.574012C4.92022 0.574012 5.17042 0.82124 5.17042 1.12624C5.17042 1.43124 4.92022 1.67847 4.61182 1.67847C4.30342 1.67847 4.05322 1.43124 4.05322 1.12624C4.05322 0.82124 4.30342 0.574012 4.61182 0.574012Z" fill="#174940"/>
<path d="M18.0191 5.3317C18.3275 5.3317 18.5777 5.57893 18.5777 5.88393C18.5777 6.18893 18.3275 6.43616 18.0191 6.43616C17.7102 6.43616 17.4604 6.18893 17.4604 5.88393C17.4604 5.57893 17.7102 5.3317 18.0191 5.3317Z" fill="#174940"/>
<path d="M14.2803 10.1318C14.5887 10.1318 14.8389 10.379 14.8389 10.684C14.8389 10.989 14.5887 11.2362 14.2803 11.2362C13.9715 11.2362 13.7217 10.989 13.7217 10.684C13.7217 10.379 13.9715 10.1318 14.2803 10.1318Z" fill="#174940"/>
<path d="M2.46339 10.6408C2.77178 10.6408 3.02199 10.888 3.02199 11.193C3.02199 11.498 2.77178 11.7452 2.46339 11.7452C2.15499 11.7452 1.90479 11.498 1.90479 11.193C1.90479 10.888 2.15499 10.6408 2.46339 10.6408Z" fill="#174940"/>
<path d="M4.05323 8.00736C4.36163 8.00736 4.61182 8.25459 4.61182 8.55959C4.61182 8.86459 4.36163 9.11182 4.05323 9.11182C3.74483 9.11182 3.49463 8.86459 3.49463 8.55959C3.49463 8.25459 3.74483 8.00736 4.05323 8.00736Z" fill="#174940"/>
<path d="M10.2408 1.63604C10.3695 1.63604 10.4987 1.76348 10.4987 1.89091C10.4987 2.01835 10.3695 2.14579 10.2408 2.14579C10.1117 2.14579 9.98298 2.01835 9.98298 1.89091C9.98298 1.76348 10.0688 1.63604 10.2408 1.63604ZM10.2408 3.25024C10.971 3.25024 11.573 2.65554 11.573 1.93339C11.573 1.21125 10.971 0.616543 10.2408 0.616543C9.51019 0.616543 8.90869 1.21125 8.90869 1.93339C8.90869 2.65554 9.51019 3.25024 10.2408 3.25024Z" fill="#174940"/>
<path d="M24.4649 6.43609C24.4649 6.73344 24.2071 6.98832 23.9059 6.98832C23.6052 6.98832 23.3473 6.73344 23.3473 6.43609C23.3473 6.13874 23.6052 5.88386 23.9059 5.88386C24.2071 5.88386 24.4649 6.13874 24.4649 6.43609ZM22.3159 6.43609C22.3159 7.32815 23.0466 8.05029 23.9492 8.05029C24.8515 8.05029 25.5817 7.32815 25.5817 6.43609C25.5817 5.54403 24.8515 4.82189 23.9492 4.82189C23.0466 4.82189 22.3159 5.54403 22.3159 6.43609Z" fill="#174940"/>
</svg>
