<svg width="41" height="40" viewBox="0 0 41 40" fill="none" xmlns="http://www.w3.org/2000/svg">
<path d="M8.95275 20.1069C9.73427 20.1069 10.303 20.7461 10.303 21.4571C10.303 22.2379 9.66309 22.8066 8.95275 22.8066C8.17123 22.8066 7.60254 22.1675 7.60254 21.4571C7.60254 20.7461 8.17123 20.1069 8.95275 20.1069Z" fill="#C2E3F7"/>
<path d="M25.6493 17.8322C26.502 17.8322 27.2836 18.5432 27.2836 19.4671C27.2836 20.3902 26.5732 21.1006 25.6493 21.1006C24.7255 21.1006 24.0151 20.3902 24.0151 19.4671C24.0151 18.5432 24.7255 17.8322 25.6493 17.8322Z" fill="#C2E3F7"/>
<path d="M24.5128 7.31766C25.7206 7.31766 26.715 8.3127 26.715 9.52057C26.715 10.7277 25.7206 11.7939 24.5128 11.7939C23.8024 11.7939 23.1625 11.4388 22.7362 10.8708C22.4522 10.5149 22.3105 10.0181 22.3105 9.52057C22.3105 8.3127 23.3049 7.31766 24.5128 7.31766Z" fill="#C2E3F7"/>
<path d="M16.7676 22.4524C17.9755 22.4524 18.9705 23.4467 18.9705 24.6546C18.9705 25.8632 17.9755 26.8574 16.7676 26.8574C15.5598 26.8574 14.5654 25.8632 14.5654 24.6546C14.5654 23.4467 15.5598 22.4524 16.7676 22.4524Z" fill="#C2E3F7"/>
<path d="M9.45047 7.31766C10.6576 7.31766 11.6527 8.3127 11.6527 9.52057C11.6527 10.7277 10.6576 11.7939 9.45047 11.7939C8.2426 11.7939 7.24756 10.7989 7.24756 9.59104C7.24756 8.3127 8.2426 7.31766 9.45047 7.31766Z" fill="#C2E3F7"/>
<path d="M16.7678 11.7954C18.9707 11.7954 20.7466 13.572 20.7466 15.7742C20.7466 17.9771 18.9707 19.7529 16.7678 19.7529C14.5656 19.7529 12.7891 17.9771 12.7891 15.7742C12.7891 13.572 14.5656 11.7954 16.7678 11.7954Z" fill="#C2E3F7"/>
<path d="M23.4466 10.3019C23.7313 10.6571 24.0865 10.8706 24.5128 10.8706C25.2231 10.8706 25.863 10.3019 25.863 9.52041C25.863 8.81006 25.2943 8.17019 24.5128 8.17019C23.8025 8.17019 23.1626 8.73818 23.1626 9.52041C23.1626 9.80441 23.3049 10.0884 23.4466 10.3019ZM24.5128 12.6465C23.5178 12.6465 22.6651 12.2201 22.0259 11.4386C21.5995 10.8706 21.3867 10.23 21.3867 9.59088C21.3867 7.88549 22.8074 6.4655 24.5128 6.4655C26.2182 6.4655 27.6389 7.88549 27.6389 9.59088C27.6389 11.2963 26.2182 12.6465 24.5128 12.6465Z" fill="#4A43DD"/>
<path d="M9.45079 8.24136C8.73974 8.24136 8.10056 8.81006 8.10056 9.59088C8.10056 10.3019 8.66927 10.9411 9.45079 10.9411C10.1611 10.9411 10.8003 10.3724 10.8003 9.59088C10.8003 8.81006 10.1611 8.24136 9.45079 8.24136ZM9.45079 12.6465C7.7454 12.6465 6.32471 11.2251 6.32471 9.52041C6.32471 7.81502 7.7454 6.39362 9.45079 6.39362C11.1555 6.39362 12.5769 7.81502 12.5769 9.52041C12.5769 11.2963 11.1555 12.6465 9.45079 12.6465Z" fill="#4A43DD"/>
<path d="M8.9528 21.0309C8.6688 21.0309 8.45527 21.2437 8.45527 21.5284C8.45527 21.8124 8.6688 22.0259 8.9528 22.0259C9.2368 22.0259 9.45033 21.8124 9.45033 21.5284C9.45033 21.2437 9.2368 21.0309 8.9528 21.0309ZM8.9528 23.8018C7.67376 23.8018 6.67871 22.8067 6.67871 21.5284C6.67871 20.2486 7.67376 19.2543 8.9528 19.2543C10.2311 19.2543 11.2262 20.2486 11.2262 21.5284C11.2262 22.8067 10.2311 23.8018 8.9528 23.8018Z" fill="#4A43DD"/>
<path d="M23.7313 26.0036C23.4466 26.0036 23.1626 26.2876 23.1626 26.5723C23.1626 26.8562 23.4466 27.1403 23.7313 27.1403C24.0153 27.1403 24.2993 26.8562 24.2993 26.5723C24.2993 26.2876 24.0153 26.0036 23.7313 26.0036ZM23.7313 27.7803C23.0914 27.7803 22.5234 27.2116 22.5234 26.5723C22.5234 25.9331 23.0914 25.3644 23.7313 25.3644C24.3705 25.3644 24.9392 25.9331 24.9392 26.5723C24.9392 27.2116 24.3705 27.7803 23.7313 27.7803Z" fill="#4A43DD"/>
<path d="M16.7683 5.47148C16.4843 5.47148 16.2708 5.68501 16.2708 5.96971C16.2708 6.25371 16.4843 6.46723 16.7683 6.46723C17.053 6.46723 17.2658 6.25371 17.2658 5.96971C17.2658 5.68501 17.053 5.47148 16.7683 5.47148ZM16.7683 7.24805C16.0579 7.24805 15.4893 6.67935 15.4893 5.96971C15.4893 5.25937 16.0579 4.69067 16.7683 4.69067C17.4793 4.69067 18.0473 5.25937 18.0473 5.96971C18.0473 6.67935 17.4793 7.24805 16.7683 7.24805Z" fill="#4A43DD"/>
<path d="M25.6495 18.6865C25.2232 18.6865 24.9392 19.0417 24.9392 19.3976C24.9392 19.8239 25.2943 20.1079 25.6495 20.1079C26.0759 20.1079 26.3599 19.7528 26.3599 19.3976C26.3599 19.0417 26.0047 18.6865 25.6495 18.6865ZM25.6495 21.8838C24.2993 21.8838 23.1626 20.7471 23.1626 19.3976C23.1626 18.0474 24.2993 16.9107 25.6495 16.9107C26.999 16.9107 28.1364 18.0474 28.1364 19.3976C28.1364 20.8183 26.999 21.8838 25.6495 21.8838Z" fill="#4A43DD"/>
<path d="M16.7681 12.6471C15.0627 12.6471 13.6421 14.0678 13.6421 15.7731C13.6421 17.4785 15.0627 18.8992 16.7681 18.8992C18.4735 18.8992 19.8942 17.4785 19.8942 15.7731C19.8942 14.0678 18.4735 12.6471 16.7681 12.6471ZM16.7681 20.6758C14.0684 20.6758 11.8662 18.4729 11.8662 15.7731C11.8662 13.0734 14.0684 10.8712 16.7681 10.8712C19.4679 10.8712 21.6708 13.0734 21.6708 15.7731C21.6708 18.4729 19.4679 20.6758 16.7681 20.6758Z" fill="#4A43DD"/>
<path d="M16.7677 23.3038C16.0573 23.3038 15.4182 23.8725 15.4182 24.6534C15.4182 25.3644 15.9861 26.0036 16.7677 26.0036C17.4787 26.0036 18.1179 25.4356 18.1179 24.6534C18.1179 23.943 17.5492 23.3038 16.7677 23.3038ZM16.7677 27.7803C15.0623 27.7803 13.6416 26.3587 13.6416 24.6534C13.6416 22.9487 15.0623 21.528 16.7677 21.528C18.4731 21.528 19.8938 22.9487 19.8938 24.6534C19.8938 26.3587 18.4731 27.7803 16.7677 27.7803Z" fill="#4A43DD"/>
<path d="M16.7679 23.3037C16.2704 23.3037 15.8447 22.8774 15.8447 22.3805V19.6801C15.8447 19.1826 16.2704 18.7562 16.7679 18.7562C17.2654 18.7562 17.6918 19.1826 17.6918 19.6801V22.451C17.6918 22.9485 17.2654 23.3037 16.7679 23.3037Z" fill="#4A43DD"/>
<path d="M20.1081 13.9971C19.8241 13.9971 19.6105 13.8554 19.3977 13.7131C19.113 13.3579 19.113 12.7892 19.5393 12.434L22.2398 10.2311C22.3814 10.0895 22.595 10.019 22.8078 10.019C23.3053 10.019 23.7316 10.4446 23.7316 10.9422C23.7316 11.2262 23.5893 11.5109 23.3765 11.6525L20.7472 13.8554C20.4632 13.9259 20.2497 13.9971 20.1081 13.9971Z" fill="#4A43DD"/>
<path d="M13.4291 13.9971C13.2156 13.9971 13.0739 13.9259 12.8604 13.7836L10.6575 12.0077C10.303 11.7237 10.2311 11.1557 10.5158 10.7286C10.7998 10.3735 11.3685 10.303 11.7949 10.587L13.9971 12.3636C14.3523 12.6476 14.4234 13.2163 14.1395 13.6419C13.9266 13.8554 13.6419 13.9971 13.4291 13.9971Z" fill="#4A43DD"/>
<path d="M36.0227 40C34.9571 40 33.8909 39.5739 33.1094 38.7929L25.2942 30.977C24.939 30.6219 24.939 30.0532 25.2942 29.6981C25.6494 29.3422 26.2181 29.3422 26.5733 29.6981L34.3884 37.5132C34.8148 37.9404 35.3828 38.2242 36.0227 38.2242C36.6618 38.2242 37.2305 38.0109 37.6569 37.5132C38.0832 37.0876 38.3672 36.5189 38.3672 35.8797C38.3672 35.2399 38.1544 34.6718 37.6569 34.2448L29.8417 26.4303C29.4858 26.0744 29.4858 25.5057 29.8417 25.1506C30.1969 24.7954 30.7649 24.7954 31.12 25.1506L38.9359 32.9665C39.7174 33.7471 40.1438 34.743 40.1438 35.8797C40.1438 36.9452 39.7174 38.0109 38.9359 38.7929C38.1544 39.5739 37.0882 40 36.0227 40Z" fill="#4A43DD"/>
<path d="M16.9813 1.70449C12.9314 1.70449 9.09494 3.26753 6.18168 6.10961C3.26842 9.02216 1.70539 12.7881 1.70539 16.9092C1.70539 21.0304 3.3396 24.7956 6.18168 27.7089C9.09494 30.6221 12.8602 32.1851 16.9813 32.1851C19.965 32.1851 22.8783 31.3326 25.3652 29.627C26.2179 29.0591 26.9987 28.4191 27.7097 27.7089C28.4201 26.9978 29.06 26.217 29.628 25.3643C33.6067 19.325 32.8252 11.2962 27.7097 6.18078C24.8677 3.26753 21.0312 1.70449 16.9813 1.70449ZM16.9813 33.9609C12.4338 33.9609 8.17107 32.1851 4.97382 28.9878C1.77657 25.7899 0 21.5279 0 16.9797C0 12.4329 1.77657 8.17017 4.97382 4.97292C8.17107 1.77567 12.4338 -0.000198364 16.9813 -0.000198364C21.5281 -0.000198364 25.7915 1.77567 28.9888 4.97292C31.7597 7.74382 33.5356 11.4386 33.8907 15.4174C34.2466 19.2538 33.2516 23.2333 31.1198 26.4305C30.4807 27.3538 29.7703 28.2776 28.9888 29.0583C28.2073 29.8397 27.2834 30.6221 26.3595 31.19C23.5886 32.9667 20.3202 33.9609 16.9813 33.9609Z" fill="#4A43DD"/>
</svg>
