<svg width="40" height="40" viewBox="0 0 40 40" fill="none" xmlns="http://www.w3.org/2000/svg">
<path d="M26.124 28.8243C25.8516 28.8243 25.5792 28.6876 25.3744 28.4146C25.1021 28.0063 25.2379 27.4609 25.6468 27.2561L27.7596 25.9611V24.1897L26.124 23.3719L24.4884 24.1897V26.5065C24.4884 26.9839 24.0795 27.3925 23.603 27.3925C23.1258 27.3925 22.7852 26.9839 22.7852 26.5065V23.6449C22.7852 23.3043 22.9893 23.0312 23.2617 22.8954L25.7833 21.6687C26.0557 21.5328 26.3288 21.5328 26.5329 21.6687L29.0546 22.8954C29.327 23.0312 29.5311 23.3043 29.5311 23.6449V26.3708C29.5311 26.643 29.3952 26.9155 29.1222 27.1203L26.6012 28.6876C26.4646 28.7551 26.3288 28.8243 26.124 28.8243Z" fill="white"/>
<path d="M19.7869 17.7179C19.6505 17.7179 19.5143 17.6503 19.3777 17.582L16.8565 16.1512C16.5839 16.0147 16.4478 15.7416 16.4478 15.401V12.5393C16.4478 12.1987 16.6521 11.9263 16.9245 11.7898L19.4459 10.5631C19.8544 10.3583 20.3999 10.4955 20.604 10.972C20.8088 11.3809 20.6722 11.9263 20.1958 12.1304L18.1512 13.1523V14.9238L19.7869 15.8781L21.4218 14.8562V12.5393C21.4218 12.0622 21.8307 11.6532 22.3079 11.6532C22.785 11.6532 23.1939 12.0622 23.1939 12.5393V15.2651C23.1939 15.5382 23.0574 15.8106 22.785 16.0147L20.2633 17.582C20.1275 17.6503 19.991 17.7179 19.7869 17.7179Z" fill="white"/>
<path d="M13.5178 33.0498C13.3816 33.0498 13.2451 32.9809 13.1089 32.9126L6.77147 29.3014C6.49903 29.1656 6.36304 28.8924 6.36304 28.5518V21.3288C6.36304 20.9881 6.56708 20.7158 6.83987 20.5786L13.1772 17.4445C13.5859 17.2404 14.1312 17.3763 14.3355 17.8534C14.5398 18.2623 14.4036 18.8071 13.9265 19.0119L8.06645 21.9418V28.2112L13.5178 31.3459L19.4462 27.7341C19.8548 27.4617 20.4002 27.5974 20.6044 28.0071C20.8774 28.4153 20.7409 28.9608 20.332 29.1656L13.9265 32.9126C13.7903 32.9809 13.654 33.0498 13.5178 33.0498Z" fill="white"/>
<path d="M13.5174 28.8243C13.3812 28.8243 13.2447 28.7551 13.1085 28.6876L10.5871 27.2561C10.3147 27.1203 10.1787 26.8479 10.1787 26.5065V23.6449C10.1787 23.3043 10.3828 23.0312 10.6555 22.8954L13.1768 21.6687C13.4493 21.5328 13.7221 21.5328 13.9261 21.6687L16.4477 22.8954C16.8564 23.0995 17.0608 23.6449 16.8564 24.0538C16.652 24.4627 16.1072 24.6668 15.6982 24.4627L13.5855 23.4408L11.9502 24.2586V26.0977L13.5855 27.0519L15.6298 25.7577C16.0388 25.4847 16.5839 25.6205 16.7883 26.0301C17.0608 26.4384 16.9245 26.9839 16.5156 27.1885L13.9261 28.6876C13.7899 28.7551 13.6537 28.8243 13.5174 28.8243Z" fill="white"/>
<path d="M0.843269 32.7093C0.502695 32.7093 0.230247 32.5052 0.0937204 32.2327C-0.110327 31.8232 0.0258642 31.2786 0.502695 31.0745L6.84011 27.9396C7.24902 27.7349 7.79425 27.8715 7.99829 28.3486C8.20268 28.7567 8.06669 29.3022 7.58959 29.5062L1.18438 32.6411C1.11598 32.6411 0.979796 32.7093 0.843269 32.7093Z" fill="white"/>
<path d="M26.1246 39.6594C25.6474 39.6594 25.2385 39.2505 25.2385 38.7734V32.6406C25.2385 32.164 25.6474 31.7551 26.1246 31.7551C26.6018 31.7551 27.0107 32.164 27.0107 32.6406V38.7734C27.0107 39.3188 26.6018 39.6594 26.1246 39.6594Z" fill="white"/>
<path d="M13.5178 40C13.0411 40 12.6321 39.591 12.6321 39.1137V32.4355C12.6321 31.9589 13.0411 31.5499 13.5178 31.5499C13.9949 31.5499 14.4036 31.9589 14.4036 32.4355V39.1137C14.3355 39.591 13.9265 40 13.5178 40Z" fill="white"/>
<path d="M38.7991 32.7093C38.6626 32.7093 38.5268 32.7093 38.3902 32.6411L32.0532 29.5062C31.6443 29.3022 31.4395 28.7567 31.6443 28.3486C31.8484 27.9396 32.3939 27.7349 32.8028 27.9396L39.1398 31.0745C39.5487 31.2786 39.7528 31.8232 39.5487 32.2327C39.4122 32.5052 39.1398 32.7093 38.7991 32.7093Z" fill="white"/>
<path d="M26.1244 11.5855C25.7837 11.5855 25.5114 11.3807 25.3748 11.1083C25.1707 10.6987 25.3066 10.1547 25.7837 9.94986L32.1208 6.81515C32.5297 6.61104 33.0751 6.74688 33.2792 7.22405C33.484 7.63296 33.3475 8.17771 32.871 8.3825L26.5333 11.5165C26.3974 11.5855 26.2609 11.5855 26.1244 11.5855Z" fill="white"/>
<path d="M32.4616 22.1474C32.1892 22.1474 31.8486 22.0115 31.7121 21.7385C31.5079 21.3296 31.6445 20.7841 32.0534 20.5793L38.3904 17.0364C38.7993 16.8323 39.344 16.9688 39.5488 17.377C39.753 17.7866 39.6171 18.3314 39.2082 18.5355L32.8712 22.0791C32.7347 22.1474 32.5981 22.1474 32.4616 22.1474Z" fill="white"/>
<path d="M7.18067 22.4879C7.04441 22.4879 6.90795 22.4197 6.7717 22.3521L0.434273 18.7402C0.0258417 18.5354 -0.110347 17.99 0.0936995 17.5818C0.298084 17.1722 0.843249 17.0363 1.25222 17.2411L7.58957 20.8523C7.99827 21.0571 8.1348 21.6019 7.93042 22.0114C7.72583 22.3521 7.45338 22.4879 7.18067 22.4879Z" fill="white"/>
<path d="M13.518 11.5855C13.3818 11.5855 13.2453 11.5855 13.1091 11.5165L6.77167 8.3825C6.36324 8.17771 6.15865 7.63296 6.36323 7.22405C6.56728 6.81515 7.11278 6.61104 7.52148 6.81515L13.8588 9.94986C14.2678 10.1547 14.4722 10.6987 14.2678 11.1083C14.1313 11.4489 13.7905 11.5855 13.518 11.5855Z" fill="white"/>
<path d="M26.1243 33.0498C25.9885 33.0498 25.8519 32.9809 25.7154 32.9126L19.3782 29.3014C19.1057 29.1656 18.9695 28.8924 18.9695 28.5518V21.3288C18.9695 20.8516 19.3782 20.4427 19.8549 20.4427C20.3321 20.4427 20.741 20.8516 20.741 21.3288V28.0747L26.1926 31.2093L31.7118 27.8023V21.806L25.8519 18.8754C25.443 18.6712 25.2382 18.1265 25.443 17.7169C25.6471 17.3087 26.1926 17.1039 26.6015 17.3087L32.9385 20.4427C33.2115 20.5786 33.4157 20.8516 33.4157 21.1929V28.2112C33.4157 28.4842 33.2791 28.7559 33.0068 28.9608L26.6697 32.845C26.465 32.9809 26.3291 33.0498 26.1243 33.0498Z" fill="white"/>
<path d="M14.3355 17.5818L19.7873 20.307L25.2382 17.5818V10.9718L19.7873 7.83705L14.2677 11.2441L14.3355 17.5818ZM19.7873 22.1474C19.651 22.1474 19.5147 22.1474 19.3782 22.0791L13.0411 18.9451C12.7683 18.8079 12.5637 18.5355 12.5637 18.1948V10.7676C12.5637 10.4953 12.7 10.2222 12.9727 10.0181L19.3101 6.13316C19.5826 5.99731 19.9231 5.99731 20.1962 6.13316L26.5332 9.74504C26.8056 9.88157 26.9421 10.1546 26.9421 10.4953V18.1273C26.9421 18.4672 26.738 18.7403 26.4649 18.8761L20.1279 22.0115C20.0597 22.1474 19.9231 22.1474 19.7873 22.1474Z" fill="white"/>
<path d="M19.7873 7.76785C19.3101 7.76785 18.9011 7.35963 18.9011 6.88246V0.886079C18.9011 0.40891 19.3101 6.19888e-06 19.7873 6.19888e-06C20.2638 6.19888e-06 20.6727 0.40891 20.6727 0.886079V6.88246C20.6727 7.35963 20.2638 7.76785 19.7873 7.76785Z" fill="white"/>
<path d="M3.90995 11.0397C3.43311 11.0397 3.02421 11.4486 3.02421 11.9257C3.02421 12.4022 3.43311 12.8111 3.90995 12.8111C4.38705 12.8111 4.79575 12.4022 4.79575 11.9257C4.72789 11.3803 4.31892 11.0397 3.90995 11.0397ZM3.90995 14.4467C2.47898 14.4467 1.3208 13.2883 1.3208 11.8575C1.3208 10.426 2.47898 9.26751 3.90995 9.26751C5.34091 9.26751 6.49943 10.426 6.49943 11.8575C6.4313 13.2883 5.27305 14.4467 3.90995 14.4467Z" fill="white"/>
<path d="M34.983 3.33838C34.7782 3.33838 34.5741 3.54249 34.5741 3.74728C34.5741 3.95208 34.7782 4.15618 34.983 4.15618C35.1871 4.15618 35.3919 3.95208 35.3919 3.74728C35.3919 3.54249 35.1871 3.33838 34.983 3.33838ZM34.983 5.92833C33.8245 5.92833 32.8708 4.974 32.8708 3.81555C32.8708 2.6571 33.8245 1.70276 34.983 1.70276C36.1414 1.70276 37.0951 2.6571 37.0951 3.81555C37.0951 4.974 36.1414 5.92833 34.983 5.92833Z" fill="white"/>
<path d="M4.3182 36.5921C4.11361 36.5921 3.90922 36.7967 3.90922 37.0008C3.90922 37.2048 4.11361 37.4097 4.3182 37.4097C4.52278 37.4097 4.72717 37.2048 4.72717 37.0008C4.72717 36.7286 4.52278 36.5921 4.3182 36.5921ZM4.3182 39.1129C3.15968 39.1129 2.20581 38.1593 2.20581 37.0008C2.20581 35.8423 3.15968 34.8881 4.3182 34.8881C5.47671 34.8881 6.43058 35.8423 6.43058 37.0008C6.43058 38.1593 5.47671 39.1129 4.3182 39.1129Z" fill="white"/>
</svg>
