<svg width="42" height="40" viewBox="0 0 42 40" fill="none" xmlns="http://www.w3.org/2000/svg">
<path d="M17.9856 22.2223C19.1662 22.2223 20.1381 23.1949 20.1381 24.3754C20.1381 25.556 19.1662 26.5285 17.9856 26.5285C16.8051 26.5285 15.8325 25.556 15.8325 24.3754C15.9028 23.1253 16.8051 22.2223 17.9856 22.2223Z" fill="#4A43DD"/>
<path d="M13.7503 15.4166C14.9302 15.4166 15.9034 16.3892 15.9034 17.5698C15.9034 18.7496 14.9302 19.7222 13.7503 19.7222C12.5698 19.7222 11.5979 18.7496 11.5979 17.5698C11.6668 16.3892 12.5698 15.4166 13.7503 15.4166Z" fill="#4A43DD"/>
<path d="M22.6388 16.6668C22.6388 16.4581 22.4302 16.2501 22.2221 16.2501C22.0141 16.2501 21.8054 16.4581 21.8054 16.6668C21.8054 16.8748 22.0141 17.0835 22.2221 17.0835C22.4302 17.0835 22.6388 16.9443 22.6388 16.6668ZM22.2221 13.7498C23.8883 13.7498 25.208 15.0695 25.208 16.7363C25.208 18.4025 23.8883 19.7222 22.2221 19.7222C20.5553 19.7222 19.2356 18.4025 19.2356 16.7363C19.3052 15.0695 20.6249 13.7498 22.2221 13.7498Z" fill="#4A43DD"/>
<path d="M6.9443 11.1803C7.98573 11.1803 8.95827 11.597 9.58368 12.4304L10.2084 13.1247C10.486 13.4023 10.486 13.8886 10.278 14.1661C8.95828 16.041 8.26397 18.1941 8.26397 20.4856C8.26397 23.0548 9.16629 25.4855 10.7642 27.4306C10.9027 27.6379 10.9716 27.8466 10.9716 28.0553C10.9716 28.2633 10.8331 28.4713 10.6244 28.6104L7.01385 31.5274C6.38845 32.0137 5.6253 32.2913 4.79188 32.2913C4.65275 32.2913 4.51361 32.2913 4.37448 32.3608C3.26418 32.5688 2.36049 33.5414 2.29161 34.7213C2.22205 35.4162 2.50033 36.1105 2.98661 36.5961C3.47219 37.1519 4.23603 37.4295 4.93031 37.3606C6.18044 37.2911 7.22188 36.3192 7.29145 35.0684C7.29145 34.9995 7.29145 34.93 7.29145 34.8611C7.29145 33.819 7.7777 32.8471 8.61112 32.2217L11.8746 29.583C12.1528 29.3743 12.5695 29.3047 12.9167 29.5134C14.7915 30.7629 16.9439 31.4578 19.1666 31.4578C21.319 31.4578 23.4026 30.8324 25.2078 29.6519C25.555 29.4439 26.0413 29.5134 26.3195 29.791L28.9582 32.8471C29.2358 33.1942 29.3742 33.5414 29.3742 34.0277C29.3742 34.9995 30.2076 35.7634 31.1802 35.6938C32.0136 35.6242 32.7079 34.93 32.7775 34.1661C32.8464 33.2631 32.2216 32.4993 31.3187 32.3608C30.9026 32.2913 30.4852 32.0826 30.2077 31.7354L27.569 28.68C27.2914 28.3329 27.2914 27.8466 27.569 27.569C28.7495 26.1798 29.5829 24.5832 29.9301 22.7772C29.9996 22.3605 30.4164 22.0829 30.8331 22.0829L32.0136 22.1525C33.1239 22.2214 34.1661 22.8468 34.7219 23.8186C34.8603 24.0273 34.9995 24.2354 35.2082 24.3745C35.6938 24.7905 36.2496 25.0688 36.9439 25.0688C37.5693 25.0688 38.194 24.8608 38.61 24.4441C39.1659 23.9578 39.4434 23.2635 39.4434 22.5685C39.4434 21.8053 39.0963 21.1799 38.5411 20.6937C38.0555 20.2776 37.4997 20.069 36.875 20.069C36.3192 20.069 35.7633 20.2776 35.3466 20.6248C35.277 20.6937 35.2082 20.7632 35.1379 20.7632C34.4436 21.3886 33.6102 21.7358 32.7079 21.7358C32.6383 21.7358 32.4992 21.7358 32.4303 21.7358L30.9026 21.5966C30.4852 21.5966 30.1381 21.2495 30.0692 20.8328C29.9996 20.2776 29.1662 15.6938 28.0552 14.0966C27.7777 13.7494 27.8465 13.1943 28.1937 12.916L30.5555 11.0412C31.1802 10.4853 32.0832 10.2773 32.9855 10.2773C33.1239 10.2773 33.2638 10.2773 33.4022 10.2773C34.3747 10.1389 35.2082 9.30546 35.2771 8.33291C35.3466 7.77707 35.1379 7.15236 34.7219 6.73565C34.3052 6.31894 33.75 6.04136 33.1942 6.04136C32.2216 6.04136 31.3882 6.66677 31.1802 7.56907C30.9715 8.26336 30.5555 8.88876 29.9997 9.37503L27.0827 11.7355C26.7355 12.0137 26.3195 12.0137 25.9717 11.7355C24.0273 10.2078 21.6668 9.37503 19.1666 9.37503C16.6663 9.37503 14.3052 10.2078 12.3608 11.7355C12.0137 12.0137 11.4578 11.9442 11.1803 11.597L11.2498 11.6666C10.4164 10.694 10.2084 9.4439 10.6244 8.26334C10.7642 7.77776 10.8331 7.29149 10.8331 6.80521C10.7642 4.58323 8.88871 2.77795 6.66604 2.70769H6.59716C4.30561 2.70769 2.36049 4.58323 2.36049 6.94435C2.36049 9.30547 4.23604 11.1803 6.59716 11.1803C6.66604 11.1803 6.73628 11.1803 6.80584 11.1803C6.87472 11.1803 6.9443 11.1803 6.9443 11.1803ZM4.86076 39.1666C3.6802 39.1666 2.5692 38.6803 1.73578 37.8469C0.902365 37.0135 0.486336 35.8329 0.555214 34.6524C0.694346 32.708 2.15317 31.0411 4.09689 30.694C4.30559 30.6244 4.58319 30.6244 4.79188 30.6244C5.2079 30.6244 5.55573 30.4853 5.90287 30.2077L8.81913 27.8466C7.29212 25.6942 6.4587 23.1243 6.4587 20.4856C6.4587 18.055 7.15231 15.7634 8.40244 13.6806L8.33285 13.4719C7.98571 13.0552 7.43058 12.8471 6.9443 12.8471C6.80586 12.8471 6.73629 12.8471 6.59716 12.8471C3.33306 12.8471 0.624797 10.2078 0.624797 6.87478C0.624797 3.54111 3.33306 0.902416 6.66604 0.902416C8.19443 0.902416 9.65256 1.52782 10.7642 2.63881C11.8746 3.74981 12.5 5.13838 12.5695 6.66677C12.5695 7.36105 12.5 8.05534 12.2913 8.74962C12.1528 9.09677 12.1528 9.51347 12.2913 9.86061C14.3748 8.47204 16.8055 7.70819 19.3753 7.70819C22.014 7.70819 24.5136 8.47204 26.666 9.99974L29.0966 8.05533C29.3742 7.84663 29.5829 7.4995 29.7221 7.15236C30.2076 5.48621 31.7361 4.37452 33.4022 4.37452C34.4436 4.37452 35.4857 4.79123 36.18 5.55508C36.9439 6.31893 37.291 7.36105 37.2221 8.40248C37.083 10.2773 35.6937 11.7355 33.8189 11.9442C33.6102 11.9442 33.3326 11.9442 33.1239 11.9442C32.6383 11.9442 32.2216 12.0137 31.9441 12.2913L30.2077 13.6806C31.1802 15.4858 31.8049 18.4021 32.0136 19.8609L32.8464 19.9298C33.3326 19.9994 33.8189 19.7914 34.2356 19.4442C34.3052 19.3747 34.4436 19.2355 34.5834 19.166C35.3466 18.6108 36.2496 18.2637 37.2221 18.2637C38.2629 18.2637 39.2354 18.6108 39.9993 19.3051C40.9022 20.1385 41.4574 21.2495 41.4574 22.4996C41.4574 23.7498 40.9718 24.9303 40.0688 25.6942C39.305 26.3885 38.2629 26.8052 37.2221 26.8052C36.1105 26.8052 35.1379 26.3885 34.3052 25.6942C34.0276 25.4166 33.75 25.0688 33.5413 24.7216C33.2638 24.2353 32.7775 23.9578 32.1521 23.8882L31.6658 23.8186C31.2498 25.3463 30.5555 26.7356 29.5829 28.0553L31.7361 30.5549C33.4718 30.8324 34.7908 32.3608 34.6523 34.1661C34.5132 35.9018 33.1942 37.2215 31.4578 37.3606C31.3882 37.3606 31.3187 37.3606 31.2498 37.3606C29.3742 37.3606 27.8465 35.8329 27.8465 33.9574L25.6941 31.4578C23.7497 32.5688 21.5966 33.124 19.3753 33.124C17.0135 33.124 14.7219 32.4993 12.7079 31.2491L9.93082 33.5414C9.51342 33.8878 9.23586 34.3748 9.23586 34.8611C9.23586 34.9995 9.23586 35.0684 9.23586 35.2082C9.02785 37.2911 7.36102 39.0268 5.20791 39.0964C4.9999 39.1666 4.93033 39.1666 4.86076 39.1666Z" fill="white"/>
<path d="M22.222 14.5832C21.0408 14.5832 20.1385 15.5558 20.1385 16.6667C20.1385 17.8473 21.111 18.7496 22.222 18.7496C23.4026 18.7496 24.3056 17.7777 24.3056 16.6667C24.3745 15.5558 23.4026 14.5832 22.222 14.5832ZM22.222 20.5556C20.1385 20.5556 18.4021 18.8192 18.4021 16.7363C18.4021 14.6528 20.1385 12.9164 22.222 12.9164C24.3056 12.9164 26.0413 14.6528 26.0413 16.7363C26.0413 18.8192 24.3745 20.5556 22.222 20.5556Z" fill="white"/>
<path d="M22.222 16.2504C21.9445 16.2504 21.8053 16.4584 21.8053 16.6671C21.8053 16.8751 22.014 17.0838 22.222 17.0838C22.5003 17.0838 22.6387 16.8751 22.6387 16.6671C22.7076 16.4584 22.5003 16.2504 22.222 16.2504ZM22.222 17.9868C21.5278 17.9868 20.9023 17.4309 20.9023 16.6671C20.9023 15.9721 21.4582 15.3474 22.222 15.3474C22.9163 15.3474 23.541 15.9032 23.541 16.6671C23.541 17.4309 22.9859 17.9868 22.222 17.9868Z" fill="white"/>
<path d="M23.9584 24.7222C23.6808 24.7222 23.541 24.9309 23.541 25.1389C23.541 25.4172 23.7497 25.5556 23.9584 25.5556C24.236 25.5556 24.3744 25.3469 24.3744 25.1389C24.3744 24.9309 24.1664 24.7222 23.9584 24.7222ZM23.9584 26.4579C23.2634 26.4579 22.6387 25.9027 22.6387 25.1389C22.6387 24.4446 23.1938 23.8192 23.9584 23.8192C24.6527 23.8192 25.2774 24.375 25.2774 25.1389C25.2078 25.9027 24.6527 26.4579 23.9584 26.4579Z" fill="white"/>
<path d="M13.7502 16.3196C13.056 16.3196 12.5001 16.8748 12.5001 17.5697C12.5001 18.264 13.056 18.8192 13.7502 18.8192C14.4438 18.8192 14.9997 18.264 14.9997 17.5697C14.9997 16.8748 14.4438 16.3196 13.7502 16.3196ZM13.7502 20.5556C12.0834 20.5556 10.7644 19.2359 10.7644 17.5697C10.7644 15.9029 12.0834 14.5832 13.7502 14.5832C15.4164 14.5832 16.7354 15.9029 16.7354 17.5697C16.7354 19.1663 15.4164 20.5556 13.7502 20.5556Z" fill="white"/>
<path d="M17.9856 23.0553C17.2906 23.0553 16.7347 23.6112 16.7347 24.3055C16.7347 24.9998 17.2906 25.5556 17.9856 25.5556C18.6799 25.5556 19.235 24.9998 19.235 24.3055C19.235 23.6112 18.6799 23.0553 17.9856 23.0553ZM17.9856 27.2913C16.3187 27.2913 14.999 25.9723 14.999 24.3055C14.999 22.6386 16.3187 21.3196 17.9856 21.3196C19.6524 21.3196 20.9714 22.6386 20.9714 24.3055C20.9714 25.9723 19.6524 27.2913 17.9856 27.2913Z" fill="white"/>
<path d="M19.0974 1.80597C18.6111 1.80597 18.1951 2.22268 18.1951 2.70827C18.1951 3.19454 18.6111 3.61124 19.0974 3.61124C19.583 3.61124 20.0004 3.19454 20.0004 2.70827C20.0004 2.15312 19.583 1.80597 19.0974 1.80597ZM19.0974 5.27809C17.6393 5.27809 16.458 4.09753 16.458 2.63939C16.458 1.18126 17.6393 2.38419e-06 19.0974 2.38419e-06C20.5555 2.38419e-06 21.7361 1.18126 21.7361 2.63939C21.7361 4.09753 20.5555 5.27809 19.0974 5.27809Z" fill="white"/>
<path d="M17.3608 36.5279C16.8745 36.5279 16.4571 36.9446 16.4571 37.4302C16.4571 37.9165 16.8745 38.3339 17.3608 38.3339C17.8464 38.3339 18.2631 37.9165 18.2631 37.4302C18.2631 36.9446 17.8464 36.5279 17.3608 36.5279ZM17.3608 40C15.9027 40 14.7214 38.8194 14.7214 37.3613C14.7214 35.9025 15.9027 34.7219 17.3608 34.7219C18.8189 34.7219 19.9995 35.9025 19.9995 37.3613C19.9995 38.8194 18.8189 40 17.3608 40Z" fill="white"/>
<path d="M2.15313 26.1118C1.94443 26.1118 1.73573 26.3205 1.73573 26.5292C1.73573 26.7372 1.94443 26.9452 2.15313 26.9452C2.36045 26.9452 2.56915 26.7372 2.56915 26.5292C2.56915 26.3205 2.4307 26.1118 2.15313 26.1118ZM2.15313 28.6816C0.972567 28.6816 0 27.7098 0 26.5292C0 25.348 0.972567 24.3761 2.15313 24.3761C3.333 24.3761 4.30555 25.348 4.30555 26.5292C4.30555 27.7098 3.333 28.6816 2.15313 28.6816Z" fill="white"/>
</svg>
