<svg width="41" height="40" viewBox="0 0 41 40" fill="none" xmlns="http://www.w3.org/2000/svg">
<path d="M13.4957 18.6442C14.1912 18.6442 14.7479 19.201 14.7479 19.8965C14.7479 20.592 14.1912 21.1488 13.4957 21.1488C12.7995 21.1488 12.2434 20.592 12.2434 19.8965C12.2434 19.201 12.7995 18.6442 13.4957 18.6442Z" fill="#C2E3F7"/>
<path d="M9.32083 24.4859C10.5034 24.4859 11.4079 25.3904 11.4079 26.573C11.4079 27.7556 10.5034 28.6602 9.32083 28.6602C8.13824 28.6602 7.23438 27.7556 7.23438 26.573C7.23438 25.4601 8.20792 24.4859 9.32083 24.4859Z" fill="#C2E3F7"/>
<path d="M12.5911 40C5.63491 40 0 34.3651 0 27.4089C0 22.2612 3.13104 17.6005 7.86071 15.7224V8.97465C7.86071 8.48754 8.27814 8.07079 8.69556 8.07079C9.18267 8.07079 9.60009 8.48754 9.60009 8.97465V16.3482C9.60009 16.696 9.39101 17.0437 9.04327 17.1831C4.66066 18.7134 1.73938 22.818 1.73938 27.4786C1.73938 33.4606 6.60913 38.3303 12.5911 38.3303C17.5995 38.3303 21.9124 34.9219 23.1647 30.1219C23.373 29.287 23.5124 28.3825 23.5124 27.4786C23.5124 25.7393 23.095 24.0696 22.3298 22.5392C22.2601 22.4006 22.1911 22.2612 22.1215 22.1218C20.7995 19.7566 18.6427 17.9482 16.0698 17.1134C15.7214 16.9747 15.4426 16.696 15.4426 16.2785V8.97465C15.4426 8.48754 15.8608 8.07079 16.3479 8.07079C16.8343 8.07079 17.2517 8.48754 17.2517 8.97465V15.6528C19.9646 16.696 22.2601 18.6437 23.6518 21.2179C23.7208 21.3566 23.7905 21.496 23.9298 21.7051C24.8344 23.5134 25.3215 25.3915 25.3215 27.4089C25.3215 28.4522 25.1821 29.4961 24.9731 30.4696C23.4427 36.1038 18.3653 40 12.5911 40Z" fill="white"/>
<path d="M7.92981 8.07022H17.1118V6.47021H7.92981V8.07022ZM17.9466 9.80893H7.09496C6.60854 9.80893 6.19043 9.39148 6.19043 8.90437V5.56569C6.19043 5.07857 6.60854 4.66113 7.09496 4.66113H18.0163C18.5034 4.66113 18.9202 5.07857 18.9202 5.56569V8.90437C18.8512 9.39148 18.4338 9.80893 17.9466 9.80893Z" fill="white"/>
<path d="M27.8252 40H1.73924C1.25213 40 0.834717 39.5826 0.834717 39.0955C0.834717 38.6084 1.25213 38.1909 1.73924 38.1909H27.8252C28.3123 38.1909 28.7297 38.6084 28.7297 39.0955C28.7297 39.5826 28.3123 40 27.8252 40Z" fill="white"/>
<path d="M9.32081 25.3922C8.62533 25.3922 8.06922 25.949 8.06922 26.6445C8.06922 27.3399 8.62533 27.8961 9.32081 27.8961C10.017 27.8961 10.5731 27.3399 10.5731 26.6445C10.5731 25.949 10.017 25.3922 9.32081 25.3922ZM9.32081 29.5657C7.65111 29.5657 6.32983 28.2445 6.32983 26.5748C6.32983 24.9051 7.65111 23.5838 9.32081 23.5838C10.9905 23.5838 12.3118 24.9051 12.3118 26.5748C12.3118 28.2445 10.9905 29.5657 9.32081 29.5657Z" fill="white"/>
<path d="M23.2338 33.2527C22.9564 33.2527 22.6784 33.1133 22.539 32.8352C22.1913 32.2784 21.4254 32.1398 20.8693 32.4875C20.4519 32.7656 19.8951 32.6262 19.6867 32.2785C19.408 31.861 19.548 31.3049 19.8951 31.0966C21.2867 30.192 23.0951 30.5397 23.9996 31.9314C24.2777 32.3481 24.139 32.9049 23.7906 33.1133C23.5125 33.2527 23.3732 33.2527 23.2338 33.2527Z" fill="white"/>
<path d="M19.1294 33.0425C18.9203 33.0425 18.7126 33.0425 18.5726 32.9735C17.8081 32.8341 17.1119 32.347 16.6952 31.7212C16.4164 31.3038 16.5558 30.747 16.9036 30.5386C17.321 30.2606 17.8778 30.3992 18.0855 30.747C18.2945 31.0257 18.5726 31.2341 18.8513 31.3038C19.1991 31.3735 19.4771 31.3038 19.7552 31.0954C20.1733 30.8167 20.7294 30.9561 20.9378 31.3038C21.2158 31.7212 21.0771 32.2773 20.7294 32.4864C20.312 32.8341 19.6862 33.0425 19.1294 33.0425Z" fill="white"/>
<path d="M14.8163 33.3214C14.5383 33.3214 14.2595 33.1821 14.1209 32.904C13.9125 32.6253 13.6338 32.4169 13.3557 32.3472C13.008 32.2775 12.7299 32.3472 12.4512 32.5563C12.0338 32.8343 11.4776 32.6949 11.2686 32.3472C10.9905 31.9304 11.1292 31.3737 11.4776 31.1646C12.1034 30.7472 12.9383 30.5388 13.7035 30.7472C14.4686 30.8865 15.1641 31.3736 15.5815 31.9994C15.8602 32.4169 15.7209 32.9737 15.3731 33.182C15.0944 33.3214 14.9557 33.3214 14.8163 33.3214Z" fill="white"/>
<path d="M10.7126 33.1132C9.73911 33.1132 8.8339 32.6261 8.20811 31.7912C7.93006 31.3745 8.06941 30.8177 8.41715 30.6094C8.83389 30.3306 9.39069 30.47 9.59975 30.8177C9.9468 31.3745 10.7126 31.5132 11.2688 31.1655C11.6862 30.8874 12.243 31.0268 12.4514 31.3745C12.7301 31.7912 12.5907 32.3481 12.243 32.5571C11.8256 32.9745 11.2688 33.1132 10.7126 33.1132Z" fill="white"/>
<path d="M13.4957 19.4781C13.2866 19.4781 13.0782 19.6865 13.0782 19.8955C13.0782 20.1039 13.2866 20.3129 13.4957 20.3129C13.7041 20.3129 13.9131 20.1039 13.9131 19.8955C13.9131 19.6865 13.7041 19.4781 13.4957 19.4781ZM13.4957 22.0523C12.3124 22.0523 11.3389 21.0781 11.3389 19.8955C11.3389 18.7129 12.3124 17.7394 13.4957 17.7394C14.6783 17.7394 15.6518 18.7129 15.6518 19.8955C15.6518 21.0781 14.6783 22.0523 13.4957 22.0523Z" fill="white"/>
<path d="M39.9986 40H27.8249C27.3385 40 26.9204 39.5826 26.9204 39.0955V23.5134C26.9204 23.0263 27.3385 22.6089 27.8249 22.6089C28.312 22.6089 28.7295 23.0263 28.7295 23.5134V38.2606H39.1637V23.5134C39.1637 23.0263 39.5812 22.6089 40.0683 22.6089C40.5554 22.6089 40.9721 23.0263 40.9721 23.5134V39.1651C40.9031 39.5826 40.485 40 39.9986 40Z" fill="white"/>
<path d="M33.9468 33.948C31.5809 33.948 29.5635 32.0003 29.5635 29.5654V15.6531C29.5635 15.166 29.9816 14.7486 30.4687 14.7486C30.9551 14.7486 31.3725 15.166 31.3725 15.6531V29.5654C31.3725 31.0267 32.5551 32.2094 34.0158 32.2094C35.4764 32.2094 36.659 31.0267 36.659 29.5654V15.6531C36.659 15.166 37.0771 14.7486 37.5635 14.7486C38.0506 14.7486 38.4674 15.166 38.4674 15.6531V29.5654C38.2597 31.9313 36.3113 33.948 33.9468 33.948Z" fill="white"/>
<path d="M39.9986 28.7309H27.8249C27.3385 28.7309 26.9204 28.3135 26.9204 27.827C26.9204 27.3399 27.3385 26.9225 27.8249 26.9225H39.9986C40.485 26.9225 40.9031 27.3399 40.9031 27.827C40.9031 28.3135 40.485 28.7309 39.9986 28.7309Z" fill="white"/>
<path d="M39.1637 16.5562H28.7295C28.2424 16.5562 27.825 16.1388 27.825 15.6517C27.825 15.1646 28.2424 14.7472 28.7295 14.7472H39.1637C39.6501 14.7472 40.0683 15.1646 40.0683 15.6517C40.0683 16.1388 39.5811 16.5562 39.1637 16.5562Z" fill="white"/>
<path d="M34.782 16.5562C34.2949 16.5562 33.8767 16.1388 33.8767 15.6517V12.1736C33.8767 11.9653 33.8078 11.7562 33.5987 11.5478C33.46 11.4085 33.1812 11.2691 32.9729 11.2691C31.5115 11.2691 30.3986 10.0865 30.3986 8.62587V3.4781C30.3986 2.99168 30.1903 2.57422 29.9122 2.2258C29.5638 1.87806 29.1471 1.73939 28.66 1.73939C27.6857 1.73939 26.9206 2.50457 26.9206 3.4781V4.80003C26.9206 6.46973 25.5289 7.86071 23.8606 7.86071H22.9561C22.1212 7.86071 21.3561 7.51295 20.7993 6.95615C20.2425 6.40005 19.8947 5.63488 19.8947 4.80003C19.8947 3.96519 19.5477 3.20004 18.9909 2.64324C18.4341 2.08713 17.6689 1.73939 16.8341 1.73939C15.1644 1.73939 13.7734 3.13033 13.7734 4.80003V5.21748C13.7734 5.7039 13.356 6.12133 12.8689 6.12133C12.3825 6.12133 11.9644 5.7039 11.9644 5.21748V4.80003C11.9644 2.1568 14.1212 5.72205e-06 16.7644 5.72205e-06C18.0167 5.72205e-06 19.2689 0.487127 20.1735 1.39097C21.0773 2.29551 21.5644 3.47807 21.5644 4.80003C21.5644 5.14777 21.7038 5.49552 21.9122 5.70389C22.1909 5.98263 22.469 6.05234 22.8167 6.05234H23.7205C24.4167 6.05234 25.0425 5.49553 25.0425 4.73036V3.4781C25.0425 1.53034 26.5728 5.72205e-06 28.5206 5.72205e-06C29.4251 5.72205e-06 30.329 0.347754 30.9555 1.04323C31.5813 1.66971 31.9987 2.57425 31.9987 3.4781V8.69554C31.9987 9.18196 32.4161 9.59939 32.9032 9.59939C33.5987 9.59939 34.2252 9.87814 34.782 10.3652C35.2684 10.8517 35.5464 11.5479 35.5464 12.2433V15.7214C35.6858 16.1388 35.2684 16.5562 34.782 16.5562Z" fill="white"/>
</svg>
