<svg width="35" height="40" viewBox="0 0 35 40" fill="none" xmlns="http://www.w3.org/2000/svg">
<path d="M34.072 40H5.51928C2.45279 40 0 37.5472 0 34.4807C0 32.9816 0.545451 31.6184 1.63565 30.5964C2.65759 29.5745 4.08843 28.9608 5.51928 28.9608C5.99645 28.9608 6.40535 29.3697 6.40535 29.8469C6.40535 30.324 5.99645 30.7323 5.51928 30.7323C4.49734 30.7323 3.54366 31.1412 2.79411 31.8232C2.04388 32.5727 1.70324 33.5264 1.70324 34.5483C1.70324 36.6611 3.40714 38.3643 5.51928 38.3643H33.1859V30.5964H29.3698C28.8927 30.5964 28.4838 30.1875 28.4838 29.7103C28.4838 29.2332 28.8927 28.8249 29.3698 28.8249H34.072C34.5491 28.8249 34.958 29.2332 34.958 29.7103V39.1146C34.8898 39.5911 34.4809 40 34.072 40Z" fill="#4A43DD"/>
<path d="M29.7791 24.6691H29.3701C28.893 24.6691 28.4841 24.2601 28.4841 23.7836C28.4841 23.4423 28.6888 23.17 28.893 23.0341V16.1516H11.0395C9.13149 16.1516 7.63238 17.6507 7.63238 19.5587C7.63238 20.4441 7.97302 21.3302 8.65431 21.9439C9.26801 22.5569 10.1534 22.9658 11.0395 22.9658C11.5167 22.9658 11.9249 23.3747 11.9249 23.8512C11.9249 24.3284 11.5167 24.7373 11.0395 24.7373C9.67692 24.7373 8.38194 24.1926 7.42759 23.2382C6.47392 22.2845 5.92847 20.9896 5.92847 19.6263C5.92847 16.8329 8.2454 14.5159 11.0395 14.5159H29.7791C30.2562 14.5159 30.6651 14.9248 30.6651 15.4013V23.7836C30.6651 24.2601 30.2562 24.6691 29.7791 24.6691Z" fill="#4A43DD"/>
<path d="M5.92881 28.8947H29.3705C29.9159 28.8947 30.4607 28.6906 30.8696 28.2817C31.2785 27.8728 31.4826 27.3273 31.4826 26.7826C31.4826 25.6241 30.5289 24.6698 29.3705 24.6698H5.92881V28.8947ZM29.3705 30.5986H5.111C4.6345 30.5986 4.22559 30.1897 4.22559 29.7125V23.7844C4.22559 23.3072 4.6345 22.8983 5.111 22.8983H29.3705C31.4826 22.8983 33.1865 24.6022 33.1865 26.7143C33.1865 27.7363 32.7776 28.6906 32.0963 29.4402C31.3468 30.1897 30.3924 30.5986 29.3705 30.5986Z" fill="#4A43DD"/>
<path d="M34.0723 36.5938H6.81456C6.33738 36.5938 5.92847 36.1848 5.92847 35.7077C5.92847 35.2312 6.33738 34.8223 6.81456 34.8223H34.0723C34.5494 34.8223 34.9583 35.2312 34.9583 35.7077C34.8901 36.1848 34.4812 36.5938 34.0723 36.5938Z" fill="#4A43DD"/>
<path d="M34.0723 34.0039H6.81456C6.33738 34.0039 5.92847 33.595 5.92847 33.1178C5.92847 32.6413 6.33738 32.2324 6.81456 32.2324H34.0723C34.5494 32.2324 34.9583 32.6413 34.9583 33.1178C34.8901 33.595 34.4812 34.0039 34.0723 34.0039Z" fill="#4A43DD"/>
<path d="M25.5545 24.668C25.0774 24.668 24.6685 24.2591 24.6685 23.7826V15.2644C24.6685 14.7872 25.0774 14.3783 25.5545 14.3783C26.0317 14.3783 26.4406 14.7872 26.4406 15.2644V23.7826C26.3724 24.2591 25.9635 24.668 25.5545 24.668Z" fill="#4A43DD"/>
<path d="M17.3764 14.0386H17.513C17.6495 14.0386 17.7854 14.0386 17.9219 14.1068C18.3308 14.3116 18.7397 14.3792 19.1486 14.3792C20.6477 14.3792 23.0329 10.4273 23.0329 7.15604C23.0329 6.27064 22.8281 5.5204 22.4192 5.04391C22.0103 4.49847 21.3973 4.29433 20.5112 4.29433C19.6258 4.29433 18.808 4.70325 18.3308 5.4528C18.2625 5.52039 18.2625 5.58866 18.1943 5.65692C18.0584 5.9293 17.7854 6.1341 17.4447 6.1341C17.1041 6.1341 16.8317 5.9293 16.6951 5.65692C16.2186 4.8391 15.3326 4.29433 14.3782 4.29433C13.4928 4.29433 12.8791 4.56673 12.4702 5.04391C12.0613 5.5204 11.8572 6.27064 11.8572 7.15604C11.8572 10.4273 14.2424 14.3792 15.7408 14.3792C16.1497 14.3792 16.5586 14.2433 16.9675 14.1068C17.1041 14.0386 17.2406 14.0386 17.3764 14.0386ZM19.1486 16.1514C18.6032 16.1514 17.9901 16.0149 17.513 15.8101C16.9675 16.0149 16.4228 16.1514 15.878 16.1514C14.5148 16.1514 13.0839 14.9929 11.9248 13.0166C10.9028 11.2451 10.2898 9.06406 10.2898 7.29257C10.2898 5.99758 10.6304 4.90737 11.2442 4.08955C11.7889 3.40826 12.7426 2.65871 14.5147 2.65871C15.6732 2.65871 16.7634 3.1352 17.5812 3.88543C18.3991 3.06761 19.4892 2.65871 20.6477 2.65871C22.4192 2.65871 23.4418 3.40826 23.9183 4.08955C24.532 4.90737 24.8727 5.92932 24.8727 7.29257C24.8727 9.06406 24.259 11.2451 23.237 13.0166C21.942 14.9929 20.5112 16.1514 19.1486 16.1514Z" fill="#4A43DD"/>
<path d="M17.6501 5.86035C17.2412 5.86035 16.9005 5.58727 16.8323 5.17836C16.8323 5.17836 16.8323 5.17838 16.8323 5.11011C15.9462 1.36234 17.6501 0.135587 17.8542 -0.000265598L18.7403 1.43061C18.7403 1.43061 17.8542 2.18016 18.4679 4.70188C18.6037 5.17838 18.2631 5.58729 17.8542 5.72382C17.7859 5.86035 17.7177 5.86035 17.6501 5.86035Z" fill="#4A43DD"/>
<path d="M18.7397 13.5615C18.4673 13.5615 18.1943 13.4257 18.0584 13.2209C17.7854 12.812 17.8536 12.3355 18.2625 12.0624C19.2851 11.3811 19.6258 10.0185 19.6258 10.0185C19.7616 9.54137 20.2388 9.26899 20.6477 9.40484C21.1249 9.54137 21.3973 10.0185 21.2607 10.4274C21.2607 10.4957 20.716 12.4031 19.2169 13.4939C19.0803 13.4939 18.9438 13.5615 18.7397 13.5615Z" fill="#4A43DD"/>
</svg>
