<svg width="36" height="40" viewBox="0 0 36 40" fill="none" xmlns="http://www.w3.org/2000/svg">
<path d="M14.0242 5.39003C15.1295 5.94229 15.4755 7.32433 14.8533 8.36034C14.3004 9.39635 12.919 9.74168 11.883 9.12021C11.3993 8.84408 11.0539 8.42954 10.8463 7.9458C10.4318 6.70286 11.1923 6.14991 9.53418 5.39003C10.7086 5.39003 12.2969 4.42254 14.0242 5.39003Z" fill="#C2E3F7"/>
<path d="M18.9975 6.97981C18.929 6.90992 18.7906 6.77221 18.7213 6.70369C17.5469 5.32166 17.7545 3.24964 19.1359 2.14374C21.4155 0.278647 24.0412 1.17624 25.7679 0.969311C24.2481 2.00532 25.2841 5.52926 23.3498 7.11753C22.0377 8.15423 20.2411 8.08434 18.9975 6.97981Z" fill="#C2E3F7"/>
<path d="M29.4289 19.2054C29.9126 19.2054 30.3271 19.6199 30.3271 20.1037C30.3271 20.5867 29.9126 21.002 29.4289 21.002C28.9458 21.002 28.5312 20.5867 28.5312 20.1037C28.5312 19.5514 28.9458 19.2054 29.4289 19.2054Z" fill="#4A43DD"/>
<path d="M23.35 33.8526C23.8337 33.8526 24.2482 34.2664 24.2482 34.7501C24.2482 35.2339 23.8337 35.6484 23.35 35.6484C22.8662 35.6484 22.4517 35.2339 22.4517 34.7501C22.5209 34.2664 22.8662 33.8526 23.35 33.8526Z" fill="#4A43DD"/>
<path d="M12.9879 30.3968C13.4716 30.3968 13.8862 30.8113 13.8862 31.2951C13.8862 31.7781 13.4716 32.1934 12.9879 32.1934C12.5041 32.1934 12.0896 31.7781 12.0896 31.2951C12.1588 30.8113 12.5041 30.3968 12.9879 30.3968Z" fill="#4A43DD"/>
<path d="M11.2609 13.1279C11.7446 13.1279 12.1592 13.5425 12.1592 14.0255C12.1592 14.5093 11.7446 14.9238 11.2609 14.9238C10.7778 14.9238 10.3633 14.5093 10.3633 14.0255C10.3633 13.5425 10.7778 13.1279 11.2609 13.1279Z" fill="#4A43DD"/>
<path d="M2.62558 6.21779C3.10864 6.21779 3.52318 6.63163 3.52318 7.11538C3.52318 7.59912 3.10864 8.01367 2.62558 8.01367C2.14183 8.01367 1.72729 7.59912 1.72729 7.11538C1.7965 6.63163 2.14183 6.21779 2.62558 6.21779Z" fill="#4A43DD"/>
<path d="M19.4123 6.14931C19.4815 6.21851 19.5507 6.28704 19.6199 6.35624C20.1037 6.77078 20.656 6.97838 21.2774 6.97838C21.8304 6.97838 22.3833 6.77078 22.7979 6.42544C23.5577 5.80329 23.6955 4.62886 23.9031 3.45445C23.9723 2.90218 24.0415 2.28003 24.2484 1.79629H24.1792C23.8339 1.79629 23.4193 1.72777 23.0048 1.72777C21.9688 1.72777 20.7944 1.86617 19.7583 2.76445C18.7217 3.59285 18.5833 5.11262 19.4123 6.14931ZM21.2774 8.70508C20.2414 8.70508 19.2054 8.29053 18.4455 7.59986C18.3071 7.46145 18.1694 7.39224 18.1002 7.25452C16.6496 5.52783 16.8566 2.90218 18.5833 1.45095C20.1037 0.20801 21.8304 0.000402451 22.9356 0.000402451C23.3501 0.000402451 23.7647 0.000403404 24.1792 0.0696077C24.5245 0.0696077 24.8699 0.138812 25.146 0.138812C25.3536 0.138812 25.492 0.138812 25.6298 0.138812C26.0443 0.0696077 26.3896 0.345728 26.528 0.69175C26.6665 1.03709 26.528 1.45095 26.1827 1.72777C25.7682 2.0039 25.6298 2.90219 25.5606 3.80047C25.3536 5.11261 25.146 6.77078 23.9031 7.80747C23.1432 8.35973 22.2449 8.70508 21.2774 8.70508Z" fill="#4A43DD"/>
<path d="M17.9622 14.0244C17.5477 14.0244 17.2024 13.7483 17.1332 13.3337C17.064 12.9192 16.9948 12.5739 16.9262 12.1593C16.7878 10.2942 17.2024 8.42915 18.2384 6.56337C19.6204 4.14602 21.5547 2.62558 21.6239 2.55706C22.0384 2.28024 22.5215 2.34943 22.8668 2.69545C23.1437 3.04079 23.0745 3.59306 22.7291 3.9384C22.7291 3.9384 21.0018 5.32042 19.7588 7.39244C18.8605 8.9122 18.5152 10.4326 18.6529 11.9524C18.6529 12.2285 18.7221 12.5739 18.7913 12.85C18.9297 13.3337 18.5837 13.7483 18.1699 13.8867C18.1007 13.9559 18.0314 14.0244 17.9622 14.0244Z" fill="#4A43DD"/>
<path d="M11.6756 7.66881C11.7448 7.94494 12.0209 8.22108 12.297 8.35949C12.5047 8.4979 12.7116 8.56642 12.9884 8.56642C13.4721 8.56642 13.8867 8.29028 14.0936 7.94495C14.3005 7.59961 14.3005 7.25426 14.232 6.90824C14.1628 6.56291 13.8867 6.28679 13.6099 6.14906C13.196 5.94145 12.85 5.80304 12.3669 5.80304C12.0209 5.80304 11.7448 5.87293 11.3994 5.94145C11.5378 6.28678 11.5378 6.56291 11.607 6.90824C11.5378 7.18506 11.5378 7.392 11.6756 7.66881ZM12.9192 10.3623C12.3669 10.3623 11.8832 10.2246 11.3994 9.94845C10.778 9.60311 10.225 8.98164 10.0181 8.29029C9.87968 7.80723 9.81048 7.39199 9.81048 7.04665C9.81048 6.83973 9.81047 6.70202 9.74127 6.63213C9.74127 6.56292 9.60354 6.42519 9.1198 6.21827C8.77446 6.07917 8.56686 5.66531 8.63606 5.25077C8.70527 4.83623 9.0506 4.56011 9.46514 4.56011C9.74127 4.56011 10.0181 4.4909 10.3634 4.35249C10.9157 4.21477 11.5378 4.07636 12.297 4.07636C13.0576 4.07636 13.7483 4.28329 14.3697 4.62863C15.0611 5.04385 15.6134 5.66532 15.821 6.4252C16.0279 7.18507 15.9587 8.08268 15.5442 8.77404C15.0611 9.74084 14.0244 10.3623 12.9192 10.3623Z" fill="#4A43DD"/>
<path d="M17.9621 14.0244C17.4784 14.0244 17.133 13.6791 17.133 13.1953C17.133 12.85 17.0638 12.5739 16.9946 12.2977C16.4424 10.0873 14.4389 9.67276 14.3697 9.67276C13.8866 9.60356 13.6098 9.11982 13.679 8.63607C13.7482 8.15301 14.2319 7.87619 14.715 7.9454C14.8534 7.9454 17.8237 8.63607 18.6528 11.8832C18.722 12.2285 18.7912 12.6424 18.8604 13.0576C18.8604 13.5414 18.5151 13.9559 17.9621 14.0244Z" fill="#4A43DD"/>
<path d="M17.8229 35.5801C17.3398 35.5801 16.9253 35.1655 16.9253 34.6825V13.9575C16.9253 13.4731 17.3398 13.0592 17.8229 13.0592C18.3066 13.0592 18.7212 13.4731 18.7212 13.9575V34.6825C18.7212 35.1655 18.3066 35.5801 17.8229 35.5801Z" fill="#4A43DD"/>
<path d="M15.4056 14.0251V21.7622C15.4056 21.9007 15.3365 22.0384 15.2673 22.1775L6.8394 36.8228C6.63178 37.1674 6.70099 37.5128 6.77019 37.6518C6.9086 37.928 7.11552 38.1356 7.39165 38.2041C7.46085 38.2041 7.59926 38.2733 7.66847 38.2733H27.9782C28.1166 38.2733 28.1858 38.2733 28.255 38.2041C28.5312 38.1356 28.7381 37.928 28.8765 37.6518C28.9457 37.5128 29.0142 37.1674 28.8073 36.8228L20.3103 22.1775C20.241 22.0384 20.241 21.9007 20.241 21.6937V14.0251H15.4056ZM27.9782 40H7.66847C7.39165 40 7.11553 39.9315 6.8394 39.8623C6.07952 39.5861 5.45804 39.0332 5.18122 38.2733C4.90509 37.5128 4.97361 36.6844 5.38815 35.9937L13.7475 21.5553V13.1275C13.7475 12.643 14.162 12.2292 14.6458 12.2292H21.1393C21.6231 12.2292 22.0376 12.643 22.0376 13.1275V21.4861L30.2579 35.9245C30.6724 36.6152 30.7416 37.4442 30.4655 38.2041C30.1893 38.964 29.5672 39.5861 28.8073 39.7931C28.5312 39.9315 28.255 40 27.9782 40Z" fill="#4A43DD"/>
<path d="M34.6104 39.9316H0.898285C0.41454 39.9316 0 39.5164 0 39.0333C0 38.5496 0.41454 38.1358 0.898285 38.1358H34.6104C35.0941 38.1358 35.5087 38.5496 35.5087 39.0333C35.4395 39.5164 35.0249 39.9316 34.6104 39.9316Z" fill="#4A43DD"/>
<path d="M4.35227 19.2054C3.86852 19.2054 3.45466 19.62 3.45466 20.1037C3.45466 20.5868 3.86852 21.002 4.35227 21.002C4.83601 21.002 5.25054 20.5868 5.25054 20.1037C5.25054 19.5514 4.83601 19.2054 4.35227 19.2054ZM4.35227 22.6602C2.90172 22.6602 1.72729 21.485 1.72729 20.0345C1.72729 18.5833 2.90172 17.4095 4.35227 17.4095C5.80282 17.4095 6.97722 18.5833 6.97722 20.0345C6.97722 21.485 5.80282 22.6602 4.35227 22.6602Z" fill="#4A43DD"/>
<path d="M31.1562 27.8418C30.6725 27.8418 30.2579 28.2564 30.2579 28.7401C30.2579 29.2232 30.6725 29.6377 31.1562 29.6377C31.64 29.6377 32.0545 29.2232 32.0545 28.7401C32.0545 28.2564 31.5708 27.8418 31.1562 27.8418ZM31.1562 31.2959C29.7057 31.2959 28.5312 30.1215 28.5312 28.6709C28.5312 27.2197 29.7057 26.0453 31.1562 26.0453C32.6075 26.0453 33.7812 27.2197 33.7812 28.6709C33.712 30.1215 32.5376 31.2959 31.1562 31.2959Z" fill="#4A43DD"/>
<path d="M30.6723 7.94551C29.9816 7.94551 29.3602 8.49846 29.3602 9.25833C29.3602 9.94901 29.9124 10.5705 30.6723 10.5705C31.3637 10.5705 31.9851 10.0175 31.9851 9.25833C31.9851 8.49846 31.4322 7.94551 30.6723 7.94551ZM30.6723 12.2979C29.0141 12.2979 27.6328 10.9158 27.6328 9.25833C27.6328 7.60017 29.0141 6.21883 30.6723 6.21883C32.3305 6.21883 33.7118 7.60017 33.7118 9.25833C33.7118 10.9158 32.3305 12.2979 30.6723 12.2979Z" fill="#4A43DD"/>
</svg>
