<svg width="35" height="41" viewBox="0 0 35 41" fill="none" xmlns="http://www.w3.org/2000/svg">
<path d="M5.91774 11.7042C5.21543 11.7042 4.58412 12.2659 4.58412 13.0378C4.58412 13.7394 5.14582 14.3714 5.91774 14.3714C6.61935 14.3714 7.25065 13.8097 7.25065 13.0378C7.25065 12.2659 6.61935 11.7042 5.91774 11.7042ZM5.91774 16.1254C4.23331 16.1254 2.83008 14.7222 2.83008 13.0378C2.83008 11.3534 4.23331 9.95014 5.91774 9.95014C7.60216 9.95014 9.00538 11.3534 9.00538 13.0378C9.00538 14.7222 7.60216 16.1254 5.91774 16.1254Z" fill="white"/>
<path d="M18.129 18.9334C17.9884 18.9334 17.8478 18.9334 17.7079 18.8631L14.6203 17.249C14.4094 17.1091 14.2688 16.9685 14.1992 16.7583L13.4968 14.3722C13.4272 14.1613 13.4272 13.8808 13.5671 13.6706L19.322 2.79284C19.462 2.58194 19.6025 2.44204 19.8134 2.37173C20.0236 2.30144 20.3042 2.30144 20.5144 2.44204L22.0589 3.28426C22.48 3.49446 22.6199 4.05616 22.4097 4.47727C22.1988 4.89837 21.6378 5.03828 21.2167 4.82808L20.4448 4.40697L15.2516 14.1613L15.743 15.8458L18.1993 17.1794L19.883 16.688L21.3566 13.8808C21.5675 13.4597 22.1292 13.3191 22.5496 13.53C22.9707 13.7402 23.1113 14.3019 22.9011 14.723L21.287 17.8107C21.1464 18.0216 21.0058 18.1615 20.7956 18.2318L18.4095 18.9334C18.3392 18.9334 18.2689 18.9334 18.129 18.9334Z" fill="white"/>
<path d="M24.6544 10.4422C24.5145 10.4422 24.3739 10.4422 24.2333 10.3719C23.8122 10.1617 23.6723 9.60001 23.8825 9.1789L25.1458 6.86316L24.3036 6.44205C23.8825 6.23185 23.7426 5.67015 23.9528 5.24904C24.1637 4.82793 24.7247 4.68733 25.1458 4.89823L26.6896 5.74045C26.8999 5.88036 27.0405 6.02094 27.1108 6.23185C27.1811 6.44205 27.1811 6.72256 27.0405 6.93277L25.4263 10.0211C25.2161 10.3016 24.9349 10.4422 24.6544 10.4422Z" fill="white"/>
<path d="M19.0408 15.424C18.9009 15.424 18.7603 15.424 18.6197 15.3537L14.7602 13.3184C14.3391 13.1082 14.1991 12.5465 14.4094 12.1254C14.6203 11.7043 15.1813 11.5644 15.6024 11.7746L19.4619 13.8098C19.883 14.0207 20.0236 14.5817 19.8134 15.0028C19.6025 15.2834 19.322 15.424 19.0408 15.424Z" fill="white"/>
<path d="M22.8309 3.63525L24.3747 4.47746L24.7959 3.70554C24.8662 3.56494 24.8662 3.42435 24.8662 3.28444C24.8662 2.93364 24.6552 2.65313 24.3747 2.51253C24.2341 2.44222 24.0942 2.44222 23.9536 2.44222C23.6028 2.44222 23.3223 2.65313 23.1817 2.93363L22.8309 3.63525ZM24.7255 6.51269C24.5856 6.51269 24.445 6.51269 24.3044 6.44239L21.2168 4.82826C21.0059 4.68766 20.866 4.54775 20.7957 4.33685C20.7254 4.12665 20.7254 3.84546 20.866 3.63525L21.7082 2.09141C22.1989 1.2492 23.0411 0.6875 24.0239 0.6875C24.445 0.6875 24.8662 0.828104 25.2866 0.968704C26.1288 1.46011 26.6905 2.30163 26.6905 3.28444C26.6905 3.70555 26.5499 4.12665 26.41 4.54776L25.5678 6.09158C25.3569 6.37208 25.0061 6.51269 24.7255 6.51269Z" fill="white"/>
<path d="M22.3392 24.1252C22.1986 24.1252 22.0587 24.1252 21.9181 24.0549L11.041 18.3007C10.6199 18.0898 10.4793 17.5288 10.6902 17.1077C10.9004 16.6866 11.4621 16.546 11.8832 16.7569L22.7603 22.5111C23.1814 22.7213 23.322 23.283 23.1111 23.7041C22.9705 23.9846 22.69 24.1252 22.3392 24.1252Z" fill="white"/>
<path d="M33.9879 40.6875H2.40909C1.91769 40.6875 1.49658 40.2664 1.49658 39.775V36.2662C1.49658 35.7748 1.91769 35.3537 2.40909 35.3537H6.82966C7.32107 35.3537 7.74218 35.7748 7.74218 36.2662C7.74218 36.7576 7.32107 37.1787 6.82966 37.1787H3.32091V38.9328H33.1457V37.1787H29.6369C29.1462 37.1787 28.7251 36.7576 28.7251 36.2662C28.7251 35.7748 29.1462 35.3537 29.6369 35.3537H34.0582C34.5496 35.3537 34.9707 35.7748 34.9707 36.2662V39.775C34.9004 40.2664 34.4793 40.6875 33.9879 40.6875Z" fill="white"/>
<path d="M29.6376 37.1781H6.83026C6.33955 37.1781 5.91846 36.7569 5.91846 36.2655V35.6342C5.91846 32.6169 8.37479 30.1605 11.3921 30.1605H16.3048C16.7955 30.1605 17.2166 30.5816 17.2166 31.0021C17.2166 31.4942 16.7955 31.9146 16.3048 31.9146H11.3921C9.42721 31.9146 7.74279 33.4591 7.67248 35.4233H28.7257C28.5851 33.4591 26.971 31.9146 25.0061 31.9146H24.2342C23.7434 31.9146 23.3223 31.4942 23.3223 31.0021C23.3223 30.5107 23.7434 30.1605 24.2342 30.1605H25.0061C28.0241 30.1605 30.4798 32.6169 30.4798 35.6342V36.2655C30.4798 36.7569 30.0587 37.1781 29.6376 37.1781Z" fill="white"/>
<path d="M28.1639 22.2308C28.0943 22.2308 28.0943 22.2308 28.024 22.2308C27.9537 22.2308 27.9537 22.2308 27.8834 22.2308C27.392 22.1605 27.0412 21.7394 27.1115 21.3183C27.1818 20.8268 27.6029 20.4761 28.024 20.5464C28.0943 20.5464 28.1639 20.5464 28.2342 20.5464C28.7256 20.6167 29.0764 21.0377 29.0061 21.5292C29.0061 21.9503 28.6553 22.2308 28.1639 22.2308Z" fill="white"/>
<path d="M27.6732 22.2318C27.2521 22.2318 26.831 21.881 26.831 21.4599C26.7607 20.9685 27.1818 20.5474 27.6029 20.5474C27.6732 20.5474 27.6732 20.5474 27.7428 20.5474C28.2342 20.5474 28.585 20.9685 28.585 21.4599C28.585 21.9513 28.2342 22.3021 27.7428 22.3021C27.7428 22.2318 27.6732 22.2318 27.6732 22.2318Z" fill="white"/>
<path d="M27.4623 22.2308C27.0412 22.2308 26.6904 21.9503 26.6201 21.4589C26.5498 20.9674 26.9006 20.5464 27.3217 20.476C27.392 20.476 27.392 20.476 27.4623 20.476H27.5326C28.024 20.4057 28.4451 20.8268 28.5154 21.248C28.585 21.7394 28.2342 22.1605 27.7428 22.2308H27.6732C27.5326 22.2308 27.5326 22.2308 27.4623 22.2308Z" fill="white"/>
<path d="M27.1816 22.3012C26.8308 22.3012 26.48 22.02 26.3394 21.6692C26.1988 21.1778 26.48 20.6871 26.9707 20.6168H27.041H27.1113H27.1816C27.2519 20.6168 27.2519 20.6168 27.3215 20.6168C27.813 20.5465 28.2341 20.8973 28.3044 21.3887C28.3747 21.8801 28.0239 22.3012 27.5325 22.3715C27.5325 22.3715 27.5325 22.3715 27.4622 22.3715C27.4622 22.3715 27.4621 22.3715 27.3918 22.3715H27.3215C27.3215 22.3012 27.2519 22.3012 27.1816 22.3012Z" fill="white"/>
<path d="M25.707 23.3544C25.4968 23.3544 25.3562 23.2841 25.2163 23.2138C24.7952 22.9333 24.7249 22.3723 25.0054 22.0208C25.2163 21.6699 25.4968 21.3894 25.8476 21.1785C25.9179 21.1785 25.9179 21.1089 25.9882 21.1089C26.1281 21.0386 26.2687 20.9683 26.4093 20.898C26.4093 20.898 26.4796 20.898 26.4796 20.8277C26.5492 20.7581 26.6898 20.7581 26.7601 20.7581C26.8304 20.7581 26.8304 20.7581 26.9 20.6878C27.3914 20.5472 27.8125 20.8277 27.9531 21.3191C28.0937 21.8105 27.8125 22.2317 27.3211 22.3723C27.3211 22.3723 27.3211 22.3723 27.2515 22.3723C27.1812 22.3723 27.1812 22.3723 27.1109 22.4419H27.0406C26.9703 22.5122 26.9 22.5122 26.8304 22.5825C26.8304 22.5825 26.7601 22.5825 26.7601 22.6528C26.6195 22.7927 26.4796 22.9333 26.339 23.0732C26.2687 23.2138 25.9882 23.3544 25.707 23.3544Z" fill="white"/>
<path d="M25.6377 23.4237C25.4971 23.4237 25.2862 23.3534 25.1463 23.2831C24.7251 23.0026 24.5852 22.5112 24.8657 22.0901C24.8657 22.0198 24.9354 22.0198 24.9354 21.9502C25.2166 21.5291 25.7776 21.4588 26.1284 21.7393C26.5495 22.0198 26.6198 22.5815 26.3393 22.9323C26.3393 22.9323 26.3393 22.9323 26.3393 23.0026C26.1987 23.2831 25.9182 23.4237 25.6377 23.4237Z" fill="white"/>
<path d="M25.4965 23.6337C25.3559 23.6337 25.2159 23.6337 25.0753 23.5634C24.6542 23.3532 24.5143 22.7915 24.7245 22.3711C24.7245 22.3008 24.7948 22.3008 24.7948 22.2305C24.7948 22.1602 24.8651 22.1602 24.8651 22.0899C25.1456 21.6688 25.7066 21.5985 26.0582 21.8094C26.4793 22.0899 26.5489 22.6516 26.3387 23.0024C26.3387 23.0024 26.3387 23.0024 26.3387 23.072C26.3387 23.072 26.3387 23.1423 26.2684 23.1423C26.1278 23.4931 25.8473 23.6337 25.4965 23.6337Z" fill="white"/>
<path d="M25.2162 24.5473H25.1459C24.6545 24.477 24.3037 24.0559 24.374 23.5645C24.374 23.4942 24.374 23.4942 24.374 23.4246C24.374 23.3543 24.374 23.284 24.374 23.284C24.374 23.1434 24.4443 23.0731 24.4443 22.9332C24.4443 22.8629 24.4443 22.7926 24.5146 22.7926C24.7248 22.3722 25.2162 22.091 25.6373 22.3019C26.0584 22.5121 26.3389 23.0035 26.128 23.4246C26.128 23.4942 26.128 23.4942 26.0584 23.5645V23.6348V23.7051C26.0584 24.2668 25.7069 24.5473 25.2162 24.5473Z" fill="white"/>
<path d="M25.2162 24.688C24.7248 24.688 24.3037 24.2669 24.3037 23.7755C24.3037 23.7052 24.3037 23.7052 24.3037 23.6349V23.5646C24.374 23.0732 24.8654 22.7927 25.2858 22.863C25.7772 22.9333 26.0584 23.3544 25.9881 23.8458C26.0584 24.3365 25.7069 24.688 25.2162 24.688Z" fill="white"/>
<path d="M25.2162 24.8267C24.7248 24.8267 24.3037 24.4056 24.3037 23.9141C24.3037 23.8445 24.3037 23.7742 24.3037 23.7039C24.3037 23.2125 24.7248 22.8617 25.2162 22.8617C25.7069 22.8617 26.0584 23.2828 26.0584 23.7742V23.8445C26.128 24.4759 25.7069 24.8267 25.2162 24.8267Z" fill="white"/>
<path d="M25.2165 25.2488C24.7954 25.2488 24.4446 24.898 24.3743 24.4769C24.3743 24.4066 24.3743 24.3363 24.3743 24.2667C24.3743 23.7753 24.7251 23.3541 25.2165 23.3541C25.7072 23.3541 26.1283 23.705 26.1283 24.1964V24.2667C26.1986 24.7574 25.8478 25.1785 25.3564 25.2488C25.3564 25.2488 25.2861 25.2488 25.2165 25.2488Z" fill="white"/>
<path d="M25.4967 26.091C25.2162 26.091 24.8654 25.9511 24.7248 25.5996C24.6545 25.5293 24.6545 25.4596 24.6545 25.3893C24.4443 24.9682 24.6545 24.4065 25.0756 24.1963C25.4967 23.9854 26.0584 24.1963 26.2686 24.6174C26.2686 24.6877 26.3389 24.6877 26.3389 24.7574C26.5491 25.1785 26.4092 25.7402 25.9881 25.9511C25.7772 26.091 25.6373 26.091 25.4967 26.091Z" fill="white"/>
<path d="M26.128 26.8638C25.9178 26.8638 25.7069 26.7942 25.567 26.6529C25.4967 26.5833 25.4264 26.5833 25.3561 26.513C25.0053 26.1615 25.0053 25.6005 25.3561 25.2497C25.7069 24.8989 26.2686 24.8989 26.6194 25.2497L26.6897 25.3193C27.0405 25.6005 27.1108 26.1615 26.76 26.5833C26.6194 26.7942 26.4092 26.8638 26.128 26.8638Z" fill="white"/>
<path d="M24.2337 31.9149H16.374C16.2341 31.9149 16.0935 31.9149 15.9529 31.8446L11.2511 29.3187C10.1284 28.6866 9.35645 27.4936 9.35645 26.231C9.35645 25.6693 9.49705 25.1083 9.77756 24.6169C10.6901 22.9325 12.7949 22.2308 14.5496 23.1427L19.3217 25.6693C19.6022 25.6693 20.4444 25.1083 20.7249 24.6169L24.5149 17.2479C24.5852 17.108 24.6548 16.8971 24.5852 16.6868C24.5149 16.4759 24.3743 16.3361 24.2337 16.2658L21.7773 14.9321C21.5671 14.7915 21.4266 14.6516 21.3563 14.4414C21.2866 14.2305 21.2866 13.95 21.4266 13.7391L23.8829 9.10763C24.0235 8.89743 24.1641 8.75682 24.3743 8.68653C24.5852 8.61622 24.8657 8.61622 25.0759 8.75683L33.6372 13.2484C33.8482 13.3883 33.9881 13.5289 34.0584 13.7391C34.1287 13.95 34.1287 14.2305 33.9881 14.4414L29.9886 22.0199C29.7777 22.4411 29.216 22.5817 28.7956 22.3715C28.3745 22.1606 28.2339 21.5988 28.4448 21.1777L32.0238 14.3711L25.0759 10.6515L23.4618 13.7391L25.1462 14.6516C25.7072 14.9321 26.1283 15.4938 26.3392 16.1252C26.5494 16.7572 26.4798 17.3885 26.1283 18.0205L22.1985 25.3888C21.6374 26.3709 19.8827 27.9147 18.4795 27.2131L13.7074 24.6872C12.8652 24.2661 11.8128 24.5466 11.3214 25.3888C11.1808 25.6693 11.1112 25.9505 11.1112 26.231C11.1112 26.8623 11.462 27.4936 12.023 27.7748L16.5146 30.1609H23.6024L25.8478 25.9505C26.0587 25.5287 26.6197 25.3888 27.0408 25.599C27.4619 25.8099 27.6025 26.3709 27.3916 26.7927L24.9353 31.4235C24.7954 31.704 24.5149 31.9149 24.2337 31.9149Z" fill="white"/>
<path d="M26.2689 24.6875C26.2689 24.7571 26.2689 24.7571 26.3392 24.8274C26.4095 24.968 26.5494 25.1086 26.69 25.2485L26.7603 25.3181C26.9002 25.3891 26.9705 25.4594 27.1111 25.529C27.3213 25.6696 27.6025 25.7399 27.883 25.7399C28.8652 25.7399 29.6371 24.968 29.6371 23.9852C29.6371 23.3539 29.2863 22.7922 28.7253 22.4414C28.515 22.3014 28.3041 22.2311 28.0939 22.2311C28.0939 22.2311 28.0236 22.2311 27.9533 22.2311C27.883 22.2311 27.8127 22.2311 27.7424 22.2311C27.7424 22.2311 27.7424 22.2311 27.6728 22.2311C27.6728 22.2311 27.6728 22.2311 27.6025 22.2311H27.5322C27.5322 22.2311 27.5322 22.2311 27.4619 22.2311C27.4619 22.2311 27.4619 22.2311 27.3916 22.2311H27.3213H27.2517C27.1814 22.2311 27.1814 22.2311 27.1111 22.3014C27.1111 22.3014 27.1111 22.3014 27.0408 22.3014C26.9705 22.3014 26.9002 22.3717 26.8306 22.3717C26.8306 22.3717 26.8306 22.3717 26.7603 22.3717C26.6197 22.5117 26.4798 22.6523 26.3392 22.7922C26.3392 22.7922 26.3392 22.7922 26.3392 22.8625C26.3392 22.8625 26.3392 22.8624 26.3392 22.9327C26.3392 22.9327 26.3392 22.9327 26.3392 23.003C26.2689 23.0727 26.2689 23.143 26.2689 23.2133V23.2836C26.2689 23.3539 26.2689 23.4242 26.1986 23.4242V23.4938V23.5641V23.6344V23.7047C26.1986 23.775 26.1986 23.775 26.1986 23.8453V23.9149C26.1283 24.4063 26.1986 24.5469 26.2689 24.6875ZM27.883 27.4939C27.3213 27.4939 26.8306 27.354 26.3392 27.1438C26.0587 27.0025 25.8478 26.8626 25.6376 26.6517C25.5673 26.5821 25.497 26.5118 25.4267 26.5118C25.1462 26.2313 24.9353 25.9508 24.7954 25.6696C24.7954 25.5993 24.7251 25.529 24.7251 25.4594C24.5852 25.1782 24.5149 24.8274 24.4446 24.4766C24.4446 24.4063 24.4446 24.336 24.4446 24.2664C24.4446 24.1961 24.4446 24.1258 24.4446 23.9852C24.4446 23.9149 24.4446 23.8453 24.4446 23.8453C24.4446 23.8453 24.4446 23.8453 24.4446 23.775C24.4446 23.7047 24.4446 23.7047 24.4446 23.6344C24.4446 23.6344 24.4446 23.6344 24.4446 23.5641C24.4446 23.4938 24.4446 23.4938 24.4446 23.4242C24.4446 23.3539 24.4446 23.2836 24.4446 23.2133C24.4446 23.0727 24.5149 23.0031 24.5149 22.8625C24.5149 22.7922 24.5149 22.7922 24.5852 22.7219C24.6548 22.582 24.7251 22.3717 24.7954 22.2311C24.7954 22.1608 24.865 22.1608 24.865 22.0905C24.865 22.0202 24.9353 22.0202 24.9353 21.9506C24.9353 21.8803 25.0056 21.8803 25.0056 21.81C25.2165 21.4592 25.497 21.178 25.8478 20.9678C25.9181 20.8975 25.9181 20.8975 25.9884 20.8975C26.1283 20.8272 26.2689 20.7576 26.3392 20.6873C26.4095 20.6873 26.4095 20.617 26.4798 20.617C26.5494 20.5467 26.69 20.5467 26.7603 20.5467C26.8306 20.5467 26.8306 20.5467 26.9002 20.4764H26.9705H27.0408H27.1111H27.1814H27.2517C27.2517 20.4764 27.2517 20.4764 27.3213 20.4764H27.3916H27.4619H27.5322H27.6025C27.7424 20.4764 27.883 20.4764 27.9533 20.4764C28.0236 20.4764 28.0939 20.4764 28.1635 20.4764C28.5846 20.5467 29.0058 20.6873 29.4269 20.8975C30.5496 21.5295 31.2512 22.7219 31.2512 23.9852C31.3918 25.9508 29.7777 27.4939 27.883 27.4939Z" fill="white"/>
<path d="M8.09352 7.3535C7.39191 7.3535 6.76058 7.9152 6.76058 8.68711C6.76058 9.38872 7.32161 10.0207 8.09352 10.0207C8.79583 10.0207 9.42713 9.45902 9.42713 8.68711C9.42713 7.9152 8.86543 7.3535 8.09352 7.3535ZM8.09352 11.7045C6.40909 11.7045 5.00586 10.3012 5.00586 8.61681C5.00586 6.93238 6.40909 5.52917 8.09352 5.52917C9.77794 5.52917 11.1812 6.93238 11.1812 8.61681C11.1812 10.3012 9.77794 11.7045 8.09352 11.7045Z" fill="white"/>
<path d="M3.74195 7.3535C3.04033 7.3535 2.40902 7.9152 2.40902 8.68711C2.40902 9.38872 2.97003 10.0207 3.74195 10.0207C4.44426 10.0207 5.07556 9.45902 5.07556 8.68711C5.07556 7.9152 4.44426 7.3535 3.74195 7.3535ZM3.74195 11.7045C2.05752 11.7045 0.654297 10.3012 0.654297 8.61681C0.654297 6.93238 2.05752 5.52917 3.74195 5.52917C5.42637 5.52917 6.82959 6.93238 6.82959 8.61681C6.82959 10.3012 5.42637 11.7045 3.74195 11.7045Z" fill="white"/>
</svg>
