<svg width="41" height="40" viewBox="0 0 41 40" fill="none" xmlns="http://www.w3.org/2000/svg">
<path d="M31.2515 31.6674C31.3899 31.8059 31.529 32.0841 31.529 32.2922C31.529 32.5009 31.4595 32.7785 31.2515 32.9176C31.1123 33.0561 30.834 33.1952 30.626 33.1952C30.418 33.1952 30.1397 33.1256 30.0012 32.9176C29.8621 32.7785 29.7236 32.5009 29.7236 32.2922C29.7236 32.0841 29.7932 31.8059 30.0012 31.6674C30.1397 31.5283 30.418 31.3891 30.626 31.3891C30.834 31.4587 31.0427 31.5283 31.2515 31.6674Z" fill="white"/>
<path d="M28.6814 35.0698C28.8198 35.2082 28.9597 35.4865 28.9597 35.6945C28.9597 35.9032 28.8901 36.1808 28.6814 36.32C28.4734 36.4584 28.2647 36.5976 28.0566 36.5976C27.8479 36.5976 27.5703 36.528 27.4319 36.32C27.2927 36.1808 27.1536 35.9032 27.1536 35.6945C27.1536 35.4865 27.2231 35.2082 27.4319 35.0698C27.5703 34.9313 27.8479 34.7922 28.0566 34.7922C28.2647 34.7922 28.5422 34.9313 28.6814 35.0698Z" fill="white"/>
<path d="M27.8484 29.167C27.9869 29.3062 28.1267 29.5838 28.1267 29.7925C28.1267 30.0005 28.0571 30.2781 27.8484 30.4173C27.7099 30.5557 27.4324 30.6949 27.2237 30.6949C27.0149 30.6949 26.7373 30.626 26.5989 30.4173C26.4597 30.2781 26.3213 30.0005 26.3213 29.7925C26.3213 29.5838 26.3902 29.3062 26.5989 29.167C26.8069 29.0279 27.0149 28.8895 27.2237 28.8895C27.4324 28.8895 27.6404 28.959 27.8484 29.167Z" fill="white"/>
<path d="M26.946 25.7646C27.0844 25.9038 27.2236 26.1814 27.2236 26.3894C27.2236 26.5981 27.154 26.8757 26.946 27.0142C26.8069 27.154 26.5286 27.2924 26.3212 27.2924C26.1125 27.2924 25.8343 27.2229 25.6951 27.0142C25.5567 26.8757 25.4182 26.5981 25.4182 26.3894C25.4182 26.1814 25.4878 25.9038 25.6951 25.7646C25.8343 25.6255 26.1125 25.4871 26.3212 25.4871C26.5988 25.4871 26.8069 25.5559 26.946 25.7646Z" fill="white"/>
<path d="M23.612 32.5708C23.7512 32.7099 23.8897 32.9875 23.8897 33.1962C23.8897 33.4042 23.8208 33.6825 23.612 33.821C23.404 33.9601 23.1953 34.0993 22.9873 34.0993C22.7786 34.0993 22.501 34.0297 22.3618 33.821C22.2227 33.6825 22.0842 33.4042 22.0842 33.1962C22.0842 32.9875 22.1538 32.7099 22.3618 32.5708C22.501 32.4323 22.7786 32.2932 22.9873 32.2932C23.1953 32.2932 23.404 32.3628 23.612 32.5708Z" fill="white"/>
<path d="M16.5293 9.44501C16.043 9.44501 15.6255 9.02825 15.6255 8.54194C15.6255 8.05563 16.043 7.6389 16.5293 7.6389C17.0149 7.6389 17.3628 7.29175 17.3628 6.80613C17.3628 6.59742 17.2925 6.38937 17.1541 6.25023C17.0149 6.11109 16.8069 5.97265 16.5982 5.97265H8.88958C8.40327 5.97265 8.0561 6.31982 8.0561 6.80613C8.0561 7.01415 8.12565 7.22287 8.33368 7.36132C8.47282 7.50047 8.68086 7.56931 8.88958 7.56931C9.37588 7.56931 9.7919 7.98608 9.7919 8.47238C9.7919 8.95869 9.37588 9.37542 8.88958 9.37542C8.19524 9.37542 7.56976 9.09783 7.08414 8.61153C6.59784 8.12522 6.31958 7.50046 6.31958 6.80613C6.31958 5.41678 7.50022 4.23613 8.88958 4.23613H16.5293C17.2236 4.23613 17.8484 4.51372 18.3347 5.00003C18.821 5.48633 19.0979 6.11111 19.0979 6.80613C19.0979 8.26436 17.9172 9.44501 16.5293 9.44501Z" fill="white"/>
<path d="M12.7783 40C5.76407 40 0 34.3055 0 27.2217C0 22.0135 3.19406 17.3598 7.98619 15.4153V8.54014C7.98619 8.05383 8.40295 7.6371 8.88926 7.6371H16.529C17.0146 7.6371 17.4313 8.05383 17.4313 8.54014V15.3457C20.6261 16.5959 23.1954 19.0963 24.5847 22.2911C24.7928 22.7078 24.5847 23.263 24.0984 23.4022C23.6817 23.6102 23.1265 23.4022 22.9874 22.9159C21.7371 19.9994 19.3063 17.7077 16.3203 16.7351C15.9731 16.5959 15.6955 16.3183 15.6955 15.9016V9.37362H9.79159V15.9711C9.79159 16.3183 9.58356 16.6655 9.23639 16.8046C4.79212 18.3324 1.87499 22.4991 1.87499 27.2217C1.87499 33.264 6.80557 38.2642 12.9175 38.2642C13.7503 38.2642 14.5837 38.1946 15.4172 37.9866C15.9028 37.8474 16.3202 38.1946 16.4587 38.6113C16.5978 39.0976 16.2507 39.5144 15.8339 39.6528C14.7229 39.8615 13.7503 40 12.7783 40Z" fill="white"/>
<path d="M4.86061 28.6809C4.37431 28.6809 3.95825 28.2642 3.95825 27.7785C3.95825 25.7644 4.58299 23.8895 5.69406 22.2225C6.80513 20.6251 8.33294 19.3749 10.1383 18.6806C10.5558 18.4726 11.111 18.7502 11.2501 19.1669C11.4581 19.5836 11.1805 20.1388 10.7645 20.278C7.7082 21.5282 5.69406 24.4447 5.69406 27.7785C5.69406 28.2642 5.34692 28.6809 4.86061 28.6809Z" fill="white"/>
<path d="M16.7364 38.2642H37.6408L29.8626 22.8463C29.7937 22.7078 29.7937 22.5687 29.7937 22.4302V11.1101H24.7233V22.4302C24.7233 22.5687 24.7233 22.7078 24.6544 22.8463L24.5848 22.9854L16.7364 38.2642ZM39.099 40H15.3484C15.0709 40 14.7926 39.8615 14.5838 39.5832C14.4447 39.3056 14.4447 39.0281 14.5838 38.7498L14.723 38.4722L22.9875 22.2911V10.2071C22.9875 9.72079 23.4042 9.30407 23.8898 9.30407H30.696C31.1824 9.30407 31.5991 9.72079 31.5991 10.2071V22.152L40.002 38.6113C40.1412 38.8889 40.1412 39.1665 40.002 39.4448C39.6549 39.792 39.3773 40 39.099 40Z" fill="white"/>
<path d="M30.6259 13.6808H28.0566C27.5703 13.6808 27.1536 13.2641 27.1536 12.7778C27.1536 12.2915 27.5703 11.8747 28.0566 11.8747H30.6259C31.1122 11.8747 31.529 12.2915 31.529 12.7778C31.529 13.2641 31.1122 13.6808 30.6259 13.6808Z" fill="white"/>
<path d="M30.6259 16.1792H28.0566C27.5703 16.1792 27.1536 15.7625 27.1536 15.2768C27.1536 14.7905 27.5703 14.3738 28.0566 14.3738H30.6259C31.1122 14.3738 31.529 14.7905 31.529 15.2768C31.529 15.7625 31.1122 16.1792 30.6259 16.1792Z" fill="white"/>
<path d="M30.6259 18.7501H28.0566C27.5703 18.7501 27.1536 18.3334 27.1536 17.8471C27.1536 17.3608 27.5703 16.9441 28.0566 16.9441H30.6259C31.1122 16.9441 31.529 17.3608 31.529 17.8471C31.529 18.3334 31.1122 18.7501 30.6259 18.7501Z" fill="white"/>
<path d="M20.4173 28.9594H11.9448C11.4585 28.9594 11.0417 28.5426 11.0417 28.0563C11.0417 27.57 11.4585 27.154 11.9448 27.154H20.4173C20.9036 27.154 21.3203 27.57 21.3203 28.0563C21.3203 28.5426 20.9036 28.9594 20.4173 28.9594Z" fill="white"/>
<path d="M23.0564 5.27675C22.849 5.27675 22.6403 5.48545 22.6403 5.69347C22.6403 5.90218 22.7788 6.11019 23.0564 6.11019C23.3347 6.11019 23.4738 5.90218 23.4738 5.69347C23.4738 5.41588 23.2651 5.27675 23.0564 5.27675ZM23.0564 7.84671C21.8757 7.84671 20.9038 6.87411 20.9038 5.69347C20.9038 4.51283 21.8757 3.5409 23.0564 3.5409C24.237 3.5409 25.2096 4.51283 25.2096 5.69347C25.2096 6.87411 24.237 7.84671 23.0564 7.84671Z" fill="white"/>
<path d="M32.5712 1.8054C31.8769 1.8054 31.2521 2.36129 31.2521 3.12519C31.2521 3.81952 31.8073 4.44428 32.5712 4.44428C33.2662 4.44428 33.891 3.8891 33.891 3.12519C33.891 2.36129 33.3351 1.8054 32.5712 1.8054ZM32.5712 6.11121C30.905 6.11121 29.5156 4.72255 29.5156 3.0556C29.5156 1.38866 30.905 2.38419e-06 32.5712 2.38419e-06C34.2382 2.38419e-06 35.6268 1.38866 35.6268 3.0556C35.6268 4.72255 34.2382 6.11121 32.5712 6.11121Z" fill="white"/>
</svg>
