<svg width="39" height="40" viewBox="0 0 39 40" fill="none" xmlns="http://www.w3.org/2000/svg">
<path d="M30.3916 35.9787C30.5275 36.1152 30.664 36.3883 30.664 36.5924C30.664 36.7965 30.5957 37.0695 30.3916 37.2054C30.2551 37.3419 29.9827 37.4102 29.778 37.4102C29.5738 37.4102 29.3015 37.3419 29.165 37.1371C29.0291 37.0013 28.8926 36.7289 28.8926 36.5241C28.8926 36.3193 28.9608 36.047 29.165 35.9111C29.3015 35.7746 29.5738 35.6381 29.778 35.6381C29.9827 35.6381 30.2551 35.7746 30.3916 35.9787Z" fill="white"/>
<path d="M9.949 1.91052C10.0855 2.04637 10.2214 2.3194 10.2214 2.52351C10.2214 2.72762 10.1538 2.99999 9.949 3.13652C9.74489 3.27304 9.54012 3.3413 9.33601 3.3413C9.13122 3.3413 8.85885 3.27304 8.723 3.06893C8.58648 2.93241 8.44995 2.66003 8.44995 2.45525C8.44995 2.25114 8.51822 1.9781 8.723 1.84226C8.85885 1.70573 9.13122 1.56921 9.33601 1.56921C9.54012 1.56921 9.81248 1.70573 9.949 1.91052Z" fill="white"/>
<path d="M9.949 35.9786C10.0855 36.1151 10.2214 36.3882 10.2214 36.5923C10.2214 36.7964 10.1538 37.0695 9.949 37.2053C9.81248 37.3418 9.54012 37.4101 9.33601 37.4101C9.13122 37.4101 8.85885 37.3418 8.723 37.1371C8.58648 37.0012 8.44995 36.7288 8.44995 36.524C8.44995 36.3193 8.51822 36.0469 8.723 35.911C8.85885 35.7745 9.13122 35.638 9.33601 35.638C9.54012 35.638 9.81248 35.7745 9.949 35.9786Z" fill="white"/>
<path d="M3.95227 3.61242C4.08879 3.74895 4.22464 4.02131 4.22464 4.22542C4.22464 4.4302 4.15638 4.70258 3.95227 4.8391C3.74749 4.97495 3.54339 5.11147 3.33928 5.11147C3.13449 5.11147 2.86212 5.04321 2.72559 4.8391C2.58907 4.63432 2.52148 4.4302 2.52148 4.22542C2.52148 4.02131 2.58907 3.74895 2.79386 3.61242C2.99797 3.47658 3.20276 3.34005 3.40686 3.34005C3.61165 3.34005 3.81575 3.40764 3.95227 3.61242Z" fill="white"/>
<path d="M3.95242 34.2755C4.08894 34.412 4.22479 34.6844 4.22479 34.8885C4.22479 35.0933 4.15653 35.3657 3.95242 35.5022C3.81589 35.638 3.54354 35.7746 3.33943 35.7746C3.13464 35.7746 2.86227 35.7063 2.72574 35.5022C2.58922 35.3657 2.45337 35.0933 2.45337 34.8885C2.45337 34.6844 2.52163 34.412 2.72574 34.2755C2.86227 34.1397 3.13464 34.0025 3.33943 34.0025C3.54354 34.0025 3.81589 34.0707 3.95242 34.2755Z" fill="white"/>
<path d="M1.97621 22.3516C1.77142 22.3516 1.56731 22.2834 1.43146 22.1475C0.477151 21.3297 0 20.3754 0 19.4218C0 17.1049 2.79399 15.1287 7.83657 13.9021C9.53973 13.4932 11.516 13.1525 13.5604 12.9484C14.5823 12.8119 15.6725 12.7436 16.7633 12.7436C17.5811 12.7436 18.3982 12.6754 19.1477 12.6754C19.9655 12.6754 20.7833 12.6754 21.6011 12.7436C22.6913 12.8119 23.7814 12.8801 24.804 12.9484C26.8478 13.1525 28.824 13.4932 30.5271 13.9021C32.0269 14.2427 33.3212 14.7198 34.4113 15.197C34.6161 15.2646 34.7519 15.4694 34.8885 15.6735C34.9567 15.8783 34.9567 16.1506 34.8202 16.3554C34.8202 16.3554 34.8202 16.3554 34.8202 16.423C34.8202 16.423 34.8202 16.423 34.8202 16.4913C34.7519 16.9684 34.2755 17.2408 33.7983 17.1732C33.4577 17.1049 33.1846 16.8326 33.117 16.5595C32.231 16.2189 31.2091 15.8783 30.0507 15.6059C28.4151 15.197 26.5071 14.8557 24.5309 14.7198C23.509 14.6516 22.4865 14.5157 21.4646 14.5157C20.7151 14.5157 19.8973 14.4475 19.0795 14.4475C18.3299 14.4475 17.5128 14.4475 16.7633 14.5157C15.6725 14.5833 14.6506 14.6516 13.628 14.7198C11.6525 14.9246 9.81211 15.2646 8.17721 15.6735C3.33941 16.9002 1.63557 18.4675 1.63557 19.5576C1.63557 19.8983 1.77142 20.1713 1.97621 20.4437C2.04447 20.4437 2.11273 20.3754 2.11273 20.3754C2.52163 20.1713 3.06638 20.3071 3.27116 20.716C3.47527 21.1249 3.33942 21.6704 2.92985 21.8745L2.86227 21.9427L2.794 22.011C2.72574 22.0793 2.72574 22.0793 2.72574 22.1475C2.58922 22.3516 2.3851 22.4882 2.11273 22.5557C2.04447 22.3516 1.97621 22.3516 1.97621 22.3516Z" fill="white"/>
<path d="M2.6586 21.8073C2.3173 21.8073 2.04492 21.6025 1.9084 21.3301C1.70429 20.9212 1.84081 20.3758 2.31729 20.1717C2.31729 20.1717 2.38556 20.1717 2.38556 20.1034C2.79445 19.8987 3.33986 20.1034 3.47571 20.5806C3.68049 20.9895 3.47572 21.5342 2.99856 21.6707C2.9303 21.739 2.79445 21.8073 2.6586 21.8073Z" fill="white"/>
<path d="M2.72588 21.738C2.38525 21.738 2.11287 21.5332 1.97635 21.2608C1.77156 20.8519 1.97635 20.3065 2.38524 20.1024C2.38524 20.1024 2.45351 20.1024 2.45351 20.0341C2.8624 19.83 3.40713 20.1024 3.54366 20.5113C3.74777 20.9202 3.47541 21.4649 3.06651 21.6015C2.92999 21.738 2.8624 21.738 2.72588 21.738Z" fill="white"/>
<path d="M2.86323 21.6707C2.5226 21.6707 2.18128 21.4659 2.04544 21.1252C1.90891 20.6488 2.1137 20.1716 2.59018 20.0351C2.65912 20.0351 2.72671 19.9668 2.72671 19.9668C3.20386 19.831 3.61275 20.1033 3.7486 20.5805C3.88512 21.057 3.61276 21.4659 3.1356 21.6024C3.06734 21.6707 2.93082 21.6707 2.86323 21.6707Z" fill="white"/>
<path d="M2.99817 21.6707C2.58928 21.6707 2.24932 21.3983 2.18038 20.9894C2.11279 20.5122 2.38517 20.1033 2.86233 19.9668H2.92991H2.99817H3.06644H3.1347H3.20296C3.68012 19.9668 4.089 20.3757 4.089 20.8529C4.089 21.33 3.7477 21.6707 3.27122 21.6707C3.27122 21.6707 3.27122 21.6707 3.20296 21.6707C3.1347 21.6707 3.06644 21.6707 2.99817 21.6707Z" fill="white"/>
<path d="M19.08 26.1674C18.2622 26.1674 17.4444 26.1674 16.6273 26.0991C15.5371 26.0315 14.5145 25.9632 13.4244 25.8943C11.3806 25.6909 9.47263 25.3496 7.7688 24.9407C6.61038 24.6683 5.52022 24.3277 4.56591 23.9188C4.56591 23.9188 4.56591 23.9188 4.49833 23.9188C4.29354 23.8505 4.15701 23.6464 4.02117 23.4416C3.95291 23.2375 3.95291 22.9644 4.02117 22.7603C4.02117 22.6921 4.08943 22.5556 4.08943 22.4197C4.08943 21.9426 4.49833 21.6019 4.97481 21.6019C5.45197 21.6019 5.79259 22.0108 5.79259 22.4197V22.488C5.79259 22.488 5.79259 22.488 5.79259 22.5556C6.47453 22.8286 7.29164 23.0327 8.10943 23.2375C9.74501 23.6464 11.5847 23.9188 13.5609 24.1229C14.5828 24.2594 15.6047 24.3277 16.6273 24.3277C18.1946 24.3959 19.7619 24.3959 21.3975 24.3277C22.4194 24.2594 23.4413 24.1911 24.4632 24.1229C26.4394 23.9188 28.2791 23.6464 29.9829 23.2375C34.8207 22.0791 36.5245 20.4435 36.5245 19.3533C36.5245 18.8762 36.2522 18.4673 35.9115 18.1267C35.6385 18.1949 35.3661 18.0584 35.1613 17.8543C34.8207 17.5137 34.8207 16.9682 35.1613 16.6276C35.1613 16.6276 35.1613 16.6276 35.2296 16.5593C35.4344 16.2187 35.9115 16.0822 36.3198 16.2187C36.388 16.2187 36.388 16.287 36.4563 16.287C37.8877 17.3771 38.2277 18.4673 38.2277 19.2168C38.2277 21.5337 35.4344 23.5099 30.3918 24.7366C28.688 25.1455 26.7117 25.4861 24.668 25.6909C23.6454 25.8267 22.6235 25.8943 21.5333 25.8943C20.7838 26.1673 19.8978 26.1674 19.08 26.1674Z" fill="white"/>
<path d="M35.4339 18.4669C35.0933 18.4669 34.752 18.2628 34.6161 17.8539C34.4796 17.3768 34.752 16.8996 35.1609 16.7638H35.2291C35.5698 16.4907 36.1152 16.4907 36.3876 16.832C36.7282 17.1726 36.6606 17.7174 36.3193 18.058C36.2517 18.058 36.2517 18.1263 36.1835 18.1263L36.1152 18.1946C35.9787 18.3311 35.7746 18.3993 35.5698 18.4669C35.5698 18.4669 35.5022 18.4669 35.4339 18.4669Z" fill="white"/>
<path d="M35.2298 18.5362C34.8209 18.5362 34.4803 18.2638 34.412 17.7867C34.3438 17.3095 34.6851 16.9006 35.1615 16.833C35.6387 16.7648 36.0476 17.0372 36.1841 17.4461C36.32 17.9232 35.9793 18.3321 35.5704 18.468C35.5028 18.468 35.5028 18.468 35.4346 18.468C35.2981 18.5362 35.2298 18.5362 35.2298 18.5362Z" fill="white"/>
<path d="M35.1608 18.5362C34.6843 18.5362 34.343 18.1956 34.343 17.7184C34.343 17.2413 34.6843 16.833 35.1608 16.833C35.638 16.7648 36.0469 17.1054 36.1151 17.5826C36.1834 18.0591 35.8427 18.468 35.4338 18.5362C35.2973 18.5362 35.2291 18.5362 35.1608 18.5362Z" fill="white"/>
<path d="M33.9342 17.3086C33.3894 17.3086 33.0488 16.8997 33.1171 16.4226C33.1171 16.355 33.1171 16.2867 33.1171 16.2184C33.1847 15.7413 33.5936 15.4006 34.0707 15.4689C34.5479 15.5372 34.8885 15.9461 34.8202 16.4226C34.8202 16.4226 34.8202 16.4226 34.8202 16.4908C34.752 16.968 34.3431 17.3086 33.9342 17.3086Z" fill="white"/>
<path d="M21.4652 37.4101C21.2611 37.4101 21.1246 37.3418 20.9887 37.2736C20.5799 37.0012 20.5116 36.4558 20.784 36.1151C21.6017 34.9574 22.3513 33.0488 22.896 30.6637C23.3049 28.9605 23.578 27.1208 23.7821 25.0757C23.8503 24.0545 23.9186 23.0319 23.9869 21.9417C23.9869 21.1239 24.0544 20.3062 24.0544 19.4884C24.0544 18.6713 24.0544 17.8535 23.9869 17.1039C23.9186 16.0138 23.8503 14.9912 23.7821 13.9693C23.578 11.9248 23.3049 10.0851 22.896 8.38199C21.7376 3.47594 20.1027 1.70385 19.1484 1.70385C19.0801 1.70385 18.9443 1.70385 18.8078 1.77211C18.8078 1.90863 18.876 1.9762 18.876 2.11273C18.9443 2.58989 18.6036 2.99811 18.1265 3.06705C17.6493 3.13464 17.2404 2.79399 17.1729 2.31752C17.1729 2.24926 17.1046 2.18099 17.1046 2.18099C16.8998 2.04447 16.8315 1.77211 16.8315 1.49974C16.8315 1.22669 16.9681 1.02258 17.1046 0.817791C17.7176 0.273048 18.3989 -3.8147e-06 19.1484 -3.8147e-06C21.4652 -3.8147e-06 23.3732 2.86227 24.5999 7.97311C25.0087 9.74453 25.3494 11.6525 25.5535 13.7652C25.69 14.7871 25.7583 15.8773 25.7583 16.9674C25.7583 17.7852 25.8265 18.603 25.8265 19.4208C25.8265 20.2386 25.8265 21.1239 25.7583 21.9417C25.69 23.0319 25.6218 24.122 25.5535 25.1446C25.3494 27.2567 25.0087 29.2329 24.5999 31.0043C23.9868 33.5942 23.1691 35.7063 22.2147 37.0695C22.0106 37.2736 21.7376 37.4101 21.4652 37.4101Z" fill="white"/>
<path d="M19.0797 38.9783C16.8311 38.91 14.9232 36.116 13.6972 31.0052C13.2883 29.2338 12.9476 27.2576 12.7428 25.1455C12.6063 24.0553 12.5387 22.9645 12.5387 21.8744C12.5387 21.0566 12.4705 20.2395 12.4705 19.4217C12.4705 18.6039 12.4705 17.7861 12.5387 16.9683C12.6063 15.8781 12.6746 14.7197 12.7428 13.6978C12.9476 11.5851 13.2883 9.67715 13.6972 7.90573C14.1736 5.86126 14.7873 4.15809 15.5368 2.86314C15.7409 2.45425 16.2864 2.3184 16.6952 2.52251C16.6952 2.52251 16.6952 2.52251 16.7635 2.52251C16.8311 2.52251 16.8994 2.59077 16.8994 2.59077C17.3765 2.59077 17.7172 2.999 17.7172 3.40789C17.7172 3.88505 17.3083 4.29393 16.8311 4.29393H16.7635C16.2864 5.38409 15.8092 6.7473 15.4003 8.31461C14.9914 10.0178 14.719 11.8575 14.5143 13.9019C14.446 14.9245 14.3101 16.0147 14.3101 17.1048C14.3101 17.8543 14.2419 18.6721 14.2419 19.4892C14.2419 20.307 14.2419 21.1248 14.3101 21.8744C14.3784 22.9645 14.446 23.9871 14.5143 25.009C14.719 27.0534 14.9914 28.8931 15.4003 30.5963C16.5587 35.503 18.126 37.2744 19.1479 37.2744C19.6251 37.2744 19.9657 37.6833 19.9657 38.1605C19.8975 38.5687 19.5568 38.9783 19.0797 38.9783Z" fill="white"/>
<path d="M18.2624 38.2972C18.1948 38.1613 18.1948 37.9565 18.1948 37.7517C18.1948 37.2753 18.5355 36.8664 19.0126 36.8664C19.4891 36.8664 19.898 37.207 19.898 37.6841C19.898 37.7517 19.898 37.8207 19.9663 37.9565L18.2624 38.2972Z" fill="white"/>
<path d="M21.4648 37.3428C21.2607 37.3428 21.0559 37.2745 20.8518 37.0704C20.7835 37.0021 20.647 36.9332 20.5112 36.9332C20.034 36.8656 19.6934 36.4567 19.7616 35.9796C19.8292 35.5031 20.2381 35.1618 20.7153 35.23C21.2607 35.299 21.7372 35.5031 22.0778 35.8437C22.4191 36.1843 22.4191 36.7298 22.0778 37.0704C21.8737 37.2745 21.6696 37.3428 21.4648 37.3428Z" fill="white"/>
<path d="M30.2556 6.47545C28.8248 6.47545 26.6445 7.29324 24.1911 8.85987C22.7603 9.74592 21.193 10.8361 19.6939 12.131C18.8762 12.8123 18.1266 13.4936 17.3771 14.1755C16.8317 14.7202 16.2187 15.265 15.6733 15.8104C15.1285 16.3558 14.5831 16.9688 14.0377 17.5142C13.3571 18.2638 12.6751 19.0809 11.9939 19.8987C10.7672 21.466 9.67705 23.0333 8.791 24.4648C6.20179 28.8254 6.13353 31.2105 6.81479 31.96C7.08784 32.2324 7.49673 32.3689 8.04147 32.3689C9.47293 32.3689 11.585 31.5511 14.1066 29.9838C15.5374 29.0984 17.1047 27.94 18.6038 26.7127C19.4209 26.0321 20.2387 25.3501 20.9889 24.6006C21.5336 24.0559 22.0784 23.5104 22.6238 22.965C23.1692 22.4203 23.7139 21.8749 24.1911 21.2619C24.9406 20.4441 25.6219 19.6263 26.2356 18.8085C27.5298 17.2412 28.6207 15.6739 29.4385 14.1755C32.0277 9.8142 32.0953 7.42908 31.414 6.74782C31.2099 6.6113 30.801 6.47545 30.2556 6.47545ZM8.04147 34.141C7.01957 34.141 6.20178 33.868 5.5881 33.2543C3.9532 31.6194 4.56622 28.2124 7.29195 23.7146C8.24626 22.1479 9.33642 20.5806 10.6307 18.945C11.3126 18.1272 11.9939 17.3095 12.7434 16.4917C13.2888 15.8787 13.8336 15.265 14.4466 14.7202C14.992 14.1072 15.605 13.5618 16.2187 13.0164C17.0365 12.2669 17.786 11.5856 18.6038 10.9043C20.1711 9.54181 21.806 8.45099 23.305 7.49735C25.2813 6.27067 28.0753 4.83987 30.2556 4.83987C31.2782 4.83987 32.0953 5.11225 32.7089 5.72593C34.2762 7.36083 33.7308 10.7678 31.0051 15.265C30.0515 16.833 28.9613 18.4003 27.6664 20.0352C26.9851 20.853 26.3032 21.739 25.5536 22.5561C25.0089 23.1698 24.4635 23.7146 23.9187 24.3282C23.3733 24.8737 22.7603 25.4867 22.2149 26.0321C21.3978 26.7816 20.58 27.5305 19.7622 28.2124C18.1266 29.5749 16.5593 30.6651 15.0603 31.6194C13.0158 32.7096 10.2218 34.141 8.04147 34.141Z" fill="white"/>
<path d="M8.04147 6.47545C7.49673 6.47545 7.08784 6.6113 6.81479 6.88434C6.06594 7.63319 6.20179 10.0183 8.791 14.3114C9.67705 15.8104 10.7672 17.3094 11.9939 18.945C12.6069 19.7628 13.2888 20.5806 14.0377 21.3301C14.5831 21.8749 15.1285 22.4885 15.6733 23.1016C16.2187 23.647 16.7641 24.1917 17.3088 24.7371C18.0584 25.4867 18.8762 26.1679 19.6939 26.8499C21.2613 28.1441 22.7603 29.2343 24.1911 30.1197C26.6445 31.6877 28.8248 32.5054 30.2556 32.5054C30.801 32.5054 31.2099 32.3689 31.4823 32.0959C32.2318 31.347 32.0953 28.9619 29.5061 24.6006C28.6207 23.1016 27.5298 21.6025 26.3032 20.0352C25.6219 19.2174 24.9406 18.4003 24.2594 17.5825C23.7822 17.0371 23.2375 16.4234 22.692 15.8787C22.1466 15.3332 21.5336 14.7202 20.9889 14.2431C20.2387 13.4936 19.4216 12.8123 18.6714 12.1993C17.1047 10.9044 15.605 9.81419 14.1742 8.92814C11.585 7.29324 9.404 6.47545 8.04147 6.47545ZM30.2556 34.141C28.007 34.141 25.2137 32.7095 23.3051 31.4829C21.806 30.5292 20.1711 29.3708 18.6038 28.0759C17.786 27.3946 16.9682 26.6451 16.1504 25.8949C15.605 25.3501 14.992 24.8047 14.4466 24.1917C13.8336 23.5787 13.2888 22.965 12.7434 22.4203C11.9939 21.6025 11.3126 20.7847 10.6307 19.9669C9.33642 18.332 8.178 16.6964 7.29195 15.1974C4.56622 10.7002 3.9532 7.29324 5.5881 5.65767C6.20178 5.04399 7.01957 4.77161 8.04147 4.77161C10.2907 4.77161 13.0841 6.20241 14.992 7.42909C16.4911 8.3834 18.0584 9.54181 19.6939 10.8361C20.5117 11.5173 21.3295 12.1993 22.0784 12.9488C22.6921 13.4936 23.2375 14.1072 23.8505 14.652C24.3959 15.265 25.0089 15.8104 25.486 16.4234C26.2356 17.2412 26.9168 18.059 27.5981 18.945C28.893 20.5806 30.0515 22.1479 30.9368 23.7146C33.6626 28.2124 34.2762 31.6194 32.6407 33.2543C32.0953 33.868 31.2782 34.141 30.2556 34.141Z" fill="white"/>
<path d="M16.8309 2.59055C17.0357 2.59055 17.104 2.45402 17.104 2.24991C17.104 2.11339 16.9674 1.97688 16.8309 1.97688C16.6951 1.97688 16.5585 2.11339 16.5585 2.31818C16.5585 2.45402 16.6268 2.59055 16.7633 2.59055C16.7633 2.52229 16.7633 2.59055 16.8309 2.59055ZM16.8309 4.29371H16.6951C16.422 4.29371 16.2179 4.22545 15.9455 4.0896C15.2636 3.74897 14.7871 3.0677 14.7871 2.24991C14.7871 1.15908 15.6725 0.205445 16.7633 0.205445C17.7852 0.205445 18.6706 0.954969 18.7388 2.04513C18.7388 2.11339 18.7388 2.18165 18.7388 2.24991C18.8754 3.34007 17.9217 4.29371 16.8309 4.29371Z" fill="white"/>
<path d="M34.7523 16.4235C34.7523 16.6283 34.8889 16.833 35.0254 16.833H35.0936C35.0936 16.833 35.0936 16.833 35.1612 16.7648C35.1612 16.6965 35.2295 16.6965 35.2295 16.56C35.2295 16.3559 35.0936 16.2194 34.9571 16.2194C34.9571 16.2194 34.8206 16.2876 34.7523 16.4235ZM35.0936 18.5362C34.0028 18.5362 33.1174 17.6502 33.1174 16.4918C33.1174 16.4235 33.1174 16.4235 33.1174 16.3559C33.1174 16.2876 33.1174 16.2194 33.1174 16.1511V16.0829C33.1174 16.0153 33.1174 15.947 33.185 15.8787C33.3898 14.9927 34.2076 14.3797 35.0936 14.3797C36.1838 14.3797 37.0698 15.2651 37.0698 16.4235C37.0698 16.8331 36.9333 17.2413 36.7285 17.5143C36.661 17.6502 36.5244 17.7867 36.3879 17.855L36.3197 17.9232L36.2521 17.9915C36.2521 17.9915 36.1838 17.9915 36.1838 18.0591C36.0473 18.1956 35.8432 18.2639 35.6384 18.3321C35.5701 18.3321 35.5025 18.4004 35.4343 18.4004H35.366C35.366 18.4004 35.366 18.4004 35.2978 18.4004H35.2295C35.1612 18.5362 35.0936 18.5362 35.0936 18.5362Z" fill="white"/>
<path d="M19.8979 37.8197C19.9662 38.0238 20.1709 38.2279 20.4433 38.2279C20.7839 38.2279 21.0563 37.8879 21.0563 37.6149C21.0563 37.4784 20.9887 37.2743 20.8522 37.1378C20.7839 37.0702 20.6474 37.0019 20.5116 37.0019H20.4433C20.0344 37.0019 19.8296 37.3425 19.8296 37.6149C19.8296 37.6832 19.8296 37.7507 19.8979 37.8197ZM20.4433 40C19.4207 40 18.5354 39.3863 18.2623 38.4327C18.1947 38.2279 18.1265 38.0238 18.1265 37.8197C18.1265 37.7507 18.1265 37.7507 18.1265 37.6832C18.1265 36.3889 19.1484 35.3663 20.4433 35.3663C20.5116 35.3663 20.5798 35.3663 20.7157 35.3663C21.1928 35.4346 21.67 35.6387 22.0106 35.9793C22.4871 36.4565 22.7602 37.0702 22.7602 37.6832C22.7602 38.9098 21.7376 40 20.4433 40Z" fill="white"/>
<path d="M3.06645 21.6703C2.99819 21.7385 2.99819 21.6703 3.06645 21.6703C2.92993 21.7385 2.92993 21.7385 2.92993 21.7385L2.86234 21.8068C2.79408 21.8744 2.79408 21.8744 2.79408 21.9427C2.72582 22.0792 2.65823 22.2157 2.65823 22.4198C2.65823 22.8963 2.99818 23.2376 3.47533 23.2376C3.81597 23.2376 4.08902 23.0328 4.22487 22.7604C4.29313 22.6922 4.29313 22.5557 4.29313 22.4198C4.29313 21.9427 3.88424 21.602 3.40709 21.602C3.40709 21.602 3.40709 21.602 3.3395 21.602C3.3395 21.602 3.3395 21.602 3.27124 21.602C3.13472 21.6703 3.06645 21.6703 3.06645 21.6703ZM3.3395 25.009C1.9763 25.009 0.817871 23.8506 0.817871 22.4881C0.817871 22.0109 0.954398 21.5338 1.22677 21.1249C1.29503 20.989 1.43154 20.8525 1.49912 20.7842C1.56739 20.716 1.63565 20.6484 1.70391 20.5801C1.7715 20.5119 1.7715 20.5119 1.84044 20.5119C1.90802 20.4436 1.97629 20.3753 2.11281 20.3753C2.18039 20.3753 2.1804 20.3071 2.24933 20.3071H2.31692H2.38518H2.45344C2.52171 20.3071 2.52171 20.3071 2.58929 20.2395C2.65823 20.2395 2.65823 20.2395 2.72582 20.1712C2.79408 20.1712 2.79408 20.1712 2.86234 20.1712H2.92993H2.99819H3.06645H3.13471C3.13471 20.1712 3.13471 20.1712 3.20298 20.1712C3.27124 20.1712 3.27124 20.1712 3.3395 20.1712C4.77029 20.1712 5.9287 21.3297 5.9287 22.6922C5.9287 22.7605 5.9287 22.7604 5.9287 22.8287C5.9287 23.1693 5.86044 23.4417 5.72391 23.7823C5.31502 24.396 4.3614 25.009 3.3395 25.009Z" fill="white"/>
<path d="M19.1485 17.8546C18.3307 17.8546 17.6495 18.5358 17.6495 19.4219C17.6495 20.3072 18.3307 20.9892 19.1485 20.9892C19.9663 20.9892 20.7158 20.2397 20.7158 19.4219C20.6476 18.6041 19.9663 17.8546 19.1485 17.8546ZM19.1485 22.6924C17.3771 22.6924 15.9463 21.1933 15.9463 19.4219C15.9463 17.6498 17.4447 16.1507 19.1485 16.1507C20.9206 16.1507 22.4197 17.5822 22.4197 19.4219C22.3514 21.2616 20.9206 22.6924 19.1485 22.6924Z" fill="white"/>
</svg>
