<svg width="18" height="18" viewBox="0 0 18 18" fill="none" xmlns="http://www.w3.org/2000/svg">
<path d="M11.5271 7.32145C11.1199 7.31535 11.1199 7.93775 11.5271 7.93165H11.6735V10.9112L8.24323 17.5539C8.21945 17.6004 8.20788 17.6523 8.20965 17.7047C8.21142 17.757 8.22646 17.808 8.25334 17.8528C8.28021 17.8975 8.318 17.9345 8.36308 17.9602C8.40816 17.9858 8.459 17.9993 8.51071 17.9993H17.6979C17.75 17.9993 17.8012 17.9856 17.8465 17.9595C17.8918 17.9335 17.9296 17.8959 17.9563 17.8506C17.983 17.8053 17.9977 17.7538 17.9988 17.701C18 17.6482 17.9876 17.5961 17.9629 17.5496L14.3845 10.9088V7.93104H14.5315C14.9387 7.93714 14.9387 7.31535 14.5315 7.32084L11.5271 7.32145ZM12.2759 7.93165H13.782V10.9863C13.7818 11.0374 13.7942 11.0878 13.8182 11.1328C14.9429 13.2184 16.0671 15.3029 17.1906 17.3897H9.00833C10.0837 15.2992 11.1644 13.216 12.2422 11.1279C12.265 11.0842 12.2772 11.0357 12.2777 10.9863L12.2759 7.93165Z" fill="#174940"/>
<path d="M11.4186 14.032L10.0005 16.7803H16.173L14.6929 14.032H11.4186Z" fill="#174940"/>
<path d="M1.20508 13.6921C1.20508 14.0928 1.28299 14.4895 1.43437 14.8597C1.58574 15.2299 1.80762 15.5662 2.08733 15.8495C2.36703 16.1328 2.69909 16.3576 3.06455 16.5109C3.43 16.6642 3.82169 16.7431 4.21726 16.7431C4.61282 16.7431 5.00452 16.6642 5.36997 16.5109C5.73542 16.3576 6.06748 16.1328 6.34719 15.8495C6.6269 15.5662 6.84877 15.2299 7.00015 14.8597C7.15153 14.4895 7.22944 14.0928 7.22944 13.6921H1.20508Z" fill="#174940"/>
<path d="M2.71471 6.25444C2.30746 6.24834 2.30746 6.87074 2.71471 6.86464H2.8605C2.8605 7.82143 2.85447 8.76846 2.85327 9.72647C0.965232 10.3891 -0.238435 12.2893 0.03989 14.317C0.180961 15.339 0.682264 16.2747 1.45126 16.9516C2.22026 17.6284 3.20504 18.0007 4.22381 17.9996C5.24231 17.9963 6.22531 17.6202 6.99164 16.9406C7.75797 16.2611 8.25597 15.3239 8.39387 14.3017C8.66497 12.2734 7.45588 10.3788 5.56664 9.7222C5.57266 8.76846 5.57266 7.81899 5.57266 6.86464H5.71845C6.1257 6.87074 6.1257 6.24834 5.71845 6.25444H2.71471ZM3.46414 6.86464H4.96902C4.96902 6.86464 4.963 8.8905 4.963 9.90831C4.96279 9.97503 4.98418 10.04 5.0239 10.0932C5.06361 10.1464 5.11946 10.185 5.18289 10.203C6.02491 10.4395 6.75386 10.9769 7.23479 11.7158C7.71573 12.4547 7.91609 13.345 7.79878 14.2221C7.68147 15.0991 7.25443 15.9034 6.59672 16.486C5.93901 17.0687 5.09517 17.3902 4.2214 17.3912C3.34746 17.394 2.50222 17.0754 1.84265 16.4946C1.18308 15.9139 0.754002 15.1104 0.635097 14.2334C0.513966 13.3572 0.710639 12.4662 1.18865 11.7256C1.66666 10.985 2.39357 10.4452 3.23461 10.2061C3.29774 10.1882 3.35337 10.1499 3.39305 10.097C3.43274 10.0441 3.45431 9.9796 3.4545 9.91319C3.46052 8.85023 3.46414 6.86464 3.46414 6.86464Z" fill="#174940"/>
<path d="M14.0057 5.79714C14.2055 5.79714 14.397 5.71678 14.5382 5.57373C14.6794 5.43069 14.7588 5.23668 14.7588 5.03439C14.7588 4.83209 14.6794 4.63809 14.5382 4.49504C14.397 4.352 14.2055 4.27164 14.0057 4.27164C13.806 4.27164 13.6145 4.352 13.4733 4.49504C13.332 4.63809 13.2527 4.83209 13.2527 5.03439C13.2527 5.23668 13.332 5.43069 13.4733 5.57373C13.6145 5.71678 13.806 5.79714 14.0057 5.79714ZM12.8009 2.13594C13.0006 2.13594 13.1921 2.05558 13.3334 1.91254C13.4746 1.76949 13.5539 1.57549 13.5539 1.37319C13.5539 1.1709 13.4746 0.976891 13.3334 0.833847C13.1921 0.690804 13.0006 0.610443 12.8009 0.610443C12.6011 0.610443 12.4096 0.690804 12.2684 0.833847C12.1272 0.976891 12.0478 1.1709 12.0478 1.37319C12.0478 1.57549 12.1272 1.76949 12.2684 1.91254C12.4096 2.05558 12.6011 2.13594 12.8009 2.13594ZM10.8429 4.57674C11.0427 4.57674 11.2342 4.49638 11.3754 4.35333C11.5167 4.21029 11.596 4.01628 11.596 3.81399C11.596 3.6117 11.5167 3.41769 11.3754 3.27464C11.2342 3.1316 11.0427 3.05124 10.8429 3.05124C10.6432 3.05124 10.4517 3.1316 10.3105 3.27464C10.1692 3.41769 10.0899 3.6117 10.0899 3.81399C10.0899 4.01628 10.1692 4.21029 10.3105 4.35333C10.4517 4.49638 10.6432 4.57674 10.8429 4.57674ZM7.83137 3.35634C8.03109 3.35634 8.22263 3.27598 8.36386 3.13294C8.50508 2.98989 8.58442 2.79588 8.58442 2.59359C8.58442 2.3913 8.50508 2.19729 8.36386 2.05425C8.22263 1.9112 8.03109 1.83084 7.83137 1.83084C7.63165 1.83084 7.44011 1.9112 7.29889 2.05425C7.15767 2.19729 7.07833 2.3913 7.07833 2.59359C7.07833 2.79588 7.15767 2.98989 7.29889 3.13294C7.44011 3.27598 7.63165 3.35634 7.83137 3.35634ZM5.27102 1.52574C5.36991 1.52574 5.46783 1.50601 5.5592 1.46768C5.65056 1.42935 5.73358 1.37317 5.8035 1.30234C5.87343 1.23151 5.9289 1.14743 5.96674 1.05488C6.00459 0.962344 6.02406 0.863159 6.02406 0.762993C6.02406 0.662828 6.00459 0.563643 5.96674 0.471102C5.9289 0.378561 5.87343 0.294476 5.8035 0.223648C5.73358 0.15282 5.65056 0.0966367 5.5592 0.058305C5.46783 0.0199732 5.36991 0.000244141 5.27102 0.000244141C5.0713 0.000244141 4.87976 0.080605 4.73854 0.223648C4.59731 0.366691 4.51797 0.5607 4.51797 0.762993C4.51797 0.965287 4.59731 1.15929 4.73854 1.30234C4.87976 1.44538 5.0713 1.52574 5.27102 1.52574ZM4.06554 5.03439C4.26526 5.03439 4.4568 4.95403 4.59803 4.81098C4.73925 4.66794 4.81859 4.47393 4.81859 4.27164C4.81859 4.06934 4.73925 3.87534 4.59803 3.73229C4.4568 3.58925 4.26526 3.50889 4.06554 3.50889C3.86582 3.50889 3.67429 3.58925 3.53306 3.73229C3.39184 3.87534 3.3125 4.06934 3.3125 4.27164C3.3125 4.47393 3.39184 4.66794 3.53306 4.81098C3.67429 4.95403 3.86582 5.03439 4.06554 5.03439Z" fill="#174940"/>
</svg>
