<svg width="26" height="24" viewBox="0 0 26 24" fill="none" xmlns="http://www.w3.org/2000/svg">
<path d="M16.7056 9.76014C16.149 9.752 16.149 10.5818 16.7056 10.5737H16.9057V14.5461L12.2173 23.4022C12.1848 23.4642 12.169 23.5334 12.1714 23.6032C12.1738 23.673 12.1944 23.741 12.2311 23.8007C12.2678 23.8604 12.3195 23.9097 12.3811 23.9439C12.4427 23.9781 12.5122 23.9961 12.5829 23.9961H25.1395C25.2107 23.996 25.2807 23.9778 25.3426 23.943C25.4046 23.9083 25.4563 23.8582 25.4928 23.7978C25.5293 23.7374 25.5493 23.6687 25.5509 23.5983C25.5525 23.528 25.5356 23.4585 25.5018 23.3965L20.6109 14.5429V10.5729H20.8118C21.3684 10.581 21.3684 9.752 20.8118 9.75933L16.7056 9.76014ZM17.729 10.5737H19.7875V14.6462C19.7872 14.7143 19.8042 14.7815 19.8369 14.8414C21.3742 17.6221 22.9106 20.4011 24.4462 23.1834H13.263C14.7327 20.3962 16.2099 17.6188 17.6829 14.8349C17.714 14.7767 17.7307 14.712 17.7315 14.6462L17.729 10.5737Z" fill="#10002B"/>
<path d="M16.5591 18.7075L14.6208 22.3717H23.0573L21.0342 18.7075H16.5591Z" fill="#10002B"/>
<path d="M2.59644 18.2551C2.59644 18.7893 2.70292 19.3182 2.90982 19.8117C3.11671 20.3053 3.41997 20.7537 3.80226 21.1314C4.18455 21.5091 4.6384 21.8087 5.13789 22.0131C5.63738 22.2176 6.17273 22.3228 6.71337 22.3228C7.25402 22.3228 7.78937 22.2176 8.28886 22.0131C8.78835 21.8087 9.24219 21.5091 9.62449 21.1314C10.0068 20.7537 10.31 20.3053 10.5169 19.8117C10.7238 19.3182 10.8303 18.7893 10.8303 18.2551H2.59644Z" fill="#10002B"/>
<path d="M4.66153 8.34137C4.10492 8.33323 4.10492 9.16303 4.66153 9.1549H4.86079C4.86079 10.4305 4.85256 11.6931 4.85091 12.9703C2.27041 13.8538 0.625287 16.3872 1.00569 19.0905C1.1985 20.453 1.88367 21.7006 2.9347 22.603C3.98574 23.5054 5.3317 24.0016 6.72412 24.0002C8.11617 23.9958 9.4597 23.4944 10.5071 22.5884C11.5545 21.6824 12.2351 20.4329 12.4236 19.0702C12.7941 16.366 11.1416 13.84 8.55945 12.9647C8.56768 11.6931 8.56768 10.4273 8.56768 9.1549H8.76694C9.32355 9.16303 9.32355 8.33323 8.76694 8.34137H4.66153ZM5.68583 9.1549H7.74265C7.74265 9.1549 7.73441 11.8558 7.73441 13.2128C7.73413 13.3017 7.76337 13.3883 7.81765 13.4593C7.87193 13.5303 7.94826 13.5817 8.03495 13.6057C9.18579 13.9209 10.1821 14.6374 10.8394 15.6225C11.4967 16.6076 11.7706 17.7947 11.6103 18.964C11.4499 20.1332 10.8663 21.2055 9.96733 21.9823C9.0684 22.7591 7.91507 23.1878 6.72082 23.1891C5.52635 23.1928 4.37111 22.768 3.46964 21.9938C2.56816 21.2195 1.98171 20.1483 1.8192 18.9791C1.65364 17.8109 1.92245 16.623 2.57577 15.6356C3.2291 14.6483 4.22262 13.9285 5.37212 13.6098C5.4584 13.5859 5.53443 13.5348 5.58867 13.4643C5.64291 13.3939 5.6724 13.3078 5.67265 13.2193C5.68089 11.8021 5.68583 9.1549 5.68583 9.1549Z" fill="#10002B"/>
<path d="M20.0944 7.72852C20.3673 7.72852 20.6291 7.62139 20.8222 7.43068C21.0152 7.23997 21.1236 6.98131 21.1236 6.71161C21.1236 6.44191 21.0152 6.18326 20.8222 5.99255C20.6291 5.80184 20.3673 5.6947 20.0944 5.6947C19.8214 5.6947 19.5596 5.80184 19.3666 5.99255C19.1736 6.18326 19.0651 6.44191 19.0651 6.71161C19.0651 6.98131 19.1736 7.23997 19.3666 7.43068C19.5596 7.62139 19.8214 7.72852 20.0944 7.72852ZM18.4476 2.84735C18.7206 2.84735 18.9824 2.74021 19.1754 2.5495C19.3684 2.3588 19.4768 2.10014 19.4768 1.83044C19.4768 1.56074 19.3684 1.30208 19.1754 1.11138C18.9824 0.920667 18.7206 0.813529 18.4476 0.813529C18.1746 0.813529 17.9128 0.920667 17.7198 1.11138C17.5268 1.30208 17.4184 1.56074 17.4184 1.83044C17.4184 2.10014 17.5268 2.3588 17.7198 2.5495C17.9128 2.74021 18.1746 2.84735 18.4476 2.84735ZM15.7716 6.10147C16.0446 6.10147 16.3063 5.99433 16.4994 5.80362C16.6924 5.61291 16.8008 5.35426 16.8008 5.08456C16.8008 4.81485 16.6924 4.5562 16.4994 4.36549C16.3063 4.17478 16.0446 4.06764 15.7716 4.06764C15.4986 4.06764 15.2368 4.17478 15.0438 4.36549C14.8508 4.5562 14.7424 4.81485 14.7424 5.08456C14.7424 5.35426 14.8508 5.61291 15.0438 5.80362C15.2368 5.99433 15.4986 6.10147 15.7716 6.10147ZM11.6555 4.47441C11.9284 4.47441 12.1902 4.36727 12.3833 4.17656C12.5763 3.98585 12.6847 3.7272 12.6847 3.4575C12.6847 3.1878 12.5763 2.92914 12.3833 2.73843C12.1902 2.54772 11.9284 2.44059 11.6555 2.44059C11.3825 2.44059 11.1207 2.54772 10.9277 2.73843C10.7347 2.92914 10.6262 3.1878 10.6262 3.4575C10.6262 3.7272 10.7347 3.98585 10.9277 4.17656C11.1207 4.36727 11.3825 4.47441 11.6555 4.47441ZM8.15608 2.03382C8.29124 2.03382 8.42508 2.00752 8.54995 1.95641C8.67482 1.90531 8.78829 1.8304 8.88386 1.73598C8.97943 1.64155 9.05524 1.52944 9.10697 1.40607C9.15869 1.28269 9.18531 1.15045 9.18531 1.01691C9.18531 0.883368 9.15869 0.751133 9.10697 0.627756C9.05524 0.504379 8.97943 0.392275 8.88386 0.297846C8.78829 0.203417 8.67482 0.128512 8.54995 0.0774077C8.42508 0.0263032 8.29124 0 8.15608 0C7.88311 0 7.62132 0.107139 7.4283 0.297846C7.23528 0.488554 7.12685 0.747209 7.12685 1.01691C7.12685 1.28661 7.23528 1.54527 7.4283 1.73598C7.62132 1.92668 7.88311 2.03382 8.15608 2.03382ZM6.50848 6.71161C6.78145 6.71161 7.04324 6.60447 7.23626 6.41377C7.42928 6.22306 7.53772 5.9644 7.53772 5.6947C7.53772 5.425 7.42928 5.16635 7.23626 4.97564C7.04324 4.78493 6.78145 4.67779 6.50848 4.67779C6.23551 4.67779 5.97372 4.78493 5.7807 4.97564C5.58768 5.16635 5.47925 5.425 5.47925 5.6947C5.47925 5.9644 5.58768 6.22306 5.7807 6.41377C5.97372 6.60447 6.23551 6.71161 6.50848 6.71161Z" fill="#10002B"/>
</svg>
