<svg width="25" height="24" viewBox="0 0 25 24" fill="none" xmlns="http://www.w3.org/2000/svg">
<path d="M15.7544 9.76014C15.1978 9.752 15.1978 10.5818 15.7544 10.5737H15.9545V14.5461L11.2661 23.4022C11.2336 23.4642 11.2178 23.5334 11.2202 23.6032C11.2226 23.673 11.2432 23.741 11.2799 23.8007C11.3167 23.8604 11.3683 23.9097 11.4299 23.9439C11.4915 23.9781 11.561 23.9961 11.6317 23.9961H24.1884C24.2596 23.996 24.3295 23.9778 24.3915 23.943C24.4534 23.9083 24.5051 23.8582 24.5416 23.7978C24.5781 23.7374 24.5981 23.6687 24.5997 23.5983C24.6013 23.528 24.5844 23.4585 24.5506 23.3965L19.6597 14.5429V10.5729H19.8606C20.4172 10.581 20.4172 9.752 19.8606 9.75933L15.7544 9.76014ZM16.7779 10.5737H18.8363V14.6462C18.836 14.7143 18.853 14.7815 18.8857 14.8414C20.423 17.6221 21.9594 20.4011 23.4951 23.1834H12.3118C13.7816 20.3962 15.2587 17.6188 16.7318 14.8349C16.7629 14.7767 16.7795 14.712 16.7803 14.6462L16.7779 10.5737Z" fill="#4A43DD"/>
<path d="M15.6079 18.7075L13.6697 22.3717H22.1061L20.083 18.7075H15.6079Z" fill="#4A43DD"/>
<path d="M1.64526 18.2551C1.64526 18.7893 1.75175 19.3182 1.95865 19.8117C2.16554 20.3053 2.46879 20.7537 2.85109 21.1314C3.23338 21.5091 3.68723 21.8087 4.18672 22.0131C4.68621 22.2176 5.22156 22.3228 5.7622 22.3228C6.30284 22.3228 6.83819 22.2176 7.33768 22.0131C7.83717 21.8087 8.29102 21.5091 8.67331 21.1314C9.05561 20.7537 9.35886 20.3053 9.56575 19.8117C9.77265 19.3182 9.87914 18.7893 9.87914 18.2551H1.64526Z" fill="#4A43DD"/>
<path d="M3.71036 8.34137C3.15375 8.33323 3.15375 9.16303 3.71036 9.1549H3.90962C3.90962 10.4305 3.90139 11.6931 3.89974 12.9703C1.31924 13.8538 -0.325885 16.3872 0.0545202 19.0905C0.247331 20.453 0.932494 21.7006 1.98353 22.603C3.03457 23.5054 4.38053 24.0016 5.77295 24.0002C7.165 23.9958 8.50853 23.4944 9.55592 22.5884C10.6033 21.6824 11.284 20.4329 11.4724 19.0702C11.843 16.366 10.1904 13.84 7.60828 12.9647C7.61651 11.6931 7.61651 10.4273 7.61651 9.1549H7.81577C8.37238 9.16303 8.37238 8.33323 7.81577 8.34137H3.71036ZM4.73465 9.1549H6.79148C6.79148 9.1549 6.78324 11.8558 6.78324 13.2128C6.78296 13.3017 6.8122 13.3883 6.86648 13.4593C6.92076 13.5303 6.99709 13.5817 7.08378 13.6057C8.23462 13.9209 9.23092 14.6374 9.88825 15.6225C10.5456 16.6076 10.8194 17.7947 10.6591 18.964C10.4987 20.1332 9.91509 21.2055 9.01616 21.9823C8.11723 22.7591 6.96389 23.1878 5.76965 23.1891C4.57518 23.1928 3.41994 22.768 2.51846 21.9938C1.61699 21.2195 1.03054 20.1483 0.868027 18.9791C0.70247 17.8109 0.971275 16.623 1.6246 15.6356C2.27793 14.6483 3.27145 13.9285 4.42094 13.6098C4.50723 13.5859 4.58326 13.5348 4.6375 13.4643C4.69174 13.3939 4.72122 13.3078 4.72148 13.2193C4.72971 11.8021 4.73465 9.1549 4.73465 9.1549Z" fill="#4A43DD"/>
<path d="M19.1432 7.72852C19.4162 7.72852 19.678 7.62139 19.871 7.43068C20.064 7.23997 20.1724 6.98131 20.1724 6.71161C20.1724 6.44191 20.064 6.18326 19.871 5.99255C19.678 5.80184 19.4162 5.6947 19.1432 5.6947C18.8702 5.6947 18.6084 5.80184 18.4154 5.99255C18.2224 6.18326 18.114 6.44191 18.114 6.71161C18.114 6.98131 18.2224 7.23997 18.4154 7.43068C18.6084 7.62139 18.8702 7.72852 19.1432 7.72852ZM17.4964 2.84735C17.7694 2.84735 18.0312 2.74021 18.2242 2.5495C18.4172 2.3588 18.5257 2.10014 18.5257 1.83044C18.5257 1.56074 18.4172 1.30208 18.2242 1.11138C18.0312 0.920667 17.7694 0.813529 17.4964 0.813529C17.2235 0.813529 16.9617 0.920667 16.7686 1.11138C16.5756 1.30208 16.4672 1.56074 16.4672 1.83044C16.4672 2.10014 16.5756 2.3588 16.7686 2.5495C16.9617 2.74021 17.2235 2.84735 17.4964 2.84735ZM14.8204 6.10147C15.0934 6.10147 15.3552 5.99433 15.5482 5.80362C15.7412 5.61291 15.8497 5.35426 15.8497 5.08456C15.8497 4.81485 15.7412 4.5562 15.5482 4.36549C15.3552 4.17478 15.0934 4.06764 14.8204 4.06764C14.5474 4.06764 14.2857 4.17478 14.0926 4.36549C13.8996 4.5562 13.7912 4.81485 13.7912 5.08456C13.7912 5.35426 13.8996 5.61291 14.0926 5.80362C14.2857 5.99433 14.5474 6.10147 14.8204 6.10147ZM10.7043 4.47441C10.9773 4.47441 11.2391 4.36727 11.4321 4.17656C11.6251 3.98585 11.7335 3.7272 11.7335 3.4575C11.7335 3.1878 11.6251 2.92914 11.4321 2.73843C11.2391 2.54772 10.9773 2.44059 10.7043 2.44059C10.4313 2.44059 10.1695 2.54772 9.97653 2.73843C9.78351 2.92914 9.67507 3.1878 9.67507 3.4575C9.67507 3.7272 9.78351 3.98585 9.97653 4.17656C10.1695 4.36727 10.4313 4.47441 10.7043 4.47441ZM7.20491 2.03382C7.34007 2.03382 7.47391 2.00752 7.59878 1.95641C7.72365 1.90531 7.83711 1.8304 7.93269 1.73598C8.02826 1.64155 8.10407 1.52944 8.1558 1.40607C8.20752 1.28269 8.23414 1.15045 8.23414 1.01691C8.23414 0.883368 8.20752 0.751133 8.1558 0.627756C8.10407 0.504379 8.02826 0.392275 7.93269 0.297846C7.83711 0.203417 7.72365 0.128512 7.59878 0.0774077C7.47391 0.0263032 7.34007 0 7.20491 0C6.93194 0 6.67015 0.107139 6.47713 0.297846C6.28411 0.488554 6.17567 0.747209 6.17567 1.01691C6.17567 1.28661 6.28411 1.54527 6.47713 1.73598C6.67015 1.92668 6.93194 2.03382 7.20491 2.03382ZM5.55731 6.71161C5.83028 6.71161 6.09207 6.60447 6.28509 6.41377C6.47811 6.22306 6.58654 5.9644 6.58654 5.6947C6.58654 5.425 6.47811 5.16635 6.28509 4.97564C6.09207 4.78493 5.83028 4.67779 5.55731 4.67779C5.28434 4.67779 5.02255 4.78493 4.82953 4.97564C4.63651 5.16635 4.52808 5.425 4.52808 5.6947C4.52808 5.9644 4.63651 6.22306 4.82953 6.41377C5.02255 6.60447 5.28434 6.71161 5.55731 6.71161Z" fill="#4A43DD"/>
</svg>
