<svg width="20" height="20" viewBox="0 0 20 20" fill="none" xmlns="http://www.w3.org/2000/svg">
<g clip-path="url(#clip0_441_14112)">
<path d="M9.9974 16.667C11.7655 16.667 13.4612 15.9646 14.7114 14.7144C15.9617 13.4641 16.6641 11.7684 16.6641 10.0003C16.6641 8.23222 15.9617 6.53652 14.7114 5.28628C13.4612 4.03604 11.7655 3.33366 9.9974 3.33366C8.22929 3.33366 6.53359 4.03604 5.28335 5.28628C4.03311 6.53652 3.33073 8.23222 3.33073 10.0003C3.33073 11.7684 4.03311 13.4641 5.28335 14.7144C6.53359 15.9646 8.22929 16.667 9.9974 16.667ZM9.9974 1.66699C11.0917 1.66699 12.1754 1.88254 13.1864 2.30133C14.1975 2.72012 15.1161 3.33395 15.89 4.10777C16.6638 4.88159 17.2776 5.80025 17.6964 6.8113C18.1152 7.82234 18.3307 8.90598 18.3307 10.0003C18.3307 12.2105 17.4528 14.3301 15.89 15.8929C14.3271 17.4557 12.2075 18.3337 9.9974 18.3337C5.38906 18.3337 1.66406 14.5837 1.66406 10.0003C1.66406 7.79019 2.54204 5.67057 4.10484 4.10777C5.66764 2.54497 7.78726 1.66699 9.9974 1.66699ZM10.4141 5.83366V10.2087L14.1641 12.4337L13.5391 13.4587L9.16406 10.8337V5.83366H10.4141Z" fill="#10002B"/>
</g>
<defs>
<clipPath id="clip0_441_14112">
<rect width="20" height="20" fill="white"/>
</clipPath>
</defs>
</svg>
