<svg width="26" height="25" viewBox="0 0 26 25" fill="none" xmlns="http://www.w3.org/2000/svg">
<path d="M2.78573 23.0734V22.0547H9.50409C10.9469 22.0547 10.8231 22.0547 10.9881 22.0547C11.0293 22.0547 11.0708 22.0547 11.1116 22.0547H23.3952V23.0734H2.78573ZM10.2873 15.9834H15.1516C15.1101 17.8578 14.3681 19.7729 12.6779 20.6286C13.2141 19.6099 13.0491 18.5097 13.0491 18.4282C13.0079 18.143 12.7606 17.9393 12.4721 17.98C12.1832 18.0208 11.9774 18.2652 12.0186 18.5505C12.0186 18.5505 12.2248 20.2618 10.9058 21.036H10.5346C11.4828 19.3654 10.7819 17.1243 10.2873 15.9834ZM13.2141 11.9087C14.6977 12.1939 15.8932 13.4163 16.1406 14.924C15.6871 14.924 9.33949 14.924 9.00944 14.924C9.25718 12.9681 11.1943 11.542 13.2141 11.9087ZM12.5956 1.19224C12.8841 1.19224 13.1318 1.43672 13.1318 1.72195V10.9308C12.7606 10.89 12.4721 10.89 12.1009 10.9308V1.6812C12.0602 1.39597 12.3071 1.19224 12.5956 1.19224ZM24.9615 23.0734H24.4257V21.525C24.4257 21.2398 24.1783 20.9953 23.8898 20.9953H13.9561C15.9344 19.4877 16.2229 17.0021 16.2229 15.9427H16.7175C17.006 15.9427 17.2538 15.6982 17.2122 15.4129C17.2122 13.4978 15.9755 11.7457 14.1207 11.053V1.6812C14.1207 0.825512 13.4203 0.132812 12.5548 0.132812C11.689 0.132812 11.0293 0.825512 11.0293 1.6812V11.0938C9.17486 11.7457 7.93778 13.4571 7.93778 15.4537C7.93778 15.7389 8.18512 15.9427 8.47402 15.9427H9.17485C9.5864 16.8391 10.6996 19.5691 9.33947 20.9953H2.29105C2.00216 20.9953 1.75523 21.2398 1.75523 21.525V23.0734H1.219C0.930506 23.0734 0.683594 23.3179 0.683594 23.6031C0.683594 23.8883 0.930506 24.1328 1.219 24.1328C4.55821 24.1328 21.5815 24.1328 24.9203 24.1328C25.2088 24.1328 25.4562 23.8883 25.4562 23.6031C25.4562 23.3179 25.2088 23.0734 24.9615 23.0734Z" fill="#174940"/>
<path d="M3.28038 6.24494C3.57579 6.24494 3.8158 6.48209 3.8158 6.77466C3.8158 7.06722 3.57579 7.30437 3.28038 7.30437C2.98415 7.30437 2.74414 7.06722 2.74414 6.77466C2.74414 6.48209 2.98415 6.24494 3.28038 6.24494Z" fill="#174940"/>
<path d="M5.38201 2.17065C5.67783 2.17065 5.91743 2.4078 5.91743 2.70036C5.91743 2.99292 5.67783 3.23007 5.38201 3.23007C5.08578 3.23007 4.84619 2.99292 4.84619 2.70036C4.84619 2.4078 5.08578 2.17065 5.38201 2.17065Z" fill="#174940"/>
<path d="M21.3337 2.17065C21.6295 2.17065 21.8695 2.4078 21.8695 2.70036C21.8695 2.99292 21.6295 3.23007 21.3337 3.23007C21.0378 3.23007 20.7979 2.99292 20.7979 2.70036C20.7979 2.4078 21.0378 2.17065 21.3337 2.17065Z" fill="#174940"/>
<path d="M17.7482 6.77497C18.0436 6.77497 18.2836 7.01212 18.2836 7.30468C18.2836 7.59725 18.0436 7.8344 17.7482 7.8344C17.4519 7.8344 17.2119 7.59725 17.2119 7.30468C17.2119 7.01212 17.4519 6.77497 17.7482 6.77497Z" fill="#174940"/>
<path d="M23.3947 14.3948C23.6909 14.3948 23.9305 14.6319 23.9305 14.9245C23.9305 15.217 23.6909 15.4542 23.3947 15.4542C23.0985 15.4542 22.8589 15.217 22.8589 14.9245C22.8589 14.6319 23.0985 14.3948 23.3947 14.3948Z" fill="#174940"/>
<path d="M17.7062 18.4691C18.0025 18.4691 18.242 18.7062 18.242 18.9988C18.242 19.2913 18.0025 19.5285 17.7062 19.5285C17.41 19.5285 17.1704 19.2913 17.1704 18.9988C17.1704 18.7062 17.41 18.4691 17.7062 18.4691Z" fill="#174940"/>
<path d="M12.5547 16.4722C12.8273 16.4722 13.049 16.691 13.049 16.9612C13.049 17.2313 12.8273 17.4501 12.5547 17.4501C12.2813 17.4501 12.0601 17.2313 12.0601 16.9612C12.0601 16.691 12.2813 16.4722 12.5547 16.4722Z" fill="#174940"/>
<path d="M7.93719 18.4691C8.23342 18.4691 8.47342 18.7062 8.47342 18.9988C8.47342 19.2913 8.23342 19.5285 7.93719 19.5285C7.64136 19.5285 7.40137 19.2913 7.40137 18.9988C7.40137 18.7062 7.64136 18.4691 7.93719 18.4691Z" fill="#174940"/>
<path d="M8.47374 9.30097C8.76915 9.30097 9.00916 9.53812 9.00916 9.83069C9.00916 10.1232 8.76915 10.3604 8.47374 10.3604C8.17751 10.3604 7.9375 10.1232 7.9375 9.83069C7.9375 9.53812 8.17751 9.30097 8.47374 9.30097Z" fill="#174940"/>
<path d="M22.2824 6.77437C22.2413 7.26333 21.8701 7.6708 21.3342 7.71155C21.3754 7.22258 21.7462 6.81511 22.2824 6.77437ZM20.7569 8.68948C22.3236 8.97471 23.6014 7.79304 23.2714 6.20391C23.2306 6.00017 23.0652 5.83718 22.8594 5.79644C21.2931 5.51121 20.0153 6.69287 20.3453 8.28201C20.3861 8.48574 20.5511 8.64873 20.7569 8.68948Z" fill="#174940"/>
<path d="M5.9591 7.22289C6.00026 6.73393 6.37145 6.32646 6.90687 6.28571C6.86612 6.77467 6.49452 7.1414 5.9591 7.22289ZM4.96975 7.79335C5.01091 7.99708 5.17594 8.16007 5.38212 8.20082C6.82456 8.48605 8.06123 7.42663 7.93736 6.00048L8.55591 5.34853C8.76209 5.14479 8.76209 4.81882 8.55591 4.61508C8.34973 4.41135 8.02009 4.41135 7.81391 4.61508L7.19536 5.22629C5.75292 5.14479 4.68126 6.32646 4.96975 7.79335Z" fill="#174940"/>
<path d="M5.38244 16.9608C5.42359 16.4719 5.7944 16.0644 6.33022 16.0236C6.28907 16.2681 5.91785 16.9201 5.38244 16.9608ZM6.90719 15.0457C5.34087 14.7605 4.06346 15.9421 4.39269 17.5313C4.43425 17.735 4.59888 17.898 4.80506 17.9387C6.37178 18.224 7.6492 17.0423 7.31955 15.4532C7.2784 15.2494 7.11337 15.0865 6.90719 15.0457Z" fill="#174940"/>
<path d="M22.1999 12.2749C21.7056 12.4786 21.2109 12.3156 20.9224 11.8674C21.2109 11.7859 21.9525 11.8267 22.1999 12.2749ZM18.7787 11.2155C18.6964 11.5007 18.861 11.7859 19.1084 11.8674L19.8915 12.1119C20.4277 13.4566 21.9941 13.864 23.1892 12.9269C23.3538 12.8046 23.4369 12.6009 23.3538 12.3971C22.9423 10.9302 21.4171 10.4005 20.2216 11.134L19.4384 10.8895C19.1499 10.808 18.861 10.9302 18.7787 11.2155Z" fill="#174940"/>
<path d="M4.68132 11.7868C4.18665 11.9906 3.69196 11.8276 3.40348 11.3794C3.9393 11.1756 4.43398 11.3386 4.68132 11.7868ZM1.58983 11.3386L2.37298 11.5831C2.9088 12.9277 4.47513 13.3352 5.67065 12.398C5.83526 12.2758 5.91757 12.0721 5.83526 11.8683C5.42331 10.4422 3.93931 9.87171 2.70264 10.6052L1.91947 10.3607C1.63098 10.2792 1.34249 10.4422 1.26018 10.6867C1.17787 10.9719 1.3425 11.2571 1.58983 11.3386Z" fill="#174940"/>
<path d="M21.3339 17.4906C21.3339 17.7759 21.0866 18.0204 20.7981 18.0204C20.5096 18.0204 20.2623 17.7759 20.2623 17.4906C20.2623 17.2054 20.5096 16.9609 20.7981 16.9609C21.0866 16.9609 21.3339 17.2054 21.3339 17.4906ZM19.2729 17.4906C19.2729 18.3463 19.9738 19.039 20.8397 19.039C21.7051 19.039 22.4056 18.3463 22.4056 17.4906C22.4056 16.635 21.6636 15.9423 20.8397 15.9423C20.015 15.9423 19.2729 16.635 19.2729 17.4906Z" fill="#174940"/>
<path d="M2.00194 15.4543C2.12581 15.4543 2.24927 15.5765 2.24927 15.6987C2.24927 15.821 2.16697 15.9432 2.00194 15.9432C1.83732 15.9432 1.75501 15.821 1.75501 15.6987C1.75501 15.5765 1.87848 15.4543 2.00194 15.4543ZM2.00194 16.9619C2.70279 16.9619 3.28018 16.3914 3.28018 15.6987C3.28018 15.006 2.70279 14.4356 2.00194 14.4356C1.30109 14.4356 0.724121 15.006 0.724121 15.6987C0.724121 16.3914 1.30109 16.9619 2.00194 16.9619Z" fill="#174940"/>
<path d="M17.4592 2.21146C17.8711 2.21146 18.2423 2.53744 18.2423 2.98566C18.2423 3.43387 17.9127 3.7191 17.4592 3.7191C17.0057 3.7191 16.676 3.39313 16.676 2.94491C16.676 2.49669 17.0472 2.21146 17.4592 2.21146ZM17.4592 4.73778C18.4485 4.73778 19.2728 3.92284 19.2728 2.94491C19.2728 1.96698 18.4485 1.15204 17.4592 1.15204C16.4698 1.15204 15.6455 1.96698 15.6455 2.94491C15.6455 3.92284 16.4698 4.73778 17.4592 4.73778Z" fill="#174940"/>
</svg>
