<svg width="25" height="25" viewBox="0 0 25 25" fill="none" xmlns="http://www.w3.org/2000/svg">
<path d="M16.8281 10.1183C17.4105 10.1183 17.8828 10.5903 17.8828 11.173C17.8828 11.755 17.4105 12.2273 16.8281 12.2273C16.2458 12.2273 15.7734 11.755 15.7734 11.173C15.7734 10.5903 16.2458 10.1183 16.8281 10.1183Z" fill="white"/>
<path d="M15.7315 17.5001C15.9428 17.2893 15.9428 16.994 15.7315 16.783C15.5207 16.5722 15.2253 16.5722 15.0145 16.783C14.8036 16.994 14.8036 17.2893 15.0145 17.5001C15.2253 17.6688 15.5207 17.6688 15.7315 17.5001ZM17.5878 11.8899C18.0091 11.4681 18.0091 10.7933 17.5878 10.4134C17.1661 9.99174 16.4913 9.99174 16.111 10.4134C15.7315 10.8356 15.6897 11.5104 16.111 11.8899C16.4913 12.3116 17.1661 12.3116 17.5878 11.8899ZM18.5153 3.87566C21.5526 6.91257 22.2697 11.3418 20.7511 15.0535C20.667 15.2221 20.5825 15.3912 20.4984 15.602C19.9921 16.614 19.3592 17.5846 18.5153 18.4277C17.7987 19.1446 16.9971 19.7354 16.1537 20.1994C15.9001 20.3257 15.6897 20.4525 15.4366 20.5793C11.6403 22.2662 7.08475 21.5491 3.96333 18.4704C-0.0437665 14.4632 -0.0437665 7.92501 3.96333 3.91792C7.97043 -0.131435 14.5082 -0.131435 18.5153 3.87566ZM12.1884 15.8124C12.6528 15.3489 12.8636 14.7582 12.8636 14.1256C12.8636 13.5349 12.6528 12.9023 12.1884 12.4383C11.7244 11.9744 11.1341 11.7635 10.5011 11.7635C9.9108 11.7635 9.27783 11.9744 8.81428 12.4383C8.35031 12.9023 8.13946 13.4926 8.13946 14.1256C8.13946 14.7582 8.35031 15.3489 8.81428 15.8124C9.27783 16.2769 9.86855 16.4877 10.5011 16.4877C11.0918 16.5295 11.7244 16.2769 12.1884 15.8124Z" fill="white"/>
<path d="M19.0636 24.375C18.9372 24.375 18.8104 24.3332 18.6841 24.2063L15.3937 20.9168C15.1832 20.7055 15.1832 20.3678 15.3937 20.157C15.6049 19.946 15.9426 19.946 16.1534 20.157L19.4434 23.4469C19.6543 23.6579 19.6543 23.9955 19.4434 24.2063C19.3589 24.2908 19.1903 24.375 19.0636 24.375Z" fill="#174940"/>
<path d="M23.9144 19.5244C23.7876 19.5244 23.6613 19.482 23.5345 19.3557L20.1604 15.9813C19.9491 15.7704 19.9491 15.4328 20.1604 15.2219C20.3713 15.0111 20.7089 15.0111 20.9193 15.2219L24.2938 18.5965C24.5051 18.8073 24.5051 19.1444 24.2938 19.3557C24.2098 19.482 24.0407 19.5244 23.9144 19.5244Z" fill="#174940"/>
<path d="M17.5873 22.857C17.4606 22.857 17.3342 22.8148 17.2075 22.6885C16.9966 22.4772 16.9966 22.1399 17.2075 21.9291L22.0584 17.0786C22.2693 16.8673 22.6069 16.8673 22.8177 17.0786C23.0282 17.2894 23.0282 17.6266 22.8177 17.8374L17.9668 22.7306C17.84 22.8148 17.7137 22.857 17.5873 22.857Z" fill="#174940"/>
<path d="M8.81395 12.9866C8.68719 12.9866 8.56042 12.9444 8.43407 12.8176L7.67474 12.0587C7.46389 11.8478 7.46389 11.5102 7.67474 11.2994C7.8856 11.0881 8.22322 11.0881 8.43407 11.2994L9.1934 12.0587C9.40425 12.2695 9.40425 12.6067 9.1934 12.8176C9.10889 12.9444 8.9403 12.9866 8.81395 12.9866Z" fill="#174940"/>
<path d="M12.9056 17.0785C12.7788 17.0785 12.6528 17.0357 12.5261 16.9094L11.809 16.1928C11.5982 15.9815 11.5982 15.6439 11.809 15.4331C12.0199 15.2222 12.3575 15.2222 12.5683 15.4331L13.3277 16.1928C13.5385 16.4036 13.5385 16.7409 13.3277 16.9517C13.2009 17.0357 13.0746 17.0785 12.9056 17.0785Z" fill="#174940"/>
<path d="M10.5007 12.3113C10.2058 12.3113 9.95264 12.0586 9.95264 11.7632V10.7085C9.95264 10.4131 10.2058 10.1604 10.5007 10.1604C10.7961 10.1604 11.0496 10.4131 11.0496 10.7085V11.7632C11.0069 12.0586 10.7961 12.3113 10.5007 12.3113Z" fill="#174940"/>
<path d="M10.5007 18.0903C10.2058 18.0903 9.95264 17.8372 9.95264 17.5419V16.4876C9.95264 16.1927 10.2058 15.9391 10.5007 15.9391C10.7961 15.9391 11.0496 16.1927 11.0496 16.4876V17.5419C11.0069 17.8372 10.7961 18.0903 10.5007 18.0903Z" fill="#174940"/>
<path d="M12.1885 12.9866C12.0621 12.9866 11.9358 12.9444 11.809 12.8176C11.5982 12.6067 11.5982 12.2695 11.809 12.0587L12.5683 11.2994C12.7788 11.0881 13.1164 11.0881 13.3277 11.2994C13.5385 11.5102 13.5385 11.8478 13.3277 12.0587L12.5683 12.8176C12.4416 12.9444 12.3152 12.9866 12.1885 12.9866Z" fill="#174940"/>
<path d="M8.05419 17.0785C7.92827 17.0785 7.80151 17.0357 7.67474 16.9094C7.46389 16.6986 7.46389 16.361 7.67474 16.1501L8.43407 15.3912C8.64535 15.1804 8.98254 15.1804 9.1934 15.3912C9.40425 15.6021 9.40425 15.9393 9.1934 16.1501L8.43407 16.9517C8.34998 17.0357 8.22321 17.0785 8.05419 17.0785Z" fill="#174940"/>
<path d="M8.13938 14.6738H7.08468C6.78932 14.6738 6.53662 14.4202 6.53662 14.1253C6.53662 13.8299 6.78932 13.5772 7.08468 13.5772H8.13938C8.43433 13.5772 8.68742 13.8299 8.68742 14.1253C8.68742 14.4202 8.43433 14.6738 8.13938 14.6738Z" fill="#174940"/>
<path d="M13.9177 14.6738H12.8634C12.568 14.6738 12.3149 14.4202 12.3149 14.1253C12.3149 13.8299 12.568 13.5772 12.8634 13.5772H13.9177C14.213 13.5772 14.4662 13.8299 14.4662 14.1253C14.4662 14.4202 14.213 14.6738 13.9177 14.6738Z" fill="#174940"/>
<path d="M11.2606 1.38745C8.6454 1.38745 6.1988 2.39989 4.34252 4.25534C2.48665 6.11162 1.47462 8.55822 1.47462 11.1734C1.47462 13.7886 2.48665 16.2348 4.34252 18.0906C6.1988 19.9464 8.64539 20.959 11.2179 20.959C12.6098 20.959 13.9599 20.6636 15.1832 20.1156C15.4363 20.0306 15.6472 19.9046 15.858 19.778C16.6596 19.314 17.4185 18.7656 18.0937 18.0906C18.8949 17.2895 19.5275 16.4038 19.9919 15.4332C20.076 15.2646 20.1605 15.096 20.2027 14.927C21.721 11.2575 20.8775 7.12406 18.0937 4.29759C16.2797 2.39989 13.8331 1.38745 11.2606 1.38745ZM11.2606 21.9715C8.39187 21.9715 5.65031 20.8322 3.62585 18.8077C1.55871 16.7411 0.419922 14.0413 0.419922 11.1734C0.419922 8.30469 1.55872 5.56315 3.5836 3.53868C5.60807 1.51379 8.35003 0.375006 11.2179 0.375006C14.0862 0.375006 16.8282 1.51379 18.8527 3.53868C20.3713 5.05692 21.4256 6.9973 21.8055 9.14853C22.1849 11.2153 21.9741 13.3665 21.1725 15.3064C21.0884 15.4755 21.0043 15.6867 20.9194 15.8553C20.4132 16.9519 19.6965 17.9643 18.8104 18.8077C18.0937 19.5248 17.2499 20.1574 16.3642 20.6636C16.1107 20.7904 15.858 20.9172 15.6049 21.043C14.2552 21.6338 12.7784 21.9715 11.2606 21.9715Z" fill="#174940"/>
<path d="M5.48138 17.4579C5.35461 17.4579 5.22826 17.4155 5.1015 17.2892C3.45649 15.6438 2.5708 13.4507 2.5708 11.1309C2.5708 8.81062 3.45649 6.61755 5.1015 4.97212C6.74651 3.32753 8.93999 2.44143 11.2602 2.44143C13.5797 2.44143 15.7731 3.32753 17.4182 4.97212C17.629 5.18298 17.629 5.5206 17.4182 5.73187C17.2073 5.94273 16.8701 5.94273 16.6592 5.73187C15.2247 4.2973 13.2843 3.49613 11.2602 3.49613C9.23536 3.49613 7.29498 4.2973 5.86083 5.73187C4.42667 7.16561 3.6255 9.10599 3.6255 11.1309C3.6255 13.1553 4.42667 15.0957 5.86083 16.5294C6.07168 16.7408 6.07168 17.0784 5.86083 17.2892C5.73448 17.4155 5.60772 17.4579 5.48138 17.4579Z" fill="#174940"/>
<path d="M10.501 12.3116C9.99475 12.3116 9.5312 12.5224 9.19358 12.86C8.85596 13.1972 8.64552 13.6616 8.64552 14.1678C8.64552 14.6741 8.85596 15.1376 9.19358 15.4752C9.5312 15.8124 9.99475 16.0233 10.501 16.0233C11.0072 16.0233 11.4712 15.8124 11.8088 15.4752C12.1464 15.1376 12.3573 14.6741 12.3573 14.1678C12.3573 13.6616 12.1464 13.1972 11.8088 12.86C11.4712 12.4806 11.0072 12.3116 10.501 12.3116ZM10.501 17.0356C9.74205 17.0356 8.98273 16.7408 8.43425 16.1927C7.88577 15.6438 7.59082 14.9267 7.59082 14.1256C7.59082 13.324 7.88577 12.6069 8.43425 12.0589C8.98273 11.5104 9.6998 11.215 10.501 11.215C11.2607 11.215 12.0196 11.5104 12.5681 12.0589C13.1162 12.6069 13.4115 13.324 13.4115 14.1256C13.4115 14.8849 13.1162 15.6438 12.5681 16.1927C12.0196 16.7408 11.2607 17.0356 10.501 17.0356Z" fill="#174940"/>
<path d="M12.3989 9.31694C11.5132 9.31694 10.7961 8.59986 10.7961 7.71418V7.16571C10.7961 7.03936 10.7543 6.9126 10.6275 6.78625C10.5434 6.70174 10.4166 6.61765 10.248 6.61765C9.95268 6.61765 9.69958 6.87034 9.69958 7.16571V7.71418C9.69958 8.13589 9.53098 8.51577 9.23562 8.85297C8.94025 9.14834 8.56037 9.31694 8.09682 9.31694C7.21072 9.31694 6.49365 8.59986 6.49365 7.71418V6.65949C6.49365 6.36412 6.74677 6.11143 7.04255 6.11143C7.3375 6.11143 7.59059 6.36412 7.59059 6.65949V7.71418C7.59059 8.00955 7.84372 8.26266 8.13908 8.26266C8.26543 8.26266 8.39177 8.22041 8.51853 8.09364C8.60262 8.00955 8.68713 7.84095 8.68713 7.71418V7.16571C8.68713 6.28003 9.40421 5.56295 10.2899 5.56295C10.712 5.56295 11.0915 5.73197 11.4291 6.02692C11.724 6.32229 11.8926 6.70174 11.8926 7.16571V7.71418C11.8926 8.00955 12.1462 8.26266 12.4411 8.26266C12.5679 8.26266 12.6942 8.22041 12.821 8.09364C12.9051 8.00955 12.9896 7.84095 12.9896 7.71418V7.16571C12.9896 6.28003 13.7067 5.56295 14.5924 5.56295H15.6471C15.9424 5.56295 16.1951 5.81606 16.1951 6.11143C16.1951 6.40638 15.9424 6.65949 15.6471 6.65949H14.5924C14.297 6.65949 14.0443 6.9126 14.0443 7.20796V7.75644C14.0443 8.17815 13.8757 8.55802 13.5799 8.89523C13.2427 9.14834 12.821 9.31694 12.3989 9.31694Z" fill="#174940"/>
<path d="M16.8279 10.6245C16.7011 10.6245 16.5748 10.6668 16.448 10.7931C16.2372 11.004 16.2372 11.3416 16.448 11.5525C16.5325 11.6366 16.6593 11.7211 16.8279 11.7211C16.9965 11.7211 17.081 11.6792 17.2073 11.5525C17.4182 11.3416 17.4182 11.004 17.2073 10.7931C17.1228 10.6668 16.9965 10.6245 16.8279 10.6245ZM16.8279 12.7335C16.4058 12.7335 16.0263 12.5649 15.6891 12.2695C15.0561 11.6366 15.0561 10.6668 15.6891 10.0338C15.9845 9.73885 16.3639 9.57025 16.8279 9.57025C17.2496 9.57025 17.629 9.73885 17.9667 10.0338C18.5997 10.6668 18.5997 11.6366 17.9667 12.2695C17.6713 12.5649 17.2496 12.7335 16.8279 12.7335Z" fill="#174940"/>
<path d="M15.3523 17.0783C15.3523 17.1202 15.3523 17.1202 15.3523 17.0783C15.31 17.1202 15.31 17.1202 15.31 17.1202C15.31 17.1202 15.31 17.1202 15.3523 17.1202C15.3523 17.1202 15.3523 17.1202 15.3941 17.1202C15.3941 17.1202 15.3941 17.1202 15.3523 17.0783C15.3941 17.0783 15.3941 17.1202 15.3523 17.0783ZM15.3523 18.1326C15.0992 18.1326 14.8038 18.0063 14.6352 17.8371C14.2557 17.4578 14.2557 16.7829 14.6352 16.4034C14.846 16.1926 15.0992 16.1077 15.3523 16.1077C15.6054 16.1077 15.9003 16.2345 16.0693 16.4034C16.2802 16.6139 16.3647 16.8671 16.3647 17.1202C16.3647 17.3732 16.2379 17.6687 16.0693 17.8371C15.9003 18.0481 15.6476 18.1326 15.3523 18.1326Z" fill="#174940"/>
</svg>
