<svg width="22" height="25" viewBox="0 0 22 25" fill="none" xmlns="http://www.w3.org/2000/svg">
<path d="M20.8651 20.2161V23.814H3.73347C2.17988 23.814 0.912598 22.5467 0.912598 20.9931C0.912598 20.2161 1.23945 19.5211 1.73014 18.9894C2.22083 18.4991 2.95688 18.1719 3.73347 18.1719H18.0438H20.8651V20.2161Z" fill="white"/>
<path d="M20.8651 24.3047H3.73344C1.89355 24.3047 0.421875 22.833 0.421875 20.9931C0.421875 20.0937 0.749146 19.2757 1.40327 18.6626C2.01643 18.0494 2.87493 17.6812 3.73344 17.6812C4.01975 17.6812 4.26509 17.9265 4.26509 18.2128C4.26509 18.4991 4.01975 18.7441 3.73344 18.7441C3.12028 18.7441 2.54807 18.9894 2.09834 19.3986C1.6482 19.8483 1.44382 20.4205 1.44382 21.0337C1.44382 22.3014 2.46616 23.3233 3.73344 23.3233H20.3334V18.6626H18.0438C17.7575 18.6626 17.5121 18.4172 17.5121 18.1309C17.5121 17.8446 17.7575 17.5996 18.0438 17.5996H20.8651C21.1514 17.5996 21.3967 17.8446 21.3967 18.1309V23.7734C21.3557 24.0593 21.1104 24.3047 20.8651 24.3047Z" fill="#174940"/>
<path d="M18.2894 15.106H18.044C17.7577 15.106 17.5124 14.8607 17.5124 14.5748C17.5124 14.37 17.6352 14.2066 17.7577 14.1251V9.99555H7.04563C5.90082 9.99555 5.00135 10.895 5.00135 12.0398C5.00135 12.5711 5.20574 13.1027 5.61451 13.4709C5.98273 13.8388 6.51398 14.0841 7.04563 14.0841C7.33193 14.0841 7.57688 14.3294 7.57688 14.6153C7.57688 14.9016 7.33193 15.147 7.04563 15.147C6.22808 15.147 5.45109 14.8201 4.87848 14.2475C4.30627 13.6753 3.979 12.8983 3.979 12.0804C3.979 10.4043 5.36917 9.01416 7.04563 9.01416H18.2894C18.5757 9.01416 18.821 9.25951 18.821 9.5454V14.5748C18.821 14.8607 18.5757 15.106 18.2894 15.106Z" fill="#174940"/>
<path d="M3.97897 17.6413H18.044C18.3712 17.6413 18.6981 17.5189 18.9434 17.2735C19.1888 17.0282 19.3113 16.7009 19.3113 16.3741C19.3113 15.679 18.739 15.1064 18.044 15.1064H3.97897V17.6413ZM18.044 18.6637H3.48828C3.20238 18.6637 2.95703 18.4183 2.95703 18.132V14.5751C2.95703 14.2888 3.20238 14.0435 3.48828 14.0435H18.044C19.3113 14.0435 20.3336 15.0658 20.3336 16.3331C20.3336 16.9463 20.0883 17.5189 19.6795 17.9686C19.2297 18.4183 18.6571 18.6637 18.044 18.6637Z" fill="#174940"/>
<path d="M20.8653 22.2612H4.51066C4.22435 22.2612 3.979 22.0159 3.979 21.7296C3.979 21.4437 4.22435 21.1983 4.51066 21.1983H20.8653C21.1516 21.1983 21.3969 21.4437 21.3969 21.7296C21.356 22.0159 21.1106 22.2612 20.8653 22.2612Z" fill="#174940"/>
<path d="M20.8653 20.7072H4.51066C4.22435 20.7072 3.979 20.4618 3.979 20.1755C3.979 19.8896 4.22435 19.6443 4.51066 19.6443H20.8653C21.1516 19.6443 21.3969 19.8896 21.3969 20.1755C21.356 20.4618 21.1106 20.7072 20.8653 20.7072Z" fill="#174940"/>
<path d="M15.7548 15.1054C15.4685 15.1054 15.2231 14.8601 15.2231 14.5742V9.46327C15.2231 9.17697 15.4685 8.93161 15.7548 8.93161C16.0411 8.93161 16.2865 9.17697 16.2865 9.46327V14.5742C16.2455 14.8601 16.0001 15.1054 15.7548 15.1054Z" fill="#174940"/>
<path d="M10.8477 8.72782H10.9296C11.0115 8.72782 11.093 8.72781 11.175 8.76877C11.4203 8.89165 11.6656 8.93219 11.911 8.93219C12.8105 8.93219 14.2416 6.56107 14.2416 4.5983C14.2416 4.06706 14.1187 3.61692 13.8734 3.33102C13.628 3.00376 13.2602 2.88128 12.7285 2.88128C12.1973 2.88128 11.7066 3.12663 11.4203 3.57636C11.3793 3.61691 11.3793 3.65787 11.3384 3.69883C11.2569 3.86226 11.093 3.98514 10.8886 3.98514C10.6843 3.98514 10.5208 3.86226 10.4389 3.69883C10.153 3.20814 9.62136 2.88128 9.04875 2.88128C8.51751 2.88128 8.14929 3.04472 7.90394 3.33102C7.6586 3.61692 7.53614 4.06706 7.53614 4.5983C7.53614 6.56107 8.96725 8.93219 9.86631 8.93219C10.1117 8.93219 10.357 8.85069 10.6023 8.76877C10.6843 8.72781 10.7662 8.72782 10.8477 8.72782ZM11.911 9.9955C11.5837 9.9955 11.2159 9.91359 10.9296 9.79071C10.6023 9.91359 10.2755 9.9955 9.94863 9.9955C9.13068 9.9955 8.27217 9.30042 7.57669 8.11465C6.96353 7.05176 6.5957 5.74312 6.5957 4.68022C6.5957 3.90323 6.8001 3.2491 7.16832 2.75841C7.49517 2.34963 8.06737 1.89991 9.13067 1.89991C9.82575 1.89991 10.4799 2.1858 10.9706 2.63594C11.4613 2.14525 12.1154 1.89991 12.8105 1.89991C13.8733 1.89991 14.4869 2.34963 14.7728 2.75841C15.141 3.2491 15.3454 3.86227 15.3454 4.68022C15.3454 5.74312 14.9772 7.05176 14.364 8.11465C13.587 9.30042 12.7285 9.9955 11.911 9.9955Z" fill="#174940"/>
<path d="M11.012 3.82106C10.7667 3.82106 10.5623 3.65721 10.5213 3.41187C10.5213 3.41187 10.5213 3.41188 10.5213 3.37092C9.98968 1.12225 11.012 0.386201 11.1345 0.30469L11.6661 1.16321C11.6661 1.16321 11.1345 1.61294 11.5027 3.12598C11.5842 3.41187 11.3798 3.65723 11.1345 3.73914C11.0935 3.82106 11.0526 3.82106 11.012 3.82106Z" fill="#174940"/>
<path d="M11.6658 8.44148C11.5024 8.44148 11.3385 8.35997 11.257 8.23709C11.0932 7.99175 11.1341 7.70584 11.3795 7.54201C11.9931 7.13324 12.1974 6.3157 12.1974 6.3157C12.279 6.02939 12.5653 5.86596 12.8106 5.94747C13.0969 6.02939 13.2603 6.31569 13.1784 6.56103C13.1784 6.60199 12.8516 7.7464 11.9521 8.40093C11.8702 8.40093 11.7883 8.44148 11.6658 8.44148Z" fill="#174940"/>
</svg>
