<svg width="41" height="40" viewBox="0 0 41 40" fill="none" xmlns="http://www.w3.org/2000/svg">
<path d="M26.2572 16.271C25.3295 16.2574 25.3295 17.6404 26.2572 17.6269H26.5907V24.2478L18.7766 39.0082C18.7224 39.1116 18.6961 39.227 18.7001 39.3433C18.7041 39.4596 18.7384 39.5729 18.7996 39.6724C18.8608 39.7718 18.9469 39.854 19.0496 39.9111C19.1523 39.9681 19.2681 39.9981 19.3859 39.998H40.3141C40.4328 39.998 40.5495 39.9675 40.6527 39.9096C40.7559 39.8517 40.8421 39.7683 40.9029 39.6676C40.9638 39.5669 40.9971 39.4524 40.9998 39.3351C41.0024 39.2179 40.9742 39.102 40.918 38.9987L32.7663 24.2424V17.6255H33.1011C34.0288 17.6391 34.0288 16.2574 33.1011 16.2696L26.2572 16.271ZM27.9631 17.6269H31.3939V24.4146C31.3933 24.5281 31.4217 24.64 31.4763 24.74C34.0384 29.3745 36.5992 34.0063 39.1586 38.6435H20.5195C22.9691 33.9981 25.4311 29.3691 27.8862 24.7291C27.9381 24.6321 27.9658 24.5243 27.9672 24.4146L27.9631 17.6269Z" fill="#4A43DD"/>
<path d="M26.0142 31.1807L22.7837 37.2877H36.8447L33.4729 31.1807H26.0142Z" fill="#4A43DD"/>
<path d="M2.74219 30.4229C2.74219 31.3132 2.91967 32.1947 3.2645 33.0173C3.60934 33.8398 4.11477 34.5872 4.75193 35.2167C5.3891 35.8463 6.14553 36.3456 6.97803 36.6863C7.81053 37.027 8.7028 37.2024 9.60389 37.2024C10.505 37.2024 11.3973 37.027 12.2298 36.6863C13.0623 36.3456 13.8187 35.8463 14.4558 35.2167C15.093 34.5872 15.5984 33.8398 15.9433 33.0173C16.2881 32.1947 16.4656 31.3132 16.4656 30.4229H2.74219Z" fill="#4A43DD"/>
<path d="M6.18406 13.9024C5.25636 13.8889 5.25636 15.2719 6.18406 15.2584H6.51617C6.51617 17.3844 6.50245 19.4888 6.4997 21.6176C2.19878 23.0901 -0.543153 27.3124 0.0908688 31.8181C0.412228 34.089 1.55419 36.1683 3.30596 37.6723C5.05772 39.1763 7.30103 40.0035 9.62178 40.001C11.9419 39.9937 14.1812 39.158 15.9269 37.648C17.6725 36.138 18.807 34.0554 19.1211 31.7842C19.7387 27.2771 16.9844 23.067 12.6807 21.6081C12.6944 19.4888 12.6944 17.379 12.6944 15.2584H13.0266C13.9543 15.2719 13.9543 13.8889 13.0266 13.9024H6.18406ZM7.89125 15.2584H11.3194C11.3194 15.2584 11.3056 19.76 11.3056 22.0216C11.3052 22.1699 11.3539 22.3142 11.4444 22.4325C11.5348 22.5508 11.6621 22.6365 11.8065 22.6765C13.7247 23.2019 15.3852 24.396 16.4808 26.0379C17.5763 27.6798 18.0327 29.6583 17.7655 31.6071C17.4983 33.5559 16.5255 35.3431 15.0272 36.6378C13.529 37.9325 11.6067 38.647 9.61629 38.6492C7.62546 38.6553 5.70002 37.9474 4.19753 36.6569C2.69504 35.3664 1.71761 33.581 1.44674 31.6323C1.17081 29.6853 1.61883 27.7054 2.70772 26.0598C3.79662 24.4142 5.45253 23.2146 7.36839 22.6833C7.5122 22.6435 7.63892 22.5584 7.72932 22.4409C7.81973 22.3234 7.86887 22.18 7.8693 22.0325C7.88302 19.6705 7.89125 15.2584 7.89125 15.2584Z" fill="#4A43DD"/>
<path d="M31.9059 12.8811C32.3609 12.8811 32.7972 12.7026 33.1189 12.3847C33.4406 12.0669 33.6214 11.6358 33.6214 11.1863C33.6214 10.7367 33.4406 10.3056 33.1189 9.98779C32.7972 9.66994 32.3609 9.49137 31.9059 9.49137C31.451 9.49137 31.0146 9.66994 30.6929 9.98779C30.3712 10.3056 30.1905 10.7367 30.1905 11.1863C30.1905 11.6358 30.3712 12.0669 30.6929 12.3847C31.0146 12.7026 31.451 12.8811 31.9059 12.8811ZM29.1612 4.74568C29.6162 4.74568 30.0525 4.56712 30.3742 4.24926C30.6959 3.93141 30.8767 3.50031 30.8767 3.0508C30.8767 2.60129 30.6959 2.17018 30.3742 1.85233C30.0525 1.53448 29.6162 1.35591 29.1612 1.35591C28.7063 1.35591 28.27 1.53448 27.9483 1.85233C27.6266 2.17018 27.4458 2.60129 27.4458 3.0508C27.4458 3.50031 27.6266 3.93141 27.9483 4.24926C28.27 4.56712 28.7063 4.74568 29.1612 4.74568ZM24.7011 10.1693C25.1561 10.1693 25.5924 9.99076 25.9141 9.6729C26.2358 9.35505 26.4166 8.92395 26.4166 8.47444C26.4166 8.02493 26.2358 7.59382 25.9141 7.27597C25.5924 6.95812 25.1561 6.77955 24.7011 6.77955C24.2462 6.77955 23.8099 6.95812 23.4881 7.27597C23.1664 7.59382 22.9857 8.02493 22.9857 8.47444C22.9857 8.92395 23.1664 9.35505 23.4881 9.6729C23.8099 9.99076 24.2462 10.1693 24.7011 10.1693ZM17.8408 7.4575C18.2958 7.4575 18.7321 7.27894 19.0538 6.96108C19.3755 6.64323 19.5562 6.21213 19.5562 5.76262C19.5562 5.31311 19.3755 4.882 19.0538 4.56415C18.7321 4.2463 18.2958 4.06773 17.8408 4.06773C17.3858 4.06773 16.9495 4.2463 16.6278 4.56415C16.3061 4.882 16.1254 5.31311 16.1254 5.76262C16.1254 6.21213 16.3061 6.64323 16.6278 6.96108C16.9495 7.27894 17.3858 7.4575 17.8408 7.4575ZM12.0084 3.38977C12.2336 3.38977 12.4567 3.34594 12.6648 3.26076C12.8729 3.17558 13.0621 3.05074 13.2213 2.89335C13.3806 2.73597 13.507 2.54913 13.5932 2.34349C13.6794 2.13786 13.7238 1.91746 13.7238 1.69489C13.7238 1.47231 13.6794 1.25192 13.5932 1.04628C13.507 0.840649 13.3806 0.653806 13.2213 0.496421C13.0621 0.339036 12.8729 0.214192 12.6648 0.129016C12.4567 0.0438396 12.2336 0 12.0084 0C11.5534 0 11.1171 0.178568 10.7954 0.496421C10.4737 0.814274 10.2929 1.24538 10.2929 1.69489C10.2929 2.1444 10.4737 2.5755 10.7954 2.89335C11.1171 3.21121 11.5534 3.38977 12.0084 3.38977ZM9.2623 11.1863C9.71726 11.1863 10.1536 11.0077 10.4753 10.6898C10.797 10.372 10.9777 9.94088 10.9777 9.49137C10.9777 9.04186 10.797 8.61076 10.4753 8.2929C10.1536 7.97505 9.71726 7.79648 9.2623 7.79648C8.80734 7.79648 8.37102 7.97505 8.04931 8.2929C7.72761 8.61076 7.54688 9.04186 7.54688 9.49137C7.54688 9.94088 7.72761 10.372 8.04931 10.6898C8.37102 11.0077 8.80734 11.1863 9.2623 11.1863Z" fill="#4A43DD"/>
</svg>
