<svg width="41" height="40" viewBox="0 0 41 40" fill="none" xmlns="http://www.w3.org/2000/svg">
<path d="M26.2572 16.2702C25.3295 16.2567 25.3295 17.6397 26.2572 17.6261H26.5907V24.2471L18.7766 39.0075C18.7224 39.1108 18.696 39.2262 18.7001 39.3426C18.7041 39.4589 18.7384 39.5722 18.7996 39.6717C18.8608 39.7711 18.9469 39.8533 19.0496 39.9103C19.1523 39.9674 19.2681 39.9973 19.3859 39.9973H40.3141C40.4328 39.9972 40.5494 39.9668 40.6526 39.9089C40.7558 39.8509 40.8421 39.7676 40.9029 39.6669C40.9637 39.5662 40.9971 39.4516 40.9997 39.3344C41.0024 39.2172 40.9742 39.1013 40.9179 38.998L32.7662 24.2416V17.6248H33.1011C34.0288 17.6383 34.0288 16.2567 33.1011 16.2689L26.2572 16.2702ZM27.963 17.6261H31.3939V24.4138C31.3933 24.5274 31.4216 24.6393 31.4762 24.7393C34.0384 29.3738 36.5992 34.0055 39.1586 38.6428H20.5195C22.9691 33.9974 25.4311 29.3683 27.8862 24.7284C27.938 24.6314 27.9658 24.5236 27.9671 24.4138L27.963 17.6261Z" fill="#058C42"/>
<path d="M26.0142 31.1807L22.7837 37.2877H36.8447L33.4728 31.1807H26.0142Z" fill="#058C42"/>
<path d="M2.74225 30.4229C2.74225 31.3132 2.91973 32.1947 3.26456 33.0173C3.6094 33.8398 4.11483 34.5872 4.752 35.2167C5.38916 35.8463 6.14559 36.3456 6.97809 36.6863C7.81059 37.027 8.70286 37.2024 9.60395 37.2024C10.505 37.2024 11.3973 37.027 12.2298 36.6863C13.0623 36.3456 13.8187 35.8463 14.4559 35.2167C15.0931 34.5872 15.5985 33.8398 15.9433 33.0173C16.2882 32.1947 16.4657 31.3132 16.4657 30.4229H2.74225Z" fill="#058C42"/>
<path d="M6.18406 13.9017C5.25636 13.8882 5.25636 15.2712 6.18406 15.2576H6.51617C6.51617 17.3837 6.50245 19.4881 6.4997 21.6168C2.19878 23.0894 -0.543153 27.3117 0.0908688 31.8174C0.412228 34.0882 1.55419 36.1676 3.30596 37.6716C5.05772 39.1756 7.30103 40.0027 9.62178 40.0003C11.9419 39.9929 14.1812 39.1572 15.9269 37.6472C17.6725 36.1373 18.807 34.0547 19.1211 31.7835C19.7387 27.2764 16.9844 23.0663 12.6807 21.6073C12.6944 19.4881 12.6944 17.3783 12.6944 15.2576H13.0266C13.9543 15.2712 13.9543 13.8882 13.0266 13.9017H6.18406ZM7.89125 15.2576H11.3194C11.3194 15.2576 11.3056 19.7592 11.3056 22.0209C11.3052 22.1692 11.3539 22.3135 11.4444 22.4318C11.5348 22.5501 11.6621 22.6358 11.8065 22.6758C13.7247 23.2011 15.3852 24.3953 16.4808 26.0372C17.5763 27.6791 18.0327 29.6576 17.7655 31.6064C17.4983 33.5552 16.5255 35.3424 15.0272 36.6371C13.529 37.9317 11.6067 38.6463 9.61629 38.6484C7.62546 38.6546 5.70002 37.9467 4.19753 36.6562C2.69504 35.3657 1.71761 33.5803 1.44674 31.6316C1.17081 29.6845 1.61883 27.7046 2.70772 26.0591C3.79662 24.4135 5.45253 23.2138 7.36839 22.6826C7.5122 22.6427 7.63892 22.5576 7.72932 22.4402C7.81973 22.3227 7.86887 22.1793 7.8693 22.0317C7.88302 19.6698 7.89125 15.2576 7.89125 15.2576Z" fill="#058C42"/>
<path d="M31.9058 12.8807C32.3608 12.8807 32.7971 12.7021 33.1188 12.3842C33.4405 12.0664 33.6213 11.6353 33.6213 11.1858C33.6213 10.7363 33.4405 10.3052 33.1188 9.9873C32.7971 9.66945 32.3608 9.49088 31.9058 9.49088C31.4509 9.49088 31.0145 9.66945 30.6928 9.9873C30.3711 10.3052 30.1904 10.7363 30.1904 11.1858C30.1904 11.6353 30.3711 12.0664 30.6928 12.3842C31.0145 12.7021 31.4509 12.8807 31.9058 12.8807ZM29.1612 4.7452C29.6161 4.7452 30.0524 4.56663 30.3741 4.24878C30.6958 3.93092 30.8766 3.49982 30.8766 3.05031C30.8766 2.6008 30.6958 2.1697 30.3741 1.85184C30.0524 1.53399 29.6161 1.35542 29.1612 1.35542C28.7062 1.35542 28.2699 1.53399 27.9482 1.85184C27.6265 2.1697 27.4457 2.6008 27.4457 3.05031C27.4457 3.49982 27.6265 3.93092 27.9482 4.24878C28.2699 4.56663 28.7062 4.7452 29.1612 4.7452ZM24.701 10.1688C25.156 10.1688 25.5923 9.99027 25.914 9.67242C26.2357 9.35456 26.4165 8.92346 26.4165 8.47395C26.4165 8.02444 26.2357 7.59334 25.914 7.27548C25.5923 6.95763 25.156 6.77906 24.701 6.77906C24.2461 6.77906 23.8098 6.95763 23.4881 7.27548C23.1664 7.59334 22.9856 8.02444 22.9856 8.47395C22.9856 8.92346 23.1664 9.35456 23.4881 9.67242C23.8098 9.99027 24.2461 10.1688 24.701 10.1688ZM17.8407 7.45702C18.2957 7.45702 18.732 7.27845 19.0537 6.9606C19.3754 6.64274 19.5561 6.21164 19.5561 5.76213C19.5561 5.31262 19.3754 4.88152 19.0537 4.56366C18.732 4.24581 18.2957 4.06724 17.8407 4.06724C17.3858 4.06724 16.9494 4.24581 16.6277 4.56366C16.306 4.88152 16.1253 5.31262 16.1253 5.76213C16.1253 6.21164 16.306 6.64274 16.6277 6.9606C16.9494 7.27845 17.3858 7.45702 17.8407 7.45702ZM12.0083 3.38929C12.2335 3.38929 12.4566 3.34545 12.6647 3.26027C12.8729 3.1751 13.062 3.05025 13.2213 2.89287C13.3805 2.73548 13.5069 2.54864 13.5931 2.343C13.6793 2.13737 13.7237 1.91697 13.7237 1.6944C13.7237 1.47182 13.6793 1.25143 13.5931 1.04579C13.5069 0.840161 13.3805 0.653318 13.2213 0.495933C13.062 0.338548 12.8729 0.213703 12.6647 0.128527C12.4566 0.0433513 12.2335 -0.000488281 12.0083 -0.000488281C11.5533 -0.000488281 11.117 0.17808 10.7953 0.495933C10.4736 0.813786 10.2928 1.24489 10.2928 1.6944C10.2928 2.14391 10.4736 2.57501 10.7953 2.89287C11.117 3.21072 11.5533 3.38929 12.0083 3.38929ZM9.26221 11.1858C9.71717 11.1858 10.1535 11.0072 10.4752 10.6893C10.7969 10.3715 10.9776 9.94039 10.9776 9.49088C10.9776 9.04137 10.7969 8.61027 10.4752 8.29241C10.1535 7.97456 9.71717 7.79599 9.26221 7.79599C8.80725 7.79599 8.37092 7.97456 8.04922 8.29241C7.72752 8.61027 7.54678 9.04137 7.54678 9.49088C7.54678 9.94039 7.72752 10.3715 8.04922 10.6893C8.37092 11.0072 8.80725 11.1858 9.26221 11.1858Z" fill="#058C42"/>
</svg>
