<svg width="42" height="40" viewBox="0 0 42 40" fill="none" xmlns="http://www.w3.org/2000/svg">
<path d="M26.7572 16.2702C25.8295 16.2567 25.8295 17.6397 26.7572 17.6261H27.0907V24.2471L19.2766 39.0075C19.2224 39.1108 19.1961 39.2262 19.2001 39.3426C19.2041 39.4589 19.2384 39.5722 19.2996 39.6717C19.3608 39.7711 19.4469 39.8533 19.5496 39.9103C19.6523 39.9674 19.7681 39.9973 19.8859 39.9973H40.8141C40.9328 39.9972 41.0495 39.9668 41.1527 39.9089C41.2559 39.8509 41.3421 39.7676 41.4029 39.6669C41.4638 39.5662 41.4971 39.4516 41.4998 39.3344C41.5024 39.2172 41.4742 39.1013 41.418 38.998L33.2663 24.2416V17.6248H33.6011C34.5288 17.6383 34.5288 16.2567 33.6011 16.2689L26.7572 16.2702ZM28.4631 17.6261H31.8939V24.4138C31.8933 24.5274 31.9217 24.6393 31.9763 24.7393C34.5384 29.3738 37.0992 34.0055 39.6586 38.6428H21.0195C23.4691 33.9974 25.9311 29.3683 28.3862 24.7284C28.4381 24.6314 28.4658 24.5236 28.4672 24.4138L28.4631 17.6261Z" fill="#10002B"/>
<path d="M26.5142 31.1807L23.2837 37.2877H37.3447L33.9729 31.1807H26.5142Z" fill="#10002B"/>
<path d="M3.24219 30.4229C3.24219 31.3132 3.41967 32.1947 3.7645 33.0173C4.10934 33.8398 4.61477 34.5872 5.25193 35.2167C5.8891 35.8463 6.64553 36.3456 7.47803 36.6863C8.31053 37.027 9.2028 37.2024 10.1039 37.2024C11.005 37.2024 11.8973 37.027 12.7298 36.6863C13.5623 36.3456 14.3187 35.8463 14.9558 35.2167C15.593 34.5872 16.0984 33.8398 16.4433 33.0173C16.7881 32.1947 16.9656 31.3132 16.9656 30.4229H3.24219Z" fill="#10002B"/>
<path d="M6.68406 13.9017C5.75636 13.8882 5.75636 15.2712 6.68406 15.2576H7.01617C7.01617 17.3837 7.00245 19.4881 6.9997 21.6168C2.69878 23.0894 -0.0431527 27.3117 0.590869 31.8174C0.912228 34.0882 2.05419 36.1676 3.80596 37.6716C5.55772 39.1756 7.80103 40.0027 10.1218 40.0003C12.4419 39.9929 14.6812 39.1572 16.4269 37.6472C18.1725 36.1373 19.307 34.0547 19.6211 31.7835C20.2387 27.2764 17.4844 23.0663 13.1807 21.6073C13.1944 19.4881 13.1944 17.3783 13.1944 15.2576H13.5266C14.4543 15.2712 14.4543 13.8882 13.5266 13.9017H6.68406ZM8.39125 15.2576H11.8194C11.8194 15.2576 11.8056 19.7592 11.8056 22.0209C11.8052 22.1692 11.8539 22.3135 11.9444 22.4318C12.0348 22.5501 12.1621 22.6358 12.3065 22.6758C14.2247 23.2011 15.8852 24.3953 16.9808 26.0372C18.0763 27.6791 18.5327 29.6576 18.2655 31.6064C17.9983 33.5552 17.0255 35.3424 15.5272 36.6371C14.029 37.9317 12.1067 38.6463 10.1163 38.6484C8.12546 38.6546 6.20002 37.9467 4.69753 36.6562C3.19504 35.3657 2.21761 33.5803 1.94674 31.6316C1.67081 29.6845 2.11883 27.7046 3.20772 26.0591C4.29662 24.4135 5.95253 23.2138 7.86839 22.6826C8.0122 22.6427 8.13892 22.5576 8.22932 22.4402C8.31973 22.3227 8.36887 22.1793 8.3693 22.0317C8.38302 19.6698 8.39125 15.2576 8.39125 15.2576Z" fill="#10002B"/>
<path d="M32.4059 12.8807C32.8609 12.8807 33.2972 12.7021 33.6189 12.3842C33.9406 12.0664 34.1214 11.6353 34.1214 11.1858C34.1214 10.7363 33.9406 10.3052 33.6189 9.9873C33.2972 9.66945 32.8609 9.49088 32.4059 9.49088C31.951 9.49088 31.5146 9.66945 31.1929 9.9873C30.8712 10.3052 30.6905 10.7363 30.6905 11.1858C30.6905 11.6353 30.8712 12.0664 31.1929 12.3842C31.5146 12.7021 31.951 12.8807 32.4059 12.8807ZM29.6612 4.7452C30.1162 4.7452 30.5525 4.56663 30.8742 4.24878C31.1959 3.93092 31.3767 3.49982 31.3767 3.05031C31.3767 2.6008 31.1959 2.1697 30.8742 1.85184C30.5525 1.53399 30.1162 1.35542 29.6612 1.35542C29.2063 1.35542 28.77 1.53399 28.4483 1.85184C28.1266 2.1697 27.9458 2.6008 27.9458 3.05031C27.9458 3.49982 28.1266 3.93092 28.4483 4.24878C28.77 4.56663 29.2063 4.7452 29.6612 4.7452ZM25.2011 10.1688C25.6561 10.1688 26.0924 9.99027 26.4141 9.67242C26.7358 9.35456 26.9166 8.92346 26.9166 8.47395C26.9166 8.02444 26.7358 7.59334 26.4141 7.27548C26.0924 6.95763 25.6561 6.77906 25.2011 6.77906C24.7462 6.77906 24.3099 6.95763 23.9881 7.27548C23.6664 7.59334 23.4857 8.02444 23.4857 8.47395C23.4857 8.92346 23.6664 9.35456 23.9881 9.67242C24.3099 9.99027 24.7462 10.1688 25.2011 10.1688ZM18.3408 7.45702C18.7958 7.45702 19.2321 7.27845 19.5538 6.9606C19.8755 6.64274 20.0562 6.21164 20.0562 5.76213C20.0562 5.31262 19.8755 4.88152 19.5538 4.56366C19.2321 4.24581 18.7958 4.06724 18.3408 4.06724C17.8858 4.06724 17.4495 4.24581 17.1278 4.56366C16.8061 4.88152 16.6254 5.31262 16.6254 5.76213C16.6254 6.21164 16.8061 6.64274 17.1278 6.9606C17.4495 7.27845 17.8858 7.45702 18.3408 7.45702ZM12.5084 3.38929C12.7336 3.38929 12.9567 3.34545 13.1648 3.26027C13.3729 3.1751 13.5621 3.05025 13.7213 2.89287C13.8806 2.73548 14.007 2.54864 14.0932 2.343C14.1794 2.13737 14.2238 1.91697 14.2238 1.6944C14.2238 1.47182 14.1794 1.25143 14.0932 1.04579C14.007 0.840161 13.8806 0.653318 13.7213 0.495933C13.5621 0.338548 13.3729 0.213703 13.1648 0.128527C12.9567 0.0433513 12.7336 -0.000488281 12.5084 -0.000488281C12.0534 -0.000488281 11.6171 0.17808 11.2954 0.495933C10.9737 0.813786 10.7929 1.24489 10.7929 1.6944C10.7929 2.14391 10.9737 2.57501 11.2954 2.89287C11.6171 3.21072 12.0534 3.38929 12.5084 3.38929ZM9.7623 11.1858C10.2173 11.1858 10.6536 11.0072 10.9753 10.6893C11.297 10.3715 11.4777 9.94039 11.4777 9.49088C11.4777 9.04137 11.297 8.61027 10.9753 8.29241C10.6536 7.97456 10.2173 7.79599 9.7623 7.79599C9.30734 7.79599 8.87102 7.97456 8.54931 8.29241C8.22761 8.61027 8.04688 9.04137 8.04688 9.49088C8.04688 9.94039 8.22761 10.3715 8.54931 10.6893C8.87102 11.0072 9.30734 11.1858 9.7623 11.1858Z" fill="#10002B"/>
</svg>
