<svg width="41" height="40" viewBox="0 0 41 40" fill="none" xmlns="http://www.w3.org/2000/svg">
<path d="M26.2572 16.2707C25.3295 16.2572 25.3295 17.6402 26.2572 17.6266H26.5907V24.2475L18.7766 39.008C18.7224 39.1113 18.6961 39.2267 18.7001 39.343C18.7041 39.4594 18.7384 39.5727 18.7996 39.6721C18.8608 39.7716 18.9469 39.8538 19.0496 39.9108C19.1523 39.9678 19.2681 39.9978 19.3859 39.9978H40.3141C40.4328 39.9977 40.5495 39.9673 40.6527 39.9093C40.7559 39.8514 40.8421 39.7681 40.9029 39.6674C40.9638 39.5667 40.9971 39.4521 40.9998 39.3349C41.0024 39.2177 40.9742 39.1017 40.918 38.9985L32.7663 24.2421V17.6253H33.1011C34.0288 17.6388 34.0288 16.2572 33.1011 16.2694L26.2572 16.2707ZM27.9631 17.6266H31.3939V24.4143C31.3933 24.5279 31.4217 24.6398 31.4763 24.7397C34.0384 29.3742 36.5992 34.006 39.1586 38.6432H20.5195C22.9691 33.9979 25.4311 29.3688 27.8862 24.7289C27.9381 24.6319 27.9658 24.524 27.9672 24.4143L27.9631 17.6266Z" fill="#0A0571"/>
<path d="M26.0142 31.1812L22.7837 37.2882H36.8447L33.4729 31.1812H26.0142Z" fill="#0A0571"/>
<path d="M2.74231 30.4233C2.74231 31.3136 2.91979 32.1952 3.26463 33.0178C3.60946 33.8403 4.11489 34.5877 4.75206 35.2172C5.38922 35.8467 6.14565 36.3461 6.97815 36.6868C7.81065 37.0275 8.70292 37.2029 9.60401 37.2029C10.5051 37.2029 11.3974 37.0275 12.2299 36.6868C13.0624 36.3461 13.8188 35.8467 14.456 35.2172C15.0931 34.5877 15.5986 33.8403 15.9434 33.0178C16.2882 32.1952 16.4657 31.3136 16.4657 30.4233H2.74231Z" fill="#0A0571"/>
<path d="M6.18406 13.9022C5.25636 13.8886 5.25636 15.2717 6.18406 15.2581H6.51617C6.51617 17.3842 6.50245 19.4885 6.4997 21.6173C2.19878 23.0898 -0.543153 27.3122 0.0908688 31.8178C0.412228 34.0887 1.55419 36.1681 3.30596 37.6721C5.05772 39.1761 7.30103 40.0032 9.62178 40.0008C11.9419 39.9934 14.1812 39.1577 15.9269 37.6477C17.6725 36.1377 18.807 34.0552 19.1211 31.7839C19.7387 27.2769 16.9844 23.0668 12.6807 21.6078C12.6944 19.4885 12.6944 17.3788 12.6944 15.2581H13.0266C13.9543 15.2717 13.9543 13.8886 13.0266 13.9022H6.18406ZM7.89125 15.2581H11.3194C11.3194 15.2581 11.3056 19.7597 11.3056 22.0214C11.3052 22.1696 11.3539 22.314 11.4444 22.4323C11.5348 22.5505 11.6621 22.6363 11.8065 22.6763C13.7247 23.2016 15.3852 24.3958 16.4808 26.0377C17.5763 27.6796 18.0327 29.6581 17.7655 31.6069C17.4983 33.5557 16.5255 35.3428 15.0272 36.6375C13.529 37.9322 11.6067 38.6468 9.61629 38.6489C7.62546 38.6551 5.70002 37.9471 4.19753 36.6567C2.69504 35.3662 1.71761 33.5808 1.44674 31.6321C1.17081 29.685 1.61883 27.7051 2.70772 26.0595C3.79662 24.414 5.45253 23.2143 7.36839 22.6831C7.5122 22.6432 7.63892 22.5581 7.72932 22.4407C7.81973 22.3232 7.86887 22.1798 7.8693 22.0322C7.88302 19.6702 7.89125 15.2581 7.89125 15.2581Z" fill="#0A0571"/>
<path d="M31.9058 12.8811C32.3608 12.8811 32.7971 12.7026 33.1188 12.3847C33.4405 12.0669 33.6212 11.6358 33.6212 11.1863C33.6212 10.7367 33.4405 10.3056 33.1188 9.98779C32.7971 9.66994 32.3608 9.49137 31.9058 9.49137C31.4508 9.49137 31.0145 9.66994 30.6928 9.98779C30.3711 10.3056 30.1904 10.7367 30.1904 11.1863C30.1904 11.6358 30.3711 12.0669 30.6928 12.3847C31.0145 12.7026 31.4508 12.8811 31.9058 12.8811ZM29.1611 4.74568C29.6161 4.74568 30.0524 4.56712 30.3741 4.24926C30.6958 3.93141 30.8765 3.50031 30.8765 3.0508C30.8765 2.60129 30.6958 2.17018 30.3741 1.85233C30.0524 1.53448 29.6161 1.35591 29.1611 1.35591C28.7062 1.35591 28.2698 1.53448 27.9481 1.85233C27.6264 2.17018 27.4457 2.60129 27.4457 3.0508C27.4457 3.50031 27.6264 3.93141 27.9481 4.24926C28.2698 4.56712 28.7062 4.74568 29.1611 4.74568ZM24.701 10.1693C25.156 10.1693 25.5923 9.99076 25.914 9.6729C26.2357 9.35505 26.4164 8.92395 26.4164 8.47444C26.4164 8.02493 26.2357 7.59382 25.914 7.27597C25.5923 6.95812 25.156 6.77955 24.701 6.77955C24.2461 6.77955 23.8097 6.95812 23.488 7.27597C23.1663 7.59382 22.9856 8.02493 22.9856 8.47444C22.9856 8.92395 23.1663 9.35505 23.488 9.6729C23.8097 9.99076 24.2461 10.1693 24.701 10.1693ZM17.8407 7.4575C18.2956 7.4575 18.732 7.27894 19.0537 6.96108C19.3754 6.64323 19.5561 6.21213 19.5561 5.76262C19.5561 5.31311 19.3754 4.882 19.0537 4.56415C18.732 4.2463 18.2956 4.06773 17.8407 4.06773C17.3857 4.06773 16.9494 4.2463 16.6277 4.56415C16.306 4.882 16.1253 5.31311 16.1253 5.76262C16.1253 6.21213 16.306 6.64323 16.6277 6.96108C16.9494 7.27894 17.3857 7.4575 17.8407 7.4575ZM12.0082 3.38977C12.2335 3.38977 12.4566 3.34594 12.6647 3.26076C12.8728 3.17558 13.0619 3.05074 13.2212 2.89335C13.3805 2.73597 13.5069 2.54913 13.5931 2.34349C13.6793 2.13786 13.7237 1.91746 13.7237 1.69489C13.7237 1.47231 13.6793 1.25192 13.5931 1.04628C13.5069 0.840649 13.3805 0.653806 13.2212 0.496421C13.0619 0.339036 12.8728 0.214192 12.6647 0.129016C12.4566 0.0438396 12.2335 0 12.0082 0C11.5533 0 11.1169 0.178568 10.7952 0.496421C10.4735 0.814274 10.2928 1.24538 10.2928 1.69489C10.2928 2.1444 10.4735 2.5755 10.7952 2.89335C11.1169 3.21121 11.5533 3.38977 12.0082 3.38977ZM9.26218 11.1863C9.71714 11.1863 10.1535 11.0077 10.4752 10.6898C10.7969 10.372 10.9776 9.94088 10.9776 9.49137C10.9776 9.04186 10.7969 8.61076 10.4752 8.2929C10.1535 7.97505 9.71714 7.79648 9.26218 7.79648C8.80722 7.79648 8.37089 7.97505 8.04919 8.2929C7.72748 8.61076 7.54675 9.04186 7.54675 9.49137C7.54675 9.94088 7.72748 10.372 8.04919 10.6898C8.37089 11.0077 8.80722 11.1863 9.26218 11.1863Z" fill="#0A0571"/>
</svg>
